STARTFONT 2.1
COMMENT This font was automatically resized by bdfresize-1.4
COMMENT   mag_x = 2/5, mag_y = 2/5, blackness = 4
FONT -CBS-Song-Medium-R-Normal-Fantizi-16-160-75-75-C-160-CNS11643.1992-7
SIZE 16 80 80
FONTBOUNDINGBOX 16 16 0 -2
STARTPROPERTIES 23
FONTNAME_REGISTRY ""
FOUNDRY "CBS"
FAMILY_NAME "Song"
WEIGHT_NAME "Medium"
SLANT "R"
SETWIDTH_NAME "Normal"
ADD_STYLE_NAME "Fantizi"
PIXEL_SIZE 16
POINT_SIZE 160
RESOLUTION_X 75
RESOLUTION_Y 75
SPACING "C"
AVERAGE_WIDTH 160
CHARSET_REGISTRY "CNS11643.1992"
CHARSET_ENCODING "7"
COPYRIGHT "March 1994 by Central Bureau of Standards, Ministry of Economy, ROC"
WEIGHT 19329
RESOLUTION 110
X_HEIGHT 34
QUAD_WIDTH 40
DEFAULT_CHAR 32382
FONT_ASCENT 14
FONT_DESCENT 2
ENDPROPERTIES
CHARS 6540
STARTCHAR 2121
ENCODING 8481
SWIDTH 362 0
DWIDTH 16 0
BBX 16 16 0 -2
BITMAP
0180
7FFF
0180
3FFC
3188
3188
7FFF
C003
BFFA
0660
7E7C
6004
664C
666C
0662
7FFF
ENDCHAR
STARTCHAR 2122
ENCODING 8482
SWIDTH 362 0
DWIDTH 16 0
BBX 16 16 0 -2
BITMAP
0300
0183
FFFF
1FF8
1818
1FF0
1010
1818
3636
DADA
1C1C
3636
DADA
1818
1818
1010
ENDCHAR
STARTCHAR 2123
ENCODING 8483
SWIDTH 362 0
DWIDTH 16 0
BBX 16 16 0 -2
BITMAP
0300
0182
7FFE
0618
1FFC
1804
FFFF
1990
7FFE
7FFE
1990
7FFE
1998
7DFE
1998
1110
ENDCHAR
STARTCHAR 2124
ENCODING 8484
SWIDTH 362 0
DWIDTH 16 0
BBX 16 16 0 -2
BITMAP
0300
0183
FFFF
0200
7FFC
61E4
6FA4
67E4
6FFC
6DB4
7994
0183
FFFF
0618
1806
7003
ENDCHAR
STARTCHAR 2125
ENCODING 8485
SWIDTH 362 0
DWIDTH 16 0
BBX 16 16 0 -2
BITMAP
1C60
1823
1BFF
36CE
30CE
70CC
71FE
B0C8
33FF
3187
33FF
3584
31FC
3180
31FE
30FF
ENDCHAR
STARTCHAR 2126
ENCODING 8486
SWIDTH 362 0
DWIDTH 16 0
BBX 16 16 0 -2
BITMAP
1D8C
1BEF
1BDE
31CE
3373
7222
73FF
B602
33FC
304C
31CC
30CC
30EC
31AD
330F
3607
ENDCHAR
STARTCHAR 2127
ENCODING 8487
SWIDTH 362 0
DWIDTH 16 0
BBX 16 16 0 -2
BITMAP
1C02
1BFF
187A
317A
30FE
73FF
727A
B3FF
327A
327A
33FE
32FC
36FE
357B
3F79
3858
ENDCHAR
STARTCHAR 2128
ENCODING 8488
SWIDTH 362 0
DWIDTH 16 0
BBX 16 16 0 -2
BITMAP
181C
301A
301B
27FF
60D8
66FA
E69B
E7FA
601A
67EE
61EE
65CC
658C
6F9F
69F3
7023
ENDCHAR
STARTCHAR 2129
ENCODING 8489
SWIDTH 362 0
DWIDTH 16 0
BBX 16 16 0 -2
BITMAP
1023
37E3
328F
27EB
66AB
66AB
E7EB
E00B
67EB
600B
67EB
658B
67E3
6DB3
698F
6106
ENDCHAR
STARTCHAR 212a
ENCODING 8490
SWIDTH 362 0
DWIDTH 16 0
BBX 16 16 0 -2
BITMAP
1C00
1FF0
1B7F
33FB
337B
73FB
737F
B7E8
3240
307E
30B0
3030
33FF
3030
3032
31FF
ENDCHAR
STARTCHAR 212b
ENCODING 8491
SWIDTH 362 0
DWIDTH 16 0
BBX 16 16 0 -2
BITMAP
1830
3F24
3DFE
2FD6
6ED6
6EFE
EFD6
EDD6
6DFC
6D3E
6D3E
6F7F
6C5C
6CD9
6D9F
6F0F
ENDCHAR
STARTCHAR 212c
ENCODING 8492
SWIDTH 362 0
DWIDTH 16 0
BBX 16 16 0 -2
BITMAP
1C63
18CC
19CE
33D6
316A
72F6
716A
B062
31DE
3084
3030
3036
31FE
3030
3032
33FF
ENDCHAR
STARTCHAR 212d
ENCODING 8493
SWIDTH 362 0
DWIDTH 16 0
BBX 16 16 0 -2
BITMAP
1C30
1833
1BFF
314B
30C6
71FF
7387
B1FE
3186
303C
3032
31B6
30F8
30CC
3187
3303
ENDCHAR
STARTCHAR 212e
ENCODING 8494
SWIDTH 362 0
DWIDTH 16 0
BBX 16 16 0 -2
BITMAP
180C
378C
358F
258C
6588
678A
E33E
E306
6707
6786
6726
6736
6716
6F06
6C1E
600C
ENDCHAR
STARTCHAR 212f
ENCODING 8495
SWIDTH 362 0
DWIDTH 16 0
BBX 16 16 0 -2
BITMAP
1C30
19B3
1932
33FE
3022
7062
71FF
B133
31FE
3132
31FE
307C
30DF
3099
311F
360F
ENDCHAR
STARTCHAR 2130
ENCODING 8496
SWIDTH 362 0
DWIDTH 16 0
BBX 16 16 0 -2
BITMAP
1B02
33DF
37FB
24DB
6DFB
6D7B
E57B
E7FB
657B
657B
67FB
641F
601E
6AB8
6AB8
6818
ENDCHAR
STARTCHAR 2131
ENCODING 8497
SWIDTH 362 0
DWIDTH 16 0
BBX 16 16 0 -2
BITMAP
188E
38FC
36CA
22FF
60C8
66FE
EEF6
E6F6
64FE
6FF6
62BE
66B6
6536
6F36
69FF
607F
ENDCHAR
STARTCHAR 2132
ENCODING 8498
SWIDTH 362 0
DWIDTH 16 0
BBX 16 16 0 -2
BITMAP
4630
7EFF
6646
7E24
60FF
7F18
527E
D218
9E18
0660
0460
0460
0C61
1861
307F
C03F
ENDCHAR
STARTCHAR 2133
ENCODING 8499
SWIDTH 362 0
DWIDTH 16 0
BBX 16 16 0 -2
BITMAP
0180
1FF8
0180
7FFF
0640
0C41
387F
607F
1818
7E7E
1818
FEFF
2C2C
6D6D
4E4F
8487
ENDCHAR
STARTCHAR 2134
ENCODING 8500
SWIDTH 362 0
DWIDTH 16 0
BBX 16 16 0 -2
BITMAP
1086
FEFE
C696
C6FE
E696
C696
C6FE
C632
FEFF
2823
2862
28C2
699E
4905
CFFF
87FF
ENDCHAR
STARTCHAR 2135
ENCODING 8501
SWIDTH 362 0
DWIDTH 16 0
BBX 16 16 0 -2
BITMAP
4006
7FFE
4C36
4666
43DE
4DA6
599E
718E
5FF6
5A96
5EF6
5FD6
5A56
5FF6
401E
4006
ENDCHAR
STARTCHAR 2136
ENCODING 8502
SWIDTH 362 0
DWIDTH 16 0
BBX 16 16 0 -2
BITMAP
0070
C062
607E
2066
0FFE
1666
16FE
3666
26DE
67FE
E070
C063
67FF
6368
6666
0C62
ENDCHAR
STARTCHAR 2137
ENCODING 8503
SWIDTH 362 0
DWIDTH 16 0
BBX 16 16 0 -2
BITMAP
030C
C60A
6FBF
2DB3
0FBA
1DBE
3DB2
2DBF
2DB2
6FFA
EDBE
C3B2
67B2
6DA2
7BEE
01C6
ENDCHAR
STARTCHAR 2138
ENCODING 8504
SWIDTH 362 0
DWIDTH 16 0
BBX 16 16 0 -2
BITMAP
0C03
7F83
0D9A
FFD2
0D92
0D92
0CD2
3C12
6D92
CCD2
7F92
6D92
7F82
7F82
409E
FFC6
ENDCHAR
STARTCHAR 2139
ENCODING 8505
SWIDTH 362 0
DWIDTH 16 0
BBX 16 16 0 -2
BITMAP
0083
7FC3
061A
7FD2
6692
6612
7F92
6092
7F92
6C92
7792
4F12
5782
DAC2
BE1E
0606
ENDCHAR
STARTCHAR 213a
ENCODING 8506
SWIDTH 362 0
DWIDTH 16 0
BBX 16 16 0 -2
BITMAP
1203
5283
5E9A
5292
5E92
5E92
5292
FF92
1E92
1E92
7FD2
5E92
5E82
DE82
9E9E
9686
ENDCHAR
STARTCHAR 213b
ENCODING 8507
SWIDTH 362 0
DWIDTH 16 0
BBX 16 16 0 -2
BITMAP
2600
337F
2213
3E13
0193
F793
D593
F793
DC13
0C13
FFB3
2A33
3B23
69E2
C8DE
098C
ENDCHAR
STARTCHAR 213c
ENCODING 8508
SWIDTH 362 0
DWIDTH 16 0
BBX 16 16 0 -2
BITMAP
0C03
0C83
0F9A
4992
7F92
4D92
7F92
4D92
5392
7F92
0C12
0C92
FF82
6A02
499E
8886
ENDCHAR
STARTCHAR 213d
ENCODING 8509
SWIDTH 362 0
DWIDTH 16 0
BBX 16 16 0 -2
BITMAP
6303
6BC3
7FDA
DC92
8C12
7F92
6192
7F92
6192
7F92
6192
6192
7F02
3202
619E
C086
ENDCHAR
STARTCHAR 213e
ENCODING 8510
SWIDTH 362 0
DWIDTH 16 0
BBX 16 16 0 -2
BITMAP
3203
3F03
461A
FF92
4D92
5F92
7D92
5F92
7192
7F92
0C92
4992
2E02
1B02
319E
C086
ENDCHAR
STARTCHAR 213f
ENCODING 8511
SWIDTH 362 0
DWIDTH 16 0
BBX 16 16 0 -2
BITMAP
3003
FFC3
C6DA
C692
F692
FF92
C912
FF92
1612
1792
F792
C192
F582
F782
169E
FF86
ENDCHAR
STARTCHAR 2140
ENCODING 8512
SWIDTH 362 0
DWIDTH 16 0
BBX 16 16 0 -2
BITMAP
1886
10FE
1C86
10FE
7C86
4486
4CFE
4C00
44FE
7C10
1010
15FF
FE10
1010
1010
1010
ENDCHAR
STARTCHAR 2141
ENCODING 8513
SWIDTH 362 0
DWIDTH 16 0
BBX 16 16 0 -2
BITMAP
0180
01FE
4186
66C6
6C76
5804
3FF8
3FF8
3008
0003
FFFF
7FFE
6346
6636
7816
400C
ENDCHAR
STARTCHAR 2142
ENCODING 8514
SWIDTH 362 0
DWIDTH 16 0
BBX 16 16 0 -2
BITMAP
4002
7FFF
6B3E
7B36
7926
7FFC
6604
7DFE
7926
7D2E
7966
58C6
5FDE
C360
861F
9C0E
ENDCHAR
STARTCHAR 2143
ENCODING 8515
SWIDTH 362 0
DWIDTH 16 0
BBX 16 16 0 -2
BITMAP
4002
7FFF
6630
7EB0
7FB0
663F
76E6
7FE6
6656
7FD4
641C
4F9C
4D9C
C9B6
97E3
A3C1
ENDCHAR
STARTCHAR 2144
ENCODING 8516
SWIDTH 362 0
DWIDTH 16 0
BBX 16 16 0 -2
BITMAP
4002
7FFF
6184
67FE
67FC
67FC
6048
6F78
6678
6DCF
70C2
43C0
4B60
CA16
9BF3
91F1
ENDCHAR
STARTCHAR 2145
ENCODING 8517
SWIDTH 362 0
DWIDTH 16 0
BBX 16 16 0 -2
BITMAP
3186
3184
2184
2184
7BDE
2184
2184
2184
FFDF
610C
610C
630C
534A
DAD7
EF7D
4210
ENDCHAR
STARTCHAR 2146
ENCODING 8518
SWIDTH 362 0
DWIDTH 16 0
BBX 16 16 0 -2
BITMAP
0300
0183
FFFF
1FF8
1818
1FF0
7FFF
C00F
BFFC
264C
3E7C
200C
364C
2648
0642
7FFE
ENDCHAR
STARTCHAR 2147
ENCODING 8519
SWIDTH 362 0
DWIDTH 16 0
BBX 16 16 0 -2
BITMAP
0300
0183
FFFF
366C
37C8
3FF8
0188
7FFE
4306
5FFE
4676
5FFE
4C26
4FE6
403E
400C
ENDCHAR
STARTCHAR 2148
ENCODING 8520
SWIDTH 362 0
DWIDTH 16 0
BBX 16 16 0 -2
BITMAP
600C
6180
7FF8
6018
7FF8
6180
7FFE
0180
4DAE
6DB6
6DA6
7DBC
0186
0180
0182
FFFF
ENDCHAR
STARTCHAR 2149
ENCODING 8521
SWIDTH 362 0
DWIDTH 16 0
BBX 16 16 0 -2
BITMAP
0180
7FFE
1190
1198
3DB4
67E0
0DBF
718E
C180
000C
3FFC
27EC
246C
27EC
300C
300C
ENDCHAR
STARTCHAR 214a
ENCODING 8522
SWIDTH 362 0
DWIDTH 16 0
BBX 16 16 0 -2
BITMAP
0020
0133
DBFF
DA32
D832
D804
D886
D8CC
D8CB
D800
D906
F986
C186
0186
0186
0186
ENDCHAR
STARTCHAR 214b
ENCODING 8523
SWIDTH 362 0
DWIDTH 16 0
BBX 16 16 0 -2
BITMAP
0020
0133
DBFF
DA4E
D9FE
D9FE
D848
DBFF
D986
DBFF
DE84
F8FC
C09D
0083
00FF
007E
ENDCHAR
STARTCHAR 214c
ENCODING 8524
SWIDTH 362 0
DWIDTH 16 0
BBX 16 16 0 -2
BITMAP
0060
03FF
DAC3
DEFE
D98C
DF78
D87C
D9CF
DBFE
D8CC
D9FE
F9F2
C036
0030
0032
03FF
ENDCHAR
STARTCHAR 214d
ENCODING 8525
SWIDTH 362 0
DWIDTH 16 0
BBX 16 16 0 -2
BITMAP
0020
0133
DBFF
DADA
D98F
D904
D9FE
D986
D986
D9BC
D832
F9FF
C1B4
01B7
0333
0030
ENDCHAR
STARTCHAR 214e
ENCODING 8526
SWIDTH 362 0
DWIDTH 16 0
BBX 16 16 0 -2
BITMAP
00CC
00D8
FAD6
DB8C
D90C
DA07
DFDF
D8D4
DBF6
DA27
DEC6
FEF6
D0DC
00CC
0797
0163
ENDCHAR
STARTCHAR 214f
ENCODING 8527
SWIDTH 362 0
DWIDTH 16 0
BBX 16 16 0 -2
BITMAP
000E
000B
F80D
D80C
D868
D808
DBE8
DA28
DBE8
DBEC
DA6C
FBED
D365
0347
0623
0C33
ENDCHAR
STARTCHAR 2150
ENCODING 8528
SWIDTH 362 0
DWIDTH 16 0
BBX 16 16 0 -2
BITMAP
0322
033F
FB22
DB3E
DFA2
DB22
DB3E
DB03
DB7F
DB28
DB3E
FBAC
D328
0E78
04CF
0086
ENDCHAR
STARTCHAR 2151
ENCODING 8529
SWIDTH 362 0
DWIDTH 16 0
BBX 16 16 0 -2
BITMAP
031A
031B
FA7F
DA7F
DFFA
DA7E
DA7A
DA7E
DA7A
DA4E
DA07
FA46
D226
0226
021E
020C
ENDCHAR
STARTCHAR 2152
ENCODING 8530
SWIDTH 362 0
DWIDTH 16 0
BBX 16 16 0 -2
BITMAP
0000
03FF
D87A
D9FF
D97A
D97A
D9FE
D830
D9FE
D830
DBFF
F830
C036
0030
0030
03FF
ENDCHAR
STARTCHAR 2153
ENCODING 8531
SWIDTH 362 0
DWIDTH 16 0
BBX 16 16 0 -2
BITMAP
0304
037E
FFB4
F334
D334
D7FC
D7B4
D6F4
DF3C
D3B4
D7B4
F334
C324
0F65
0C47
0083
ENDCHAR
STARTCHAR 2154
ENCODING 8532
SWIDTH 362 0
DWIDTH 16 0
BBX 16 16 0 -2
BITMAP
0030
0033
DBFF
D834
D9FE
D986
D9FC
D832
D9FE
D84C
D87B
F830
C036
0030
0030
0030
ENDCHAR
STARTCHAR 2155
ENCODING 8533
SWIDTH 362 0
DWIDTH 16 0
BBX 16 16 0 -2
BITMAP
019C
019A
FFDB
D998
DFDB
DE58
DED8
DEDB
DE5A
DFDE
D99E
FFEC
D18C
019D
01B7
01C3
ENDCHAR
STARTCHAR 2156
ENCODING 8534
SWIDTH 362 0
DWIDTH 16 0
BBX 16 16 0 -2
BITMAP
0030
0033
DBFF
D9B6
D9F6
DB79
DA78
D8F7
DB33
D936
D9FE
F986
C1FE
0186
0186
0186
ENDCHAR
STARTCHAR 2157
ENCODING 8535
SWIDTH 362 0
DWIDTH 16 0
BBX 16 16 0 -2
BITMAP
01A2
013F
F922
DFFE
D922
D922
D93E
D983
DF7F
DF28
D93E
F92C
D128
0178
07CF
0386
ENDCHAR
STARTCHAR 2158
ENCODING 8536
SWIDTH 362 0
DWIDTH 16 0
BBX 16 16 0 -2
BITMAP
0006
00C8
D98C
DBFE
DB22
DBFE
D820
DFFF
D806
D8C8
D98C
FBFE
C322
03FE
0020
07FF
ENDCHAR
STARTCHAR 2159
ENCODING 8537
SWIDTH 362 0
DWIDTH 16 0
BBX 16 16 0 -2
BITMAP
0002
07FF
D846
DBFE
DB5E
DB5E
DB5E
DB56
D803
D860
DBC6
FBDE
C35E
035E
035E
0356
ENDCHAR
STARTCHAR 215a
ENCODING 8538
SWIDTH 362 0
DWIDTH 16 0
BBX 16 16 0 -2
BITMAP
264C
664C
6644
7E7C
6000
0606
7ECC
7E38
063E
7EC3
6184
5C4E
6038
4038
7EEF
0387
ENDCHAR
STARTCHAR 215b
ENCODING 8539
SWIDTH 362 0
DWIDTH 16 0
BBX 16 16 0 -2
BITMAP
264C
664C
664C
664C
0006
0700
1618
1018
1018
1018
1018
1018
1018
1C78
1C1C
7007
ENDCHAR
STARTCHAR 215c
ENCODING 8540
SWIDTH 362 0
DWIDTH 16 0
BBX 16 16 0 -2
BITMAP
0604
7E7E
6644
7E7C
0000
1FF0
1810
1810
1830
0830
4646
7E7E
4646
4646
4646
4646
ENDCHAR
STARTCHAR 215d
ENCODING 8541
SWIDTH 362 0
DWIDTH 16 0
BBX 16 16 0 -2
BITMAP
0002
03FF
DB7B
DB7B
DBFE
D803
DBFF
D862
D9B6
DB7C
D8D8
F9BC
C27B
01D9
0278
0030
ENDCHAR
STARTCHAR 215e
ENCODING 8542
SWIDTH 362 0
DWIDTH 16 0
BBX 16 16 0 -2
BITMAP
0070
0066
D8FE
D9BC
DA98
DB30
D9E0
D912
D9FE
D8CC
D8DB
F804
C1FE
0186
0186
0184
ENDCHAR
STARTCHAR 215f
ENCODING 8543
SWIDTH 362 0
DWIDTH 16 0
BBX 16 16 0 -2
BITMAP
007C
0058
DBDF
D858
D8DE
D8D8
D858
D9DF
DF58
D858
D8B0
F8D8
C286
028F
06FD
0478
ENDCHAR
STARTCHAR 2160
ENCODING 8544
SWIDTH 362 0
DWIDTH 16 0
BBX 16 16 0 -2
BITMAP
0060
0062
D9FF
D902
D9FE
D902
D902
D932
D8B2
D830
D9F7
F830
C3FF
0030
0030
0030
ENDCHAR
STARTCHAR 2161
ENCODING 8545
SWIDTH 362 0
DWIDTH 16 0
BBX 16 16 0 -2
BITMAP
000E
007E
D9B0
D9B6
D9B6
D97F
DA79
D9B6
D9B6
D97F
DA78
F836
C1FE
0030
0032
03FF
ENDCHAR
STARTCHAR 2162
ENCODING 8546
SWIDTH 362 0
DWIDTH 16 0
BBX 16 16 0 -2
BITMAP
00F8
3FC8
230C
1190
0038
07FC
3D18
1990
3C38
318C
3188
3188
37E8
346D
67E7
C003
ENDCHAR
STARTCHAR 2163
ENCODING 8547
SWIDTH 362 0
DWIDTH 16 0
BBX 16 16 0 -2
BITMAP
00F8
3F10
1310
1920
1FE0
1FF8
1018
3FFE
20B6
76D6
F01C
1008
1FF8
1018
1018
1018
ENDCHAR
STARTCHAR 2164
ENCODING 8548
SWIDTH 362 0
DWIDTH 16 0
BBX 16 16 0 -2
BITMAP
0830
0420
4646
7FFE
4186
4FF6
419E
4836
4FF6
4FF6
4B9E
4676
5FB6
4216
7FFE
4002
ENDCHAR
STARTCHAR 2165
ENCODING 8549
SWIDTH 362 0
DWIDTH 16 0
BBX 16 16 0 -2
BITMAP
4006
7FFE
4DA6
47E6
5FF6
5FFE
4666
4F7E
5BDE
4326
4FF6
4DB6
4D96
5186
7FFE
4002
ENDCHAR
STARTCHAR 2166
ENCODING 8550
SWIDTH 362 0
DWIDTH 16 0
BBX 16 16 0 -2
BITMAP
4006
7FFE
41E6
4F26
4936
4C76
5FF6
5AD6
5FF6
5FFE
4C26
4626
41E6
4066
7FFE
4002
ENDCHAR
STARTCHAR 2167
ENCODING 8551
SWIDTH 362 0
DWIDTH 16 0
BBX 16 16 0 -2
BITMAP
000C
000C
7FFC
6002
7FFF
3FE2
3FE2
3B66
3FFE
018C
3FF8
7FFE
0180
3FFC
0182
7FFE
ENDCHAR
STARTCHAR 2168
ENCODING 8552
SWIDTH 362 0
DWIDTH 16 0
BBX 16 16 0 -2
BITMAP
2060
3223
27FF
24DA
F99E
2330
2130
21FE
2320
2222
23FE
3804
71FE
C106
0106
0104
ENDCHAR
STARTCHAR 2169
ENCODING 8553
SWIDTH 362 0
DWIDTH 16 0
BBX 16 16 0 -2
BITMAP
3002
31FF
30FA
306A
FDFA
31FE
317C
3318
337E
33FF
311B
3D9B
71FB
E003
007E
000C
ENDCHAR
STARTCHAR 216a
ENCODING 8554
SWIDTH 362 0
DWIDTH 16 0
BBX 16 16 0 -2
BITMAP
2002
37FF
2058
23DF
FA5B
225A
23DE
2058
205E
23FE
2326
3B26
73FE
C326
0336
0306
ENDCHAR
STARTCHAR 216b
ENCODING 8555
SWIDTH 362 0
DWIDTH 16 0
BBX 16 16 0 -2
BITMAP
2098
37DB
26BF
27B0
FF3E
276C
27FF
2682
26FF
26FA
26FE
3FF6
77BE
C62A
066E
04C6
ENDCHAR
STARTCHAR 216c
ENCODING 8556
SWIDTH 362 0
DWIDTH 16 0
BBX 16 16 0 -2
BITMAP
2326
337E
2266
27FE
FA66
2266
227E
2383
2F7F
2E58
227A
3A78
7278
C278
0EDF
078F
ENDCHAR
STARTCHAR 216d
ENCODING 8557
SWIDTH 362 0
DWIDTH 16 0
BBX 16 16 0 -2
BITMAP
3002
33FF
3062
31FF
FD7A
317A
317A
314E
3003
3030
3166
3D7B
717A
E17A
017A
014E
ENDCHAR
STARTCHAR 216e
ENCODING 8558
SWIDTH 362 0
DWIDTH 16 0
BBX 16 16 0 -2
BITMAP
2042
33FF
225A
23DE
FA16
218C
20DB
2030
2327
2326
2326
3BFE
7026
C060
00C0
0300
ENDCHAR
STARTCHAR 216f
ENCODING 8559
SWIDTH 362 0
DWIDTH 16 0
BBX 16 16 0 -2
BITMAP
0180
3FFC
0180
7FFF
0000
1FF8
1998
1998
1FF8
0C30
3E7C
0C20
7FFF
0C30
380C
6006
ENDCHAR
STARTCHAR 2170
ENCODING 8560
SWIDTH 362 0
DWIDTH 16 0
BBX 16 16 0 -2
BITMAP
0180
119C
17D8
1198
17F8
1018
1FF8
0000
1818
DBDB
FAFA
DADA
DEDE
C2C2
FEFE
C2C2
ENDCHAR
STARTCHAR 2171
ENCODING 8561
SWIDTH 362 0
DWIDTH 16 0
BBX 16 16 0 -2
BITMAP
200E
33F0
2020
21A4
F9AE
22FB
2030
21A4
21AE
22FA
2032
3BFE
7020
C020
0020
07FF
ENDCHAR
STARTCHAR 2172
ENCODING 8562
SWIDTH 362 0
DWIDTH 16 0
BBX 16 16 0 -2
BITMAP
203E
33F0
21A4
21AE
FA7A
21B4
21AE
22FA
2030
27FF
2042
38FF
7002
C002
001E
000C
ENDCHAR
STARTCHAR 2173
ENCODING 8563
SWIDTH 362 0
DWIDTH 16 0
BBX 16 16 0 -2
BITMAP
0180
3FFC
0180
7FFF
3100
31FF
6100
DFFE
99FE
31FE
70C4
F3FE
B1CC
3678
30FF
3787
ENDCHAR
STARTCHAR 2174
ENCODING 8564
SWIDTH 362 0
DWIDTH 16 0
BBX 16 16 0 -2
BITMAP
2134
336C
2248
236C
F9A4
200C
21FC
21BC
21DC
27FF
2603
3EFB
76DB
C6FB
060F
0606
ENDCHAR
STARTCHAR 2175
ENCODING 8565
SWIDTH 362 0
DWIDTH 16 0
BBX 16 16 0 -2
BITMAP
0C30
7FFE
0830
0FF0
FFFF
1FF8
1198
1FF8
1198
1C30
391C
6186
0188
0180
0182
7FFF
ENDCHAR
STARTCHAR 2176
ENCODING 8566
SWIDTH 362 0
DWIDTH 16 0
BBX 16 16 0 -2
BITMAP
4C0C
4C0C
59FC
500F
4FFF
4CF6
4FF8
7CF8
5B7E
41DB
4770
41A0
018C
0180
0182
FFFF
ENDCHAR
STARTCHAR 2177
ENCODING 8567
SWIDTH 362 0
DWIDTH 16 0
BBX 16 16 0 -2
BITMAP
6664
6664
7C7C
7E7C
6004
7FFC
0006
1818
181A
1818
1018
2190
018C
0180
0182
FFFF
ENDCHAR
STARTCHAR 2178
ENCODING 8568
SWIDTH 362 0
DWIDTH 16 0
BBX 16 16 0 -2
BITMAP
30CC
30CC
330F
3FFC
795C
7D1E
FD3B
B769
3308
2108
0180
018C
3FFC
0180
0182
FFFF
ENDCHAR
STARTCHAR 2179
ENCODING 8569
SWIDTH 362 0
DWIDTH 16 0
BBX 16 16 0 -2
BITMAP
0180
7FFE
0180
3FFC
0003
0183
1FFA
1198
1FF8
FFFF
000C
7FFF
6688
66C8
7E58
4018
ENDCHAR
STARTCHAR 217a
ENCODING 8570
SWIDTH 362 0
DWIDTH 16 0
BBX 16 16 0 -2
BITMAP
0180
7FFF
0180
3FFC
1FF8
1008
1FFA
7FFF
F4CF
B3CA
3468
3FF8
0180
3FFC
0180
FFFF
ENDCHAR
STARTCHAR 217b
ENCODING 8571
SWIDTH 362 0
DWIDTH 16 0
BBX 16 16 0 -2
BITMAP
3004
2C7E
7C44
CC5C
B854
3054
61FF
D183
BF83
37FF
65EB
DDFB
19EB
3183
618F
C106
ENDCHAR
STARTCHAR 217c
ENCODING 8572
SWIDTH 362 0
DWIDTH 16 0
BBX 16 16 0 -2
BITMAP
0180
7FFE
0180
1FFC
0303
0760
0D38
198F
F992
35B8
7BF6
1DB8
63E4
7FFE
0180
0100
ENDCHAR
STARTCHAR 217d
ENCODING 8573
SWIDTH 362 0
DWIDTH 16 0
BBX 16 16 0 -2
BITMAP
0182
7FFF
3FF8
3188
1FFA
7FFF
DFFB
858A
7FD0
19B8
678E
0100
0303
0670
1C1E
F003
ENDCHAR
STARTCHAR 217e
ENCODING 8574
SWIDTH 362 0
DWIDTH 16 0
BBX 16 16 0 -2
BITMAP
0418
7E74
26D3
2791
2733
67B3
5D97
8DD7
19FB
11BF
FFF7
39D3
3D93
6793
4393
8102
ENDCHAR
STARTCHAR 2221
ENCODING 8737
SWIDTH 362 0
DWIDTH 16 0
BBX 16 16 0 -2
BITMAP
1808
10FC
FE6C
2C6C
767C
9A6C
FE6C
146C
FEFC
FE6C
C66C
FC4C
30CC
64CD
FF8F
C307
ENDCHAR
STARTCHAR 2222
ENCODING 8738
SWIDTH 362 0
DWIDTH 16 0
BBX 16 16 0 -2
BITMAP
0300
0302
7FFE
0C30
191C
3C8F
DFF8
3FF0
3880
1FF0
18C8
0980
7FFE
09A0
399C
C106
ENDCHAR
STARTCHAR 2223
ENCODING 8739
SWIDTH 362 0
DWIDTH 16 0
BBX 16 16 0 -2
BITMAP
1C08
7FFC
186C
367C
7F6C
D86D
7E4D
FE8F
E502
0630
0C33
0C30
1C60
1FE0
033C
7C0E
ENDCHAR
STARTCHAR 2224
ENCODING 8740
SWIDTH 362 0
DWIDTH 16 0
BBX 16 16 0 -2
BITMAP
0606
7E7E
4646
6646
7E7E
6646
7E7E
7E7E
4404
0630
0C33
0C30
1C60
1FE0
033C
7C0E
ENDCHAR
STARTCHAR 2225
ENCODING 8741
SWIDTH 362 0
DWIDTH 16 0
BBX 16 16 0 -2
BITMAP
030C
07CC
1B6C
07CC
186C
3FFC
27FC
27FC
240C
240C
27F8
231A
2FFE
67B0
45F8
9F0E
ENDCHAR
STARTCHAR 2226
ENCODING 8742
SWIDTH 362 0
DWIDTH 16 0
BBX 16 16 0 -2
BITMAP
0F88
39FC
318C
318C
3FFC
0182
7FFE
3FFC
218C
3FFC
0530
FFFF
1860
3FC0
03FC
7C0E
ENDCHAR
STARTCHAR 2227
ENCODING 8743
SWIDTH 362 0
DWIDTH 16 0
BBX 16 16 0 -2
BITMAP
2E08
387C
300C
300C
3FFC
0C60
199C
3FFF
F188
3FF8
0588
7FFE
0C20
0FE0
03F0
3C1C
ENDCHAR
STARTCHAR 2228
ENCODING 8744
SWIDTH 362 0
DWIDTH 16 0
BBX 16 16 0 -2
BITMAP
2020
63FF
60CC
696B
FFFF
EA32
69FE
69B6
49BE
D934
F936
3186
3986
6D86
C1FE
0102
ENDCHAR
STARTCHAR 2229
ENCODING 8745
SWIDTH 362 0
DWIDTH 16 0
BBX 16 16 0 -2
BITMAP
4202
63FF
6203
7BFF
FA0E
FA78
7ADA
5ADB
DADA
D298
F3FF
329B
2ADF
4EE7
C483
0882
ENDCHAR
STARTCHAR 222a
ENCODING 8746
SWIDTH 362 0
DWIDTH 16 0
BBX 16 16 0 -2
BITMAP
2002
63FF
6062
69FF
FD7A
E97A
697A
694E
4803
D830
F966
317B
397A
6D7A
C17A
014E
ENDCHAR
STARTCHAR 222b
ENCODING 8747
SWIDTH 362 0
DWIDTH 16 0
BBX 16 16 0 -2
BITMAP
2010
6018
61D0
699F
FD90
E990
6DB3
6C04
48C6
D8C6
FBDE
32DE
3A9E
6E9E
C7FE
0600
ENDCHAR
STARTCHAR 222c
ENCODING 8748
SWIDTH 362 0
DWIDTH 16 0
BBX 16 16 0 -2
BITMAP
201E
61F2
6123
69B4
FCCC
E8DC
6870
6BFF
4B6B
DBFF
FBCF
337F
3B3B
6F7B
C3CB
0306
ENDCHAR
STARTCHAR 222d
ENCODING 8749
SWIDTH 362 0
DWIDTH 16 0
BBX 16 16 0 -2
BITMAP
2033
6033
605A
68AA
FC32
E87A
688A
6BFE
4B42
DB43
FB42
3342
3B42
6E42
C642
0442
ENDCHAR
STARTCHAR 222e
ENCODING 8750
SWIDTH 362 0
DWIDTH 16 0
BBX 16 16 0 -2
BITMAP
2030
6070
604C
6887
FDFB
EFFE
6986
69FE
4804
DBFF
FB7B
33CF
3B83
6F33
C337
0322
ENDCHAR
STARTCHAR 222f
ENCODING 8751
SWIDTH 362 0
DWIDTH 16 0
BBX 16 16 0 -2
BITMAP
1C02
39FF
EC30
1DFE
6186
0D86
39FE
E186
6986
6DFE
FD86
4986
D8FE
30C4
6D83
C701
ENDCHAR
STARTCHAR 2230
ENCODING 8752
SWIDTH 362 0
DWIDTH 16 0
BBX 16 16 0 -2
BITMAP
0180
4083
7FFF
F062
B036
310C
788C
FCC8
B7FF
B10C
31FE
3184
31FC
3184
318C
318C
ENDCHAR
STARTCHAR 2231
ENCODING 8753
SWIDTH 362 0
DWIDTH 16 0
BBX 16 16 0 -2
BITMAP
0180
4083
7FFF
C182
BFFC
20C8
2FFC
3FFE
20C8
2CD8
2498
3FFE
6480
6E98
588C
8080
ENDCHAR
STARTCHAR 2232
ENCODING 8754
SWIDTH 362 0
DWIDTH 16 0
BBX 16 16 0 -2
BITMAP
0380
4183
FFFF
CD8A
AC9E
6FF6
07E0
01FC
3300
3008
3FF8
3FF8
1818
1800
1804
0FFC
ENDCHAR
STARTCHAR 2233
ENCODING 8755
SWIDTH 362 0
DWIDTH 16 0
BBX 16 16 0 -2
BITMAP
0300
7FFF
C123
ADEA
2D96
2FF2
0FF0
7208
3FFC
3FF8
3008
3FF8
3008
3002
3004
1FFC
ENDCHAR
STARTCHAR 2234
ENCODING 8756
SWIDTH 362 0
DWIDTH 16 0
BBX 16 16 0 -2
BITMAP
0180
4083
7FFF
FFFA
8560
03C0
0670
3C0E
6E7A
0D60
01C0
0770
1D8E
63C2
0E38
700E
ENDCHAR
STARTCHAR 2235
ENCODING 8757
SWIDTH 362 0
DWIDTH 16 0
BBX 16 16 0 -2
BITMAP
0180
4083
7FFF
CC32
8E36
0C30
0834
19B0
1DBA
19B0
19B2
0180
0188
0180
0180
0100
ENDCHAR
STARTCHAR 2236
ENCODING 8758
SWIDTH 362 0
DWIDTH 16 0
BBX 16 16 0 -2
BITMAP
0180
4083
7FFF
C632
F434
65AC
6478
7CC6
0582
4530
7F26
65AC
64F8
44CC
C587
8703
ENDCHAR
STARTCHAR 2237
ENCODING 8759
SWIDTH 362 0
DWIDTH 16 0
BBX 16 16 0 -2
BITMAP
0180
7FFF
5003
D80E
97FE
31FC
37FE
6466
63FC
A27C
2268
23FC
211C
20F0
20FE
270E
ENDCHAR
STARTCHAR 2238
ENCODING 8760
SWIDTH 362 0
DWIDTH 16 0
BBX 16 16 0 -2
BITMAP
0100
7FFF
4803
DBFE
9044
31FE
7104
11FC
1104
11FC
0300
0186
7FFE
0C30
180C
6006
ENDCHAR
STARTCHAR 2239
ENCODING 8761
SWIDTH 362 0
DWIDTH 16 0
BBX 16 16 0 -2
BITMAP
F706
F706
D506
D57F
FF06
1806
7F26
1836
1B16
1C06
1806
7F06
1806
1806
FF1E
C00C
ENDCHAR
STARTCHAR 223a
ENCODING 8762
SWIDTH 362 0
DWIDTH 16 0
BBX 16 16 0 -2
BITMAP
1810
FF7F
1810
3FFC
264C
2FEC
36CC
36CC
3FFC
0000
3FFC
FFFF
0C30
0630
01F0
0060
ENDCHAR
STARTCHAR 223b
ENCODING 8763
SWIDTH 362 0
DWIDTH 16 0
BBX 16 16 0 -2
BITMAP
200C
36CC
247C
3FCC
266C
7FFF
0C61
187F
61BF
01F8
0182
7FFF
1990
318C
6786
C300
ENDCHAR
STARTCHAR 223c
ENCODING 8764
SWIDTH 362 0
DWIDTH 16 0
BBX 16 16 0 -2
BITMAP
1818
FF16
0013
7F10
6233
7E30
0010
7F18
433C
7F38
1828
7A68
7B68
D9C9
998F
1B07
ENDCHAR
STARTCHAR 223d
ENCODING 8765
SWIDTH 362 0
DWIDTH 16 0
BBX 16 16 0 -2
BITMAP
3020
31FE
308C
304A
FDFE
30FC
30B4
38FC
3CFC
28BC
28FC
6830
69FF
4801
CFFF
87FF
ENDCHAR
STARTCHAR 223e
ENCODING 8766
SWIDTH 362 0
DWIDTH 16 0
BBX 16 16 0 -2
BITMAP
301E
30F0
3032
306C
FCFF
31EF
307C
3882
3CFE
28BE
28AE
6886
688F
4801
CFFF
87FF
ENDCHAR
STARTCHAR 223f
ENCODING 8767
SWIDTH 362 0
DWIDTH 16 0
BBX 16 16 0 -2
BITMAP
4006
7FFE
6006
7FFE
60C6
66D8
66DC
69F6
70E0
6418
6618
57FA
57FA
D77A
8C18
8818
ENDCHAR
STARTCHAR 2240
ENCODING 8768
SWIDTH 362 0
DWIDTH 16 0
BBX 16 16 0 -2
BITMAP
6006
6003
6002
6C32
6CF6
68F6
76F6
66F6
6CDE
6D8C
7C64
6CFE
4DEC
CD38
8C6C
8DC7
ENDCHAR
STARTCHAR 2241
ENCODING 8769
SWIDTH 362 0
DWIDTH 16 0
BBX 16 16 0 -2
BITMAP
2184
6186
7FFC
0304
0C08
3FFC
29BC
25AC
37CC
2180
3FFC
0180
7FFF
2004
6662
C223
ENDCHAR
STARTCHAR 2242
ENCODING 8770
SWIDTH 362 0
DWIDTH 16 0
BBX 16 16 0 -2
BITMAP
2184
6184
7FFC
0600
5A5A
5E5E
FEFE
3018
4194
6306
7FFE
0DB0
199C
7FFF
8180
0100
ENDCHAR
STARTCHAR 2243
ENCODING 8771
SWIDTH 362 0
DWIDTH 16 0
BBX 16 16 0 -2
BITMAP
2184
6186
638C
67EC
0530
199F
7197
C180
0180
0100
FAD6
DEDB
DE5A
DE5A
DEDA
D6DA
ENDCHAR
STARTCHAR 2244
ENCODING 8772
SWIDTH 362 0
DWIDTH 16 0
BBX 16 16 0 -2
BITMAP
264C
664C
7E7C
200C
3FFC
3FFC
218C
3FFC
0186
0180
0180
0180
7186
6184
618C
600C
ENDCHAR
STARTCHAR 2245
ENCODING 8773
SWIDTH 362 0
DWIDTH 16 0
BBX 16 16 0 -2
BITMAP
2184
6186
618C
600C
210C
310C
89FC
490C
71FC
17FF
2306
E3FE
66F6
6DB6
637E
25CC
ENDCHAR
STARTCHAR 2246
ENCODING 8774
SWIDTH 362 0
DWIDTH 16 0
BBX 16 16 0 -2
BITMAP
2042
37FF
265B
2FDF
AE5B
AFDF
AE03
AEFB
AEDB
AEFB
AEDB
AEDB
FE9B
079B
060F
0606
ENDCHAR
STARTCHAR 2247
ENCODING 8775
SWIDTH 362 0
DWIDTH 16 0
BBX 16 16 0 -2
BITMAP
2002
607F
6198
E33F
FB63
FB62
FB7E
FB62
FB62
FB7E
FBE2
FF62
FE3E
0032
0063
00C1
ENDCHAR
STARTCHAR 2248
ENCODING 8776
SWIDTH 362 0
DWIDTH 16 0
BBX 16 16 0 -2
BITMAP
2192
619F
67FB
E19B
FBDB
FE5F
FE5B
FFDB
FE5B
FFDF
F9DB
F99B
FFF3
01B3
01A7
0166
ENDCHAR
STARTCHAR 2249
ENCODING 8777
SWIDTH 362 0
DWIDTH 16 0
BBX 16 16 0 -2
BITMAP
2184
6186
7FFC
1014
1A18
7F1A
3C1E
6618
C37E
0646
7E2C
5E3C
7E18
463C
1E67
0583
ENDCHAR
STARTCHAR 224a
ENCODING 8778
SWIDTH 362 0
DWIDTH 16 0
BBX 16 16 0 -2
BITMAP
3004
31FE
3186
3086
B7FF
B77B
B7DF
B5FE
B400
B7FF
B486
B5FE
FC06
0006
007C
0018
ENDCHAR
STARTCHAR 224b
ENCODING 8779
SWIDTH 362 0
DWIDTH 16 0
BBX 16 16 0 -2
BITMAP
1818
5E5E
DEDE
4646
264C
664C
664C
264C
3FFC
0003
FFFF
1FFC
000C
0008
00F8
0030
ENDCHAR
STARTCHAR 224c
ENCODING 8780
SWIDTH 362 0
DWIDTH 16 0
BBX 16 16 0 -2
BITMAP
2184
6186
7FFC
1818
5E5E
5E5E
FFFE
03C0
07B0
1BDF
6636
1FFF
6036
0030
0020
0040
ENDCHAR
STARTCHAR 224d
ENCODING 8781
SWIDTH 362 0
DWIDTH 16 0
BBX 16 16 0 -2
BITMAP
2184
6184
7FFC
1998
3DBC
7FFE
199C
65B6
07EA
0000
FFFF
3000
3FFC
000C
00F8
0030
ENDCHAR
STARTCHAR 224e
ENCODING 8782
SWIDTH 362 0
DWIDTH 16 0
BBX 16 16 0 -2
BITMAP
2184
6186
7FFC
0204
0E30
1FFC
3810
2834
FFFE
47E2
0F30
199F
E14F
1134
3336
0300
ENDCHAR
STARTCHAR 224f
ENCODING 8783
SWIDTH 362 0
DWIDTH 16 0
BBX 16 16 0 -2
BITMAP
2060
3062
21FF
A1FE
A902
A9FE
A902
A93A
A8B2
A830
A9F7
A830
FBFF
0030
0030
0030
ENDCHAR
STARTCHAR 2250
ENCODING 8784
SWIDTH 362 0
DWIDTH 16 0
BBX 16 16 0 -2
BITMAP
8E30
FC20
CE66
CD66
E7E4
C33C
7E18
7E3E
4667
7EC2
0180
0180
7186
6184
618C
600C
ENDCHAR
STARTCHAR 2251
ENCODING 8785
SWIDTH 362 0
DWIDTH 16 0
BBX 16 16 0 -2
BITMAP
21B0
319B
21FF
A392
AFFE
AD92
A9FE
A993
A9FF
A80B
A9EF
A96B
F97B
0103
010F
0106
ENDCHAR
STARTCHAR 2252
ENCODING 8786
SWIDTH 362 0
DWIDTH 16 0
BBX 16 16 0 -2
BITMAP
0182
FFFF
7FFE
7FFC
6196
6186
7FF6
5FF7
DFF7
9FFB
0180
3184
610C
4318
318C
1086
ENDCHAR
STARTCHAR 2253
ENCODING 8787
SWIDTH 362 0
DWIDTH 16 0
BBX 16 16 0 -2
BITMAP
00FE
3D80
1998
399C
65B6
1998
199C
25B6
41C2
FFFF
1804
1FFE
30C0
60C0
C0C3
0000
ENDCHAR
STARTCHAR 2254
ENCODING 8788
SWIDTH 362 0
DWIDTH 16 0
BBX 16 16 0 -2
BITMAP
0606
7E7E
4646
7E7E
4242
7E7E
7E7E
0202
7E7E
1818
7E7E
181B
FFFF
1818
3006
C003
ENDCHAR
STARTCHAR 2255
ENCODING 8789
SWIDTH 362 0
DWIDTH 16 0
BBX 16 16 0 -2
BITMAP
0180
7FFF
3188
318C
1FFA
FFFF
FFFE
0C10
1FF8
6FF8
0990
3FFC
218C
21FC
2198
0100
ENDCHAR
STARTCHAR 2256
ENCODING 8790
SWIDTH 362 0
DWIDTH 16 0
BBX 16 16 0 -2
BITMAP
4620
4636
7E7E
46CC
7F38
0030
7ED8
FF1A
18FF
1ADA
FFDA
DADA
DADE
DEDE
DE18
1010
ENDCHAR
STARTCHAR 2257
ENCODING 8791
SWIDTH 362 0
DWIDTH 16 0
BBX 16 16 0 -2
BITMAP
3030
33FF
3040
FCFE
B5F8
B47A
B5BF
B4F6
B518
B4E0
B5F2
BCD6
318C
3384
34E7
30C3
ENDCHAR
STARTCHAR 2258
ENCODING 8792
SWIDTH 362 0
DWIDTH 16 0
BBX 16 16 0 -2
BITMAP
3002
31FF
30FA
FC2A
B4FA
B5FE
B5BC
B518
B57E
B7FF
B49B
BD9B
31FB
3003
307E
300C
ENDCHAR
STARTCHAR 2259
ENCODING 8793
SWIDTH 362 0
DWIDTH 16 0
BBX 16 16 0 -2
BITMAP
30C0
30FC
3198
FFFF
B533
B532
B5FE
B473
B4FE
B56C
B4DC
BDBF
306B
3198
3078
3030
ENDCHAR
STARTCHAR 225a
ENCODING 8794
SWIDTH 362 0
DWIDTH 16 0
BBX 16 16 0 -2
BITMAP
30E3
316F
316B
F56B
B5EF
FE52
B400
B5CF
B486
FC86
B7EF
B486
B486
B586
FD06
8204
ENDCHAR
STARTCHAR 225b
ENCODING 8795
SWIDTH 362 0
DWIDTH 16 0
BBX 16 16 0 -2
BITMAP
1042
38E6
6596
1866
34D6
7FFE
208E
7FFE
1866
34D6
2CB6
1C76
74DE
77DE
2086
0006
ENDCHAR
STARTCHAR 225c
ENCODING 8796
SWIDTH 362 0
DWIDTH 16 0
BBX 16 16 0 -2
BITMAP
0180
D9B3
D7AF
DDBA
D7AA
FFFE
F3E2
FFFE
1832
3030
2C6C
3C28
1830
3226
7FFE
6142
ENDCHAR
STARTCHAR 225d
ENCODING 8797
SWIDTH 362 0
DWIDTH 16 0
BBX 16 16 0 -2
BITMAP
1818
5E18
5E1B
FD18
7E18
5F1A
FF7F
FD06
1A0C
FF08
CF10
EE20
FE61
CF41
9B7F
B13F
ENDCHAR
STARTCHAR 225e
ENCODING 8798
SWIDTH 362 0
DWIDTH 16 0
BBX 16 16 0 -2
BITMAP
0180
4083
7FFF
64C8
62D8
67FC
60C0
7FFF
619C
6246
6FFF
41C4
4138
C370
878E
8104
ENDCHAR
STARTCHAR 225f
ENCODING 8799
SWIDTH 362 0
DWIDTH 16 0
BBX 16 16 0 -2
BITMAP
0180
4083
7FFF
6002
7FFE
69B6
6FBE
69B6
6FBE
6134
6FFE
4C46
4FFE
CC46
8CC6
8C04
ENDCHAR
STARTCHAR 2260
ENCODING 8800
SWIDTH 362 0
DWIDTH 16 0
BBX 16 16 0 -2
BITMAP
0180
4083
7FFF
663E
67A6
7FA6
79A6
7FE7
79C0
6936
7D36
5F14
581C
CF9C
87B7
80C3
ENDCHAR
STARTCHAR 2261
ENCODING 8801
SWIDTH 362 0
DWIDTH 16 0
BBX 16 16 0 -2
BITMAP
0180
4083
7FFF
6360
6E5E
6846
6E5E
6EDE
69B0
6318
666F
5C43
464C
CC46
98C2
80C0
ENDCHAR
STARTCHAR 2262
ENCODING 8802
SWIDTH 362 0
DWIDTH 16 0
BBX 16 16 0 -2
BITMAP
0180
4083
7FFF
60C0
61A0
6318
67EF
7C0A
67F8
6618
67F8
4104
5FFE
D9E6
99E6
9964
ENDCHAR
STARTCHAR 2263
ENCODING 8803
SWIDTH 362 0
DWIDTH 16 0
BBX 16 16 0 -2
BITMAP
0180
4083
7FFF
6002
66FE
6C26
78FE
72C6
66FE
6CC6
78FE
43C6
46FE
CC64
98C2
8183
ENDCHAR
STARTCHAR 2264
ENCODING 8804
SWIDTH 362 0
DWIDTH 16 0
BBX 16 16 0 -2
BITMAP
0460
346C
27EC
3FFC
2008
1818
1FF8
3FFC
200C
3FFC
300C
2C38
0C33
0C30
1830
3030
ENDCHAR
STARTCHAR 2265
ENCODING 8805
SWIDTH 362 0
DWIDTH 16 0
BBX 16 16 0 -2
BITMAP
4618
2616
FF13
DB11
FF12
FF7F
DD10
FF10
0010
7E18
6618
6618
7E0D
660D
6607
6603
ENDCHAR
STARTCHAR 2266
ENCODING 8806
SWIDTH 362 0
DWIDTH 16 0
BBX 16 16 0 -2
BITMAP
2080
F7DF
330C
330C
FFFF
FFFF
CB6D
CB6D
FBEF
3FFF
3C71
3861
3861
3FFF
E820
6000
ENDCHAR
STARTCHAR 2267
ENCODING 8807
SWIDTH 362 0
DWIDTH 16 0
BBX 16 16 0 -2
BITMAP
1040
FBDF
1986
1984
5BDF
56DB
C65B
D65B
FE5B
1FDF
1E5B
1E5B
1E5B
165B
F7DF
6652
ENDCHAR
STARTCHAR 2268
ENCODING 8808
SWIDTH 362 0
DWIDTH 16 0
BBX 16 16 0 -2
BITMAP
1806
7F7E
4306
7F7E
4306
467E
0660
0FE0
36C0
0780
3D98
7DF0
0DE0
19BF
678F
C300
ENDCHAR
STARTCHAR 2269
ENCODING 8809
SWIDTH 362 0
DWIDTH 16 0
BBX 16 16 0 -2
BITMAP
0C02
0D06
0F84
0808
7FB0
7F82
4186
418C
7F18
6A30
69A3
C882
BB04
6988
C890
0860
ENDCHAR
STARTCHAR 226a
ENCODING 8810
SWIDTH 362 0
DWIDTH 16 0
BBX 16 16 0 -2
BITMAP
0180
1998
31F6
43C0
1F00
FFFC
100C
1008
1FF8
FFFF
1868
31C7
FE7B
0798
18E0
1F00
ENDCHAR
STARTCHAR 226b
ENCODING 8811
SWIDTH 362 0
DWIDTH 16 0
BBX 16 16 0 -2
BITMAP
100E
3806
63FF
C006
81FC
185F
1BDB
319A
63FE
C30C
0C0F
190C
10CC
204C
C07C
0018
ENDCHAR
STARTCHAR 226c
ENCODING 8812
SWIDTH 362 0
DWIDTH 16 0
BBX 16 16 0 -2
BITMAP
108E
3986
6186
C186
8186
18B4
1833
3000
61FE
C186
0D86
1834
1192
2193
C371
0220
ENDCHAR
STARTCHAR 226d
ENCODING 8813
SWIDTH 362 0
DWIDTH 16 0
BBX 16 16 0 -2
BITMAP
1884
184C
31FF
216A
4DFF
09CE
19C6
31FE
3182
710C
91FF
1084
1064
1004
103C
1008
ENDCHAR
STARTCHAR 226e
ENCODING 8814
SWIDTH 362 0
DWIDTH 16 0
BBX 16 16 0 -2
BITMAP
1802
1BFF
316C
218C
4DFC
09FC
1BFF
360F
35FC
70C4
91FE
11CC
1378
1078
10CF
1703
ENDCHAR
STARTCHAR 226f
ENCODING 8815
SWIDTH 362 0
DWIDTH 16 0
BBX 16 16 0 -2
BITMAP
1818
1898
309F
2098
4DFF
0886
18FE
30FE
3086
70FE
9018
11D2
1117
1239
10E0
1380
ENDCHAR
STARTCHAR 2270
ENCODING 8816
SWIDTH 362 0
DWIDTH 16 0
BBX 16 16 0 -2
BITMAP
183E
19C6
3126
2094
4DFC
0846
18CC
30C2
3082
71FF
9101
1317
175F
1D43
111F
1006
ENDCHAR
STARTCHAR 2271
ENCODING 8817
SWIDTH 362 0
DWIDTH 16 0
BBX 16 16 0 -2
BITMAP
0306
6330
3BFC
0B24
1BFE
13FF
3133
E7FF
6133
6136
203C
0D88
4CC4
4C1B
CFF3
87F1
ENDCHAR
STARTCHAR 2272
ENCODING 8818
SWIDTH 362 0
DWIDTH 16 0
BBX 16 16 0 -2
BITMAP
4106
7FBE
61A6
6126
6E3C
7F1C
679C
DD36
8F63
31C1
4100
0DC0
4CC6
CC1B
CFF1
07F0
ENDCHAR
STARTCHAR 2273
ENCODING 8819
SWIDTH 362 0
DWIDTH 16 0
BBX 16 16 0 -2
BITMAP
1C30
7F30
187F
FFE6
BFE6
0CB4
1E1C
F81C
1836
38C3
0180
4CC4
484A
CC13
CFF1
07F0
ENDCHAR
STARTCHAR 2274
ENCODING 8820
SWIDTH 362 0
DWIDTH 16 0
BBX 16 16 0 -2
BITMAP
1C70
7F60
1863
1B4C
FFCC
77AC
F738
A538
6C6F
CDC6
8100
0DC0
4CC6
CC1B
CFF1
07F0
ENDCHAR
STARTCHAR 2275
ENCODING 8821
SWIDTH 362 0
DWIDTH 16 0
BBX 16 16 0 -2
BITMAP
0C30
0C36
7FFE
0FE0
01A4
7FFE
6DB4
6DB4
6FDC
739C
6108
0DC0
4CC6
CC1B
CFF1
07F0
ENDCHAR
STARTCHAR 2276
ENCODING 8822
SWIDTH 362 0
DWIDTH 16 0
BBX 16 16 0 -2
BITMAP
0430
FE30
D6FE
D626
FE66
D666
D6DC
FF8C
C488
10AF
79FF
64AB
E2AB
EFAB
FD7B
0256
ENDCHAR
STARTCHAR 2277
ENCODING 8823
SWIDTH 362 0
DWIDTH 16 0
BBX 16 16 0 -2
BITMAP
0460
FC7F
0460
1FF8
1018
1018
1FF8
0603
FFFF
0830
101F
67CF
A4CC
2416
67F2
03E0
ENDCHAR
STARTCHAR 2278
ENCODING 8824
SWIDTH 362 0
DWIDTH 16 0
BBX 16 16 0 -2
BITMAP
1818
DBDB
DADA
F2F2
3030
5FF8
1198
1FF8
1198
1FF8
0100
0CC0
2CCC
6816
CFF2
87E0
ENDCHAR
STARTCHAR 2279
ENCODING 8825
SWIDTH 362 0
DWIDTH 16 0
BBX 16 16 0 -2
BITMAP
7018
6414
627E
6216
70FF
FB16
EF36
E232
66F6
6778
6176
63D2
62F0
6730
65FF
607F
ENDCHAR
STARTCHAR 227a
ENCODING 8826
SWIDTH 362 0
DWIDTH 16 0
BBX 16 16 0 -2
BITMAP
3002
33DF
3184
31C4
7BDF
FD8E
F3CB
B279
3431
3030
30D8
30C2
32C3
36C5
30FC
307C
ENDCHAR
STARTCHAR 227b
ENCODING 8827
SWIDTH 362 0
DWIDTH 16 0
BBX 16 16 0 -2
BITMAP
3084
30C6
33FF
329E
7A96
FFFF
F1CE
B1FB
3253
31FE
3186
3186
31FE
3186
31FE
3102
ENDCHAR
STARTCHAR 227c
ENCODING 8828
SWIDTH 362 0
DWIDTH 16 0
BBX 16 16 0 -2
BITMAP
3002
33FF
337B
337B
7BFF
FE22
F032
B1FF
3006
3004
30FE
3006
31FE
3186
3186
3186
ENDCHAR
STARTCHAR 227d
ENCODING 8829
SWIDTH 362 0
DWIDTH 16 0
BBX 16 16 0 -2
BITMAP
3084
3186
31CF
3359
7BF6
FDCE
F16B
B231
310E
3186
3186
31FE
3186
3186
31FE
3104
ENDCHAR
STARTCHAR 227e
ENCODING 8830
SWIDTH 362 0
DWIDTH 16 0
BBX 16 16 0 -2
BITMAP
3060
30C4
31FE
3100
794E
FFFF
F239
B070
30CC
31B7
3323
312A
312F
3325
30E0
3060
ENDCHAR
STARTCHAR 2321
ENCODING 8993
SWIDTH 362 0
DWIDTH 16 0
BBX 16 16 0 -2
BITMAP
3002
33DF
3184
31C4
7BDF
FD8E
F34B
B279
353E
3186
3186
31FE
3186
3186
31FE
3104
ENDCHAR
STARTCHAR 2322
ENCODING 8994
SWIDTH 362 0
DWIDTH 16 0
BBX 16 16 0 -2
BITMAP
3060
3062
31FF
31FE
7902
FDFE
F102
B13A
30B2
3030
30B2
3030
3033
3030
3030
3030
ENDCHAR
STARTCHAR 2323
ENCODING 8995
SWIDTH 362 0
DWIDTH 16 0
BBX 16 16 0 -2
BITMAP
1C34
1933
FF33
1B30
7FFF
FF30
8532
BC33
0E12
7816
1B1C
3C18
3E1D
7A3D
D867
19C3
ENDCHAR
STARTCHAR 2324
ENCODING 8996
SWIDTH 362 0
DWIDTH 16 0
BBX 16 16 0 -2
BITMAP
0C30
0CB8
7FA6
0C23
FFFF
0C20
7F20
7F24
1826
3E3C
33BC
F398
3E39
326D
3EC7
0303
ENDCHAR
STARTCHAR 2325
ENCODING 8997
SWIDTH 362 0
DWIDTH 16 0
BBX 16 16 0 -2
BITMAP
0C30
7FB6
0C22
0C21
FFFF
FFA0
6920
7F26
4866
0FFC
233C
6318
7F39
636D
7FC7
0303
ENDCHAR
STARTCHAR 2326
ENCODING 8998
SWIDTH 362 0
DWIDTH 16 0
BBX 16 16 0 -2
BITMAP
001A
0019
7FFF
5FD8
5B18
58DB
5FDB
5FDA
421A
5FFE
5BDE
5DCC
58CC
585D
D9F7
8063
ENDCHAR
STARTCHAR 2327
ENCODING 8999
SWIDTH 362 0
DWIDTH 16 0
BBX 16 16 0 -2
BITMAP
C198
CD9B
C79B
C798
FFFF
C598
FF9B
FF9B
FF9B
FF9A
FF8E
CF8C
F78C
CB9F
D1B3
C1C1
ENDCHAR
STARTCHAR 2328
ENCODING 9000
SWIDTH 362 0
DWIDTH 16 0
BBX 16 16 0 -2
BITMAP
1834
1F33
5833
7FB0
59FF
7E30
5832
4F33
4712
5F16
7F1C
7F18
CC1D
CC3D
9C67
19C3
ENDCHAR
STARTCHAR 2329
ENCODING 9001
SWIDTH 362 0
DWIDTH 16 0
BBX 16 16 0 -2
BITMAP
1C34
D933
DB33
C330
437F
4330
4332
4333
4312
5E16
D91C
7B18
3C1D
343D
6267
C3C3
ENDCHAR
STARTCHAR 232a
ENCODING 9002
SWIDTH 362 0
DWIDTH 16 0
BBX 16 16 0 -2
BITMAP
0030
0036
0022
FFFF
43A0
4DA0
7FA7
49A6
7F26
7FBC
363C
FF98
3339
61ED
C0C7
0703
ENDCHAR
STARTCHAR 232b
ENCODING 9003
SWIDTH 362 0
DWIDTH 16 0
BBX 16 16 0 -2
BITMAP
064E
7C70
6043
7F43
6343
6242
62C0
62C6
617E
6243
7F7F
7243
F27F
B2C0
BE80
2380
ENDCHAR
STARTCHAR 232c
ENCODING 9004
SWIDTH 362 0
DWIDTH 16 0
BBX 16 16 0 -2
BITMAP
0180
7FFF
4802
DBFC
13CC
330C
73FC
130C
13FC
0078
3FF8
7FFE
0183
0180
0780
0100
ENDCHAR
STARTCHAR 232d
ENCODING 9005
SWIDTH 362 0
DWIDTH 16 0
BBX 16 16 0 -2
BITMAP
0080
60C3
7FFF
670C
7FBE
6F3C
6EEB
76C9
600C
67FC
60C6
60C0
5FFF
C040
83C0
0080
ENDCHAR
STARTCHAR 232e
ENCODING 9006
SWIDTH 362 0
DWIDTH 16 0
BBX 16 16 0 -2
BITMAP
3040
7EFF
10C0
1FFE
36D0
37FF
263C
5C66
8D83
07FC
3980
7FFE
FFFF
0180
0780
0300
ENDCHAR
STARTCHAR 232f
ENCODING 9007
SWIDTH 362 0
DWIDTH 16 0
BBX 16 16 0 -2
BITMAP
0180
4083
7FFF
6B17
6FDE
731E
7FFE
6FD6
6BC6
6BDE
67F8
4FFC
40C2
C0C0
81C0
80C0
ENDCHAR
STARTCHAR 2330
ENCODING 9008
SWIDTH 362 0
DWIDTH 16 0
BBX 16 16 0 -2
BITMAP
00C2
7D8C
318C
7FDF
698C
E98C
7B0C
2208
04F8
3D80
0186
0180
FFFF
0180
0780
0300
ENDCHAR
STARTCHAR 2331
ENCODING 9009
SWIDTH 362 0
DWIDTH 16 0
BBX 16 16 0 -2
BITMAP
31C0
71FE
3D06
33F6
6DB6
E6B6
563E
DA0C
00F8
3D80
0186
0180
FFFF
0180
0780
0300
ENDCHAR
STARTCHAR 2332
ENCODING 9010
SWIDTH 362 0
DWIDTH 16 0
BBX 16 16 0 -2
BITMAP
3040
33DF
3108
31CF
FB5A
33DE
3084
3908
7230
F030
33FF
31B4
31B2
3333
F631
6030
ENDCHAR
STARTCHAR 2333
ENCODING 9011
SWIDTH 362 0
DWIDTH 16 0
BBX 16 16 0 -2
BITMAP
319C
30B8
37FB
3279
F958
37FF
3018
3BF8
727B
F26B
33EE
326C
326C
33DF
F233
6061
ENDCHAR
STARTCHAR 2334
ENCODING 9012
SWIDTH 362 0
DWIDTH 16 0
BBX 16 16 0 -2
BITMAP
3020
3033
33FF
31FE
F9B0
31B0
31FE
3990
71FF
F0C7
30EF
31B2
3398
379C
F1E7
60C3
ENDCHAR
STARTCHAR 2335
ENCODING 9013
SWIDTH 362 0
DWIDTH 16 0
BBX 16 16 0 -2
BITMAP
3030
3036
31AC
30B8
F878
30C6
3183
3F01
718C
F1ED
33FF
33DC
31CC
337A
F233
6461
ENDCHAR
STARTCHAR 2336
ENCODING 9014
SWIDTH 362 0
DWIDTH 16 0
BBX 16 16 0 -2
BITMAP
3002
31FF
30FA
306A
F9FA
31FE
317C
3B18
737E
F3FF
311B
319B
31FB
3003
F0FE
600C
ENDCHAR
STARTCHAR 2337
ENCODING 9015
SWIDTH 362 0
DWIDTH 16 0
BBX 16 16 0 -2
BITMAP
3030
3032
31FE
31FE
F9B6
31FE
31B6
3936
703E
F3C3
3130
30D8
31C2
33C7
F2FD
6078
ENDCHAR
STARTCHAR 2338
ENCODING 9016
SWIDTH 362 0
DWIDTH 16 0
BBX 16 16 0 -2
BITMAP
3042
33FF
3293
33EA
FA6E
33CE
329B
3BF1
703C
F030
31FE
3030
33FF
3030
F1F0
6060
ENDCHAR
STARTCHAR 2339
ENCODING 9017
SWIDTH 362 0
DWIDTH 16 0
BBX 16 16 0 -2
BITMAP
3002
303F
3088
333F
F923
3122
313E
3922
7122
F13E
3122
33A2
363E
3432
F063
60C1
ENDCHAR
STARTCHAR 233a
ENCODING 9018
SWIDTH 362 0
DWIDTH 16 0
BBX 16 16 0 -2
BITMAP
3000
33FF
3078
33FF
FB7B
337B
33FF
3878
707A
F1FF
3132
3132
31FE
3132
F132
6102
ENDCHAR
STARTCHAR 233b
ENCODING 9019
SWIDTH 362 0
DWIDTH 16 0
BBX 16 16 0 -2
BITMAP
3182
319F
27FB
219B
FFFB
267F
267B
367B
767B
E7DF
259B
27FB
2193
2193
E1BF
6166
ENDCHAR
STARTCHAR 233c
ENCODING 9020
SWIDTH 362 0
DWIDTH 16 0
BBX 16 16 0 -2
BITMAP
7664
6646
6644
6EF7
F644
66C4
6EEF
6FFB
6FCB
EFCA
7746
6646
664E
664B
E65B
6471
ENDCHAR
STARTCHAR 233d
ENCODING 9021
SWIDTH 362 0
DWIDTH 16 0
BBX 16 16 0 -2
BITMAP
3032
31B6
30F6
33FF
FB8E
30CC
3084
38FC
70B0
F033
33FF
3130
31B6
3133
F231
6430
ENDCHAR
STARTCHAR 233e
ENCODING 9022
SWIDTH 362 0
DWIDTH 16 0
BBX 16 16 0 -2
BITMAP
324A
33FF
337B
337B
FBFF
337B
337B
3BFF
7343
F030
30D8
30C2
32C3
36C5
F0FC
607C
ENDCHAR
STARTCHAR 233f
ENCODING 9023
SWIDTH 362 0
DWIDTH 16 0
BBX 16 16 0 -2
BITMAP
306C
33CF
3048
31FE
F830
33FF
3030
3830
7020
F1F0
3013
33DC
30DC
3197
F673
6020
ENDCHAR
STARTCHAR 2340
ENCODING 9024
SWIDTH 362 0
DWIDTH 16 0
BBX 16 16 0 -2
BITMAP
3018
3190
319E
3190
FDB3
3180
3183
39EB
736B
F3EB
336B
376B
33EB
336B
F263
6462
ENDCHAR
STARTCHAR 2341
ENCODING 9025
SWIDTH 362 0
DWIDTH 16 0
BBX 16 16 0 -2
BITMAP
30CC
30CC
31DE
3173
FEA9
30CC
308C
39DB
7331
F326
31FE
3186
31FE
3186
F186
6186
ENDCHAR
STARTCHAR 2342
ENCODING 9026
SWIDTH 362 0
DWIDTH 16 0
BBX 16 16 0 -2
BITMAP
318C
31AC
33FF
3273
F9C0
3182
31FF
3B32
71FA
F192
31F2
3192
31F2
3006
F07C
6008
ENDCHAR
STARTCHAR 2343
ENCODING 9027
SWIDTH 362 0
DWIDTH 16 0
BBX 16 16 0 -2
BITMAP
3130
37B0
25E3
25E3
FDD3
27D7
25FB
3DB3
75FF
E5F3
25F7
25D7
25D3
2D93
EF9F
6906
ENDCHAR
STARTCHAR 2344
ENCODING 9028
SWIDTH 362 0
DWIDTH 16 0
BBX 16 16 0 -2
BITMAP
301E
31F0
30B4
31B6
F9B6
327B
30B4
39B6
71B6
F27B
3030
31FE
3030
3030
F033
6000
ENDCHAR
STARTCHAR 2345
ENCODING 9029
SWIDTH 362 0
DWIDTH 16 0
BBX 16 16 0 -2
BITMAP
3136
3324
336C
31B6
FBFE
3336
337E
3BCE
7106
F136
3136
3136
3136
3337
F223
6423
ENDCHAR
STARTCHAR 2346
ENCODING 9030
SWIDTH 362 0
DWIDTH 16 0
BBX 16 16 0 -2
BITMAP
1830
7E2C
FFFE
7CE4
DF64
7E75
18D7
F387
0180
FFFF
01B8
0C38
0760
01C0
0F7F
F00F
ENDCHAR
STARTCHAR 2347
ENCODING 9031
SWIDTH 362 0
DWIDTH 16 0
BBX 16 16 0 -2
BITMAP
3018
FF18
C318
FFFF
C218
FE18
001E
FE46
6646
DF24
983C
7E18
1818
182C
FE47
C183
ENDCHAR
STARTCHAR 2348
ENCODING 9032
SWIDTH 362 0
DWIDTH 16 0
BBX 16 16 0 -2
BITMAP
1860
7F7F
1B66
3C94
3E1C
7B37
98C3
7FFF
60C2
60FF
60CC
6C1C
4338
41E0
C3BF
BC0F
ENDCHAR
STARTCHAR 2349
ENCODING 9033
SWIDTH 362 0
DWIDTH 16 0
BBX 16 16 0 -2
BITMAP
1C70
FF63
187F
DBE6
DBB4
9F18
3F1C
7967
9983
7FFF
00C0
18C0
18FC
18C0
18C0
FFFF
ENDCHAR
STARTCHAR 234a
ENCODING 9034
SWIDTH 362 0
DWIDTH 16 0
BBX 16 16 0 -2
BITMAP
0130
FF30
8620
9E63
967F
9666
9EE6
80A4
BF34
BD1C
BD18
BF18
A41C
C026
FF47
0383
ENDCHAR
STARTCHAR 234b
ENCODING 9035
SWIDTH 362 0
DWIDTH 16 0
BBX 16 16 0 -2
BITMAP
1818
7F18
5B18
FF1F
5B18
1818
7F1E
5B47
7F46
7A24
FF3C
6618
FC18
1E2C
3347
E183
ENDCHAR
STARTCHAR 234c
ENCODING 9036
SWIDTH 362 0
DWIDTH 16 0
BBX 16 16 0 -2
BITMAP
1830
7F30
5B20
7F63
197F
1866
7FE6
5BA4
7F34
7A1C
FF18
6618
FC1C
1E26
3347
E183
ENDCHAR
STARTCHAR 234d
ENCODING 9037
SWIDTH 362 0
DWIDTH 16 0
BBX 16 16 0 -2
BITMAP
4618
7B10
7B10
DE1F
5E10
0210
FF36
C347
FE46
C224
FE2C
C218
FE18
662C
C347
8183
ENDCHAR
STARTCHAR 234e
ENCODING 9038
SWIDTH 362 0
DWIDTH 16 0
BBX 16 16 0 -2
BITMAP
0C18
0D18
0F98
FF9F
9198
FF18
901E
9F47
8F46
BF24
AD3C
AD18
BF18
AD2C
BF47
A183
ENDCHAR
STARTCHAR 234f
ENCODING 9039
SWIDTH 362 0
DWIDTH 16 0
BBX 16 16 0 -2
BITMAP
0C0C
0F8C
4C08
478F
5F88
4D88
778F
7FA3
0C33
FF92
D99E
D38C
FF8C
E19E
C1B3
C1E3
ENDCHAR
STARTCHAR 2350
ENCODING 9040
SWIDTH 362 0
DWIDTH 16 0
BBX 16 16 0 -2
BITMAP
0F30
F830
D920
FF63
D97F
FF66
18E6
D9A4
FF34
1C1C
5818
5B18
D91C
D9A6
9847
1983
ENDCHAR
STARTCHAR 2351
ENCODING 9041
SWIDTH 362 0
DWIDTH 16 0
BBX 16 16 0 -2
BITMAP
310C
354C
254C
654F
4FCC
A10C
37EF
2113
3353
BB12
BB0E
23CC
274C
2D7E
3933
2163
ENDCHAR
STARTCHAR 2352
ENCODING 9042
SWIDTH 362 0
DWIDTH 16 0
BBX 16 16 0 -2
BITMAP
1830
7630
EC20
3063
EE7F
FB66
18E6
7FA4
1934
631C
2618
7F18
181C
FF26
1847
1983
ENDCHAR
STARTCHAR 2353
ENCODING 9043
SWIDTH 362 0
DWIDTH 16 0
BBX 16 16 0 -2
BITMAP
1830
7E3C
1BFE
6CE4
DF64
7E75
18D7
FF87
E100
0182
7FFE
0460
03C0
03C0
0E7F
F00F
ENDCHAR
STARTCHAR 2354
ENCODING 9044
SWIDTH 362 0
DWIDTH 16 0
BBX 16 16 0 -2
BITMAP
1E20
F030
2613
F68C
5C84
1884
104C
FE4E
105A
703F
543A
567F
D65E
928C
1107
1603
ENDCHAR
STARTCHAR 2355
ENCODING 9045
SWIDTH 362 0
DWIDTH 16 0
BBX 16 16 0 -2
BITMAP
C387
C186
FFFF
FF26
C036
EC16
BD06
EC9E
0C04
0630
0330
1830
0C30
FFFF
0030
0030
ENDCHAR
STARTCHAR 2356
ENCODING 9046
SWIDTH 362 0
DWIDTH 16 0
BBX 16 16 0 -2
BITMAP
3000
15FF
FC78
61FF
617B
7D7A
6DFE
6C00
6DFE
6C00
6C03
4C30
4DB4
4DB3
FF31
9A30
ENDCHAR
STARTCHAR 2357
ENCODING 9047
SWIDTH 362 0
DWIDTH 16 0
BBX 16 16 0 -2
BITMAP
0660
067F
3CFC
FF1F
1BF7
2AFE
C832
386E
1986
200C
3FFC
200C
3FFC
200C
300C
300C
ENDCHAR
STARTCHAR 2358
ENCODING 9048
SWIDTH 362 0
DWIDTH 16 0
BBX 16 16 0 -2
BITMAP
1818
FF7F
1818
7E7E
181B
F818
1818
000C
FFFF
000C
3FF8
3FFC
200C
3FFC
300C
300C
ENDCHAR
STARTCHAR 2359
ENCODING 9049
SWIDTH 362 0
DWIDTH 16 0
BBX 16 16 0 -2
BITMAP
0660
0663
FFFF
4664
7FFE
6666
7FFE
6666
7FFC
4604
7E7E
6646
7E7E
6646
6646
6644
ENDCHAR
STARTCHAR 235a
ENCODING 9050
SWIDTH 362 0
DWIDTH 16 0
BBX 16 16 0 -2
BITMAP
200C
300C
3FFC
200C
3FFC
7FFE
0810
FFFF
118C
23C7
CD7B
199E
63C4
0670
181F
E007
ENDCHAR
STARTCHAR 235b
ENCODING 9051
SWIDTH 362 0
DWIDTH 16 0
BBX 16 16 0 -2
BITMAP
0020
03FF
F808
D97B
D932
D97A
D902
F9FE
DA32
DBFF
DB3B
DB3F
FBF7
8343
031F
0306
ENDCHAR
STARTCHAR 235c
ENCODING 9052
SWIDTH 362 0
DWIDTH 16 0
BBX 16 16 0 -2
BITMAP
008C
00C8
FBFF
D830
D830
D9FE
D830
F833
DBFF
D802
D9FF
D97A
F97A
817A
037B
0000
ENDCHAR
STARTCHAR 235d
ENCODING 9053
SWIDTH 362 0
DWIDTH 16 0
BBX 16 16 0 -2
BITMAP
0182
0187
FFF8
9198
97F8
95FF
95FA
F5FA
95FA
97FA
919A
97FA
F19A
8192
01B2
0162
ENDCHAR
STARTCHAR 235e
ENCODING 9054
SWIDTH 362 0
DWIDTH 16 0
BBX 16 16 0 -2
BITMAP
0002
03FF
FB04
DB7E
DB64
DB64
DB7C
FB00
DBFF
DBBB
DBAA
DBEE
FB88
8300
03FF
0000
ENDCHAR
STARTCHAR 235f
ENCODING 9055
SWIDTH 362 0
DWIDTH 16 0
BBX 16 16 0 -2
BITMAP
0008
3FFC
300C
300C
3FFC
2180
7FFE
1988
3D9C
67EA
199C
65B6
C7C3
0180
0180
0100
ENDCHAR
STARTCHAR 2360
ENCODING 9056
SWIDTH 362 0
DWIDTH 16 0
BBX 16 16 0 -2
BITMAP
0008
3FFC
300C
300C
3FFC
2106
CDFE
CD86
CDFE
FD86
CDFE
FDB6
CD98
CDAE
FDC7
0183
ENDCHAR
STARTCHAR 2361
ENCODING 9057
SWIDTH 362 0
DWIDTH 16 0
BBX 16 16 0 -2
BITMAP
4002
7ADF
F3CC
B2CC
FEFF
32CC
3BCC
4E0C
8008
3FFC
3008
3008
3FF8
3008
3008
3008
ENDCHAR
STARTCHAR 2362
ENCODING 9058
SWIDTH 362 0
DWIDTH 16 0
BBX 16 16 0 -2
BITMAP
6127
7DB6
CF1E
FFFE
C9B6
F9B6
C936
FE66
0008
3FFC
200C
200C
3FFC
200C
300C
300C
ENDCHAR
STARTCHAR 2363
ENCODING 9059
SWIDTH 362 0
DWIDTH 16 0
BBX 16 16 0 -2
BITMAP
181C
FF7F
1818
7E7F
181B
F818
1018
3FFC
2004
3FFC
2004
3FFC
300C
1818
1833
0000
ENDCHAR
STARTCHAR 2364
ENCODING 9060
SWIDTH 362 0
DWIDTH 16 0
BBX 16 16 0 -2
BITMAP
0832
7DB6
48FE
4830
4863
78EC
48C6
4983
4F07
79B6
49B6
49FE
C9B6
C9B6
B9FE
9902
ENDCHAR
STARTCHAR 2365
ENCODING 9061
SWIDTH 362 0
DWIDTH 16 0
BBX 16 16 0 -2
BITMAP
3030
3013
23FF
FB2C
2F3C
672C
73EC
7BBF
EBAC
A7AC
AFAC
22AC
22AC
26AD
27FF
2987
ENDCHAR
STARTCHAR 2366
ENCODING 9062
SWIDTH 362 0
DWIDTH 16 0
BBX 16 16 0 -2
BITMAP
1318
1B10
7FFE
0600
7FFE
1B18
3C3F
FFDB
1808
1818
1818
0180
FFFF
1990
318E
C103
ENDCHAR
STARTCHAR 2367
ENCODING 9063
SWIDTH 362 0
DWIDTH 16 0
BBX 16 16 0 -2
BITMAP
0180
7FFE
0180
3FFC
4003
F003
9FFA
2182
7FFE
218C
3FFC
0183
FFFF
1998
6186
C103
ENDCHAR
STARTCHAR 2368
ENCODING 9064
SWIDTH 362 0
DWIDTH 16 0
BBX 16 16 0 -2
BITMAP
3020
31FF
3303
FEFE
3007
3006
78FE
7D03
73FF
F232
B1FE
B1B6
31B6
31BE
3134
3030
ENDCHAR
STARTCHAR 2369
ENCODING 9065
SWIDTH 362 0
DWIDTH 16 0
BBX 16 16 0 -2
BITMAP
3300
337F
2318
FB3F
27B3
67BA
7722
7B7F
EB32
A33A
A322
2322
2362
23C6
2303
2300
ENDCHAR
STARTCHAR 236a
ENCODING 9066
SWIDTH 362 0
DWIDTH 16 0
BBX 16 16 0 -2
BITMAP
3030
3013
33FF
FF66
3366
3366
7B66
7F7C
7318
F39B
B35E
B338
3234
3666
34C3
3303
ENDCHAR
STARTCHAR 236b
ENCODING 9067
SWIDTH 362 0
DWIDTH 16 0
BBX 16 16 0 -2
BITMAP
3020
33FF
3084
FC68
3038
30CF
7B83
7D86
7186
F000
B1FE
B1F6
319E
31FE
33E6
3606
ENDCHAR
STARTCHAR 236c
ENCODING 9068
SWIDTH 362 0
DWIDTH 16 0
BBX 16 16 0 -2
BITMAP
3000
33FF
307A
FDFF
317A
317A
7862
7FFF
70CC
F187
B3FF
B684
309C
308A
30FE
307E
ENDCHAR
STARTCHAR 236d
ENCODING 9069
SWIDTH 362 0
DWIDTH 16 0
BBX 16 16 0 -2
BITMAP
704C
67EC
666C
FE7F
666C
67EC
75DE
799E
E79F
E7FF
67AC
678C
658C
6F8C
69EC
700C
ENDCHAR
STARTCHAR 236e
ENCODING 9070
SWIDTH 362 0
DWIDTH 16 0
BBX 16 16 0 -2
BITMAP
3010
301F
3130
FD33
3132
3130
793E
7D00
717F
F15B
B17F
B15B
337F
3318
3618
3418
ENDCHAR
STARTCHAR 236f
ENCODING 9071
SWIDTH 362 0
DWIDTH 16 0
BBX 16 16 0 -2
BITMAP
3010
301F
3010
FDFF
3132
31FE
7930
7D1E
711E
F17A
B17A
B3FF
3318
3218
3478
3810
ENDCHAR
STARTCHAR 2370
ENCODING 9072
SWIDTH 362 0
DWIDTH 16 0
BBX 16 16 0 -2
BITMAP
3184
33DF
2184
F808
230C
6188
706A
7EEB
EAE9
A1C8
A10B
2706
230C
2318
2330
21C0
ENDCHAR
STARTCHAR 2371
ENCODING 9073
SWIDTH 362 0
DWIDTH 16 0
BBX 16 16 0 -2
BITMAP
318C
31EF
335A
FE72
3060
3060
78C6
7D8F
73FB
F101
B106
B103
3102
3102
3102
3102
ENDCHAR
STARTCHAR 2372
ENCODING 9074
SWIDTH 362 0
DWIDTH 16 0
BBX 16 16 0 -2
BITMAP
3300
323F
27AC
FEAC
27AC
66AC
76FF
7CAC
EE08
A7CE
A61E
265E
26D6
27F7
2067
20C7
ENDCHAR
STARTCHAR 2373
ENCODING 9075
SWIDTH 362 0
DWIDTH 16 0
BBX 16 16 0 -2
BITMAP
310C
330C
2268
FE6F
25E8
6168
737F
7A08
EE48
AA6F
A268
2268
2268
2278
22DF
238E
ENDCHAR
STARTCHAR 2374
ENCODING 9076
SWIDTH 362 0
DWIDTH 16 0
BBX 16 16 0 -2
BITMAP
3030
3070
304C
FCFF
3103
33FE
780C
7DFF
7078
F1FF
B17B
B15E
318E
317A
3102
31FE
ENDCHAR
STARTCHAR 2375
ENCODING 9077
SWIDTH 362 0
DWIDTH 16 0
BBX 16 16 0 -2
BITMAP
3607
7E36
6616
EF46
7F26
6906
7F7F
4106
C706
8182
0183
0180
1990
398C
6186
C102
ENDCHAR
STARTCHAR 2376
ENCODING 9078
SWIDTH 362 0
DWIDTH 16 0
BBX 16 16 0 -2
BITMAP
1818
1C18
1DD8
FF5F
197F
FF6E
BD4C
BD4C
BD4C
BD4C
FD4E
29DA
D912
BC33
6C23
0443
ENDCHAR
STARTCHAR 2377
ENCODING 9079
SWIDTH 362 0
DWIDTH 16 0
BBX 16 16 0 -2
BITMAP
01D8
C758
679F
27BE
06EC
F7CC
37CC
66CC
77CE
F6DA
36D3
37F3
64A1
F800
DFFF
03FE
ENDCHAR
STARTCHAR 2378
ENCODING 9080
SWIDTH 362 0
DWIDTH 16 0
BBX 16 16 0 -2
BITMAP
1C70
1F60
1860
FFFF
D95B
FF5E
D898
DF18
CE18
DC18
FD3C
FF34
FE26
9C46
FFC3
6183
ENDCHAR
STARTCHAR 2379
ENCODING 9081
SWIDTH 362 0
DWIDTH 16 0
BBX 16 16 0 -2
BITMAP
3270
3F60
DE60
3C7F
D85B
705E
9098
FF18
0218
0018
7E3C
0234
7F26
4346
42C3
4383
ENDCHAR
STARTCHAR 237a
ENCODING 9082
SWIDTH 362 0
DWIDTH 16 0
BBX 16 16 0 -2
BITMAP
6270
C760
C360
E77F
C35B
FF5E
0098
FF18
1618
7E18
5E3C
7634
0626
0646
3EC3
0D83
ENDCHAR
STARTCHAR 237b
ENCODING 9083
SWIDTH 362 0
DWIDTH 16 0
BBX 16 16 0 -2
BITMAP
6270
C760
C360
E77F
C35B
FF5E
4098
7F18
C318
FB18
7B3C
7B34
7B26
0346
3EC3
0D83
ENDCHAR
STARTCHAR 237c
ENCODING 9084
SWIDTH 362 0
DWIDTH 16 0
BBX 16 16 0 -2
BITMAP
1870
3C60
6360
D17F
1B5B
065E
4698
2418
FF18
0218
7F3C
4234
7E26
4246
42C3
4383
ENDCHAR
STARTCHAR 237d
ENCODING 9085
SWIDTH 362 0
DWIDTH 16 0
BBX 16 16 0 -2
BITMAP
1870
3C60
6760
FF7F
025B
7F5E
0698
7F18
4318
7F18
433C
4334
4326
6646
43C3
8183
ENDCHAR
STARTCHAR 237e
ENCODING 9086
SWIDTH 362 0
DWIDTH 16 0
BBX 16 16 0 -2
BITMAP
1830
1C30
3320
61BF
FF7B
605A
7FD8
DF18
FD18
DD1C
FD14
DD36
FD36
FD23
DB43
B383
ENDCHAR
STARTCHAR 2421
ENCODING 9249
SWIDTH 362 0
DWIDTH 16 0
BBX 16 16 0 -2
BITMAP
101C
3018
7C18
4418
7CD8
44D8
7CDA
40D8
7ED8
7ED8
0ED8
7ED8
B6D8
86D8
BCDB
0800
ENDCHAR
STARTCHAR 2422
ENCODING 9250
SWIDTH 362 0
DWIDTH 16 0
BBX 16 16 0 -2
BITMAP
1A70
FF60
DA7F
DBE4
FFAC
FE18
1A3C
1867
1183
01C0
1984
11FC
1180
1180
3183
0000
ENDCHAR
STARTCHAR 2423
ENCODING 9251
SWIDTH 362 0
DWIDTH 16 0
BBX 16 16 0 -2
BITMAP
1818
1278
1E5A
1458
FE58
C7FF
FE18
C618
C65B
F45B
10DE
FF9C
1018
1030
10C0
1380
ENDCHAR
STARTCHAR 2424
ENCODING 9252
SWIDTH 362 0
DWIDTH 16 0
BBX 16 16 0 -2
BITMAP
1C1C
7818
7E18
7818
FF78
0258
7E5A
7E58
4658
7E58
1858
7E58
1858
1858
FFDB
C000
ENDCHAR
STARTCHAR 2425
ENCODING 9253
SWIDTH 362 0
DWIDTH 16 0
BBX 16 16 0 -2
BITMAP
1C1C
7818
7E18
7818
FF78
0258
7E5A
7E58
4658
7E58
1858
1E58
1058
1058
FFDB
C000
ENDCHAR
STARTCHAR 2426
ENCODING 9254
SWIDTH 362 0
DWIDTH 16 0
BBX 16 16 0 -2
BITMAP
00C0
18CC
18FC
1880
FFFF
4004
7FFE
6466
6E76
6BDE
74AE
6466
6E76
799E
7186
6004
ENDCHAR
STARTCHAR 2427
ENCODING 9255
SWIDTH 362 0
DWIDTH 16 0
BBX 16 16 0 -2
BITMAP
0020
FD33
63FF
6A82
7CFE
4D98
C992
D9BF
BBA2
1BA2
15B2
31B2
21A2
61A2
41BE
8122
ENDCHAR
STARTCHAR 2428
ENCODING 9256
SWIDTH 362 0
DWIDTH 16 0
BBX 16 16 0 -2
BITMAP
006C
FC6C
61FF
6868
7DFF
4D6B
C9FF
D96B
B9FF
1806
11FE
3186
21FE
6186
4186
8186
ENDCHAR
STARTCHAR 2429
ENCODING 9257
SWIDTH 362 0
DWIDTH 16 0
BBX 16 16 0 -2
BITMAP
0042
FFEF
616B
6967
7DEF
4F6B
C8F7
D838
B86C
18DF
1333
30CC
2036
61CE
4038
81C0
ENDCHAR
STARTCHAR 242a
ENCODING 9258
SWIDTH 362 0
DWIDTH 16 0
BBX 16 16 0 -2
BITMAP
02D8
FEDB
669F
66BF
7EE6
5FFE
D8BC
D89F
BFE6
36FF
36B6
369E
2686
6486
C49E
888C
ENDCHAR
STARTCHAR 242b
ENCODING 9259
SWIDTH 362 0
DWIDTH 16 0
BBX 16 16 0 -2
BITMAP
0193
FDB6
6326
69B2
7C92
4DFE
C9B6
D9FE
B9B6
19FE
1033
3078
20FC
61B7
4633
8030
ENDCHAR
STARTCHAR 242c
ENCODING 9260
SWIDTH 362 0
DWIDTH 16 0
BBX 16 16 0 -2
BITMAP
01FC
3F0C
318C
1190
3FFC
218C
7FFE
7FFE
218C
210A
FFFF
3F60
337E
4E61
987F
F03F
ENDCHAR
STARTCHAR 242d
ENCODING 9261
SWIDTH 362 0
DWIDTH 16 0
BBX 16 16 0 -2
BITMAP
1844
1A7E
FE64
1A64
7E44
02C7
FF80
82FE
7E46
1A24
FE2C
1A38
7E18
462C
4647
4783
ENDCHAR
STARTCHAR 242e
ENCODING 9262
SWIDTH 362 0
DWIDTH 16 0
BBX 16 16 0 -2
BITMAP
1840
1FE0
30CC
300C
3FFC
3EF8
2082
3CFC
31FC
7FFE
3FFC
2184
3FFC
0F00
0DFF
F01F
ENDCHAR
STARTCHAR 242f
ENCODING 9263
SWIDTH 362 0
DWIDTH 16 0
BBX 16 16 0 -2
BITMAP
1302
F94F
DFDC
D4CC
E6CC
F39F
D10C
DFCC
D80C
DFDF
DE4C
F64C
C64C
C64D
C7CF
C447
ENDCHAR
STARTCHAR 2430
ENCODING 9264
SWIDTH 362 0
DWIDTH 16 0
BBX 16 16 0 -2
BITMAP
1106
FF9F
75F8
7398
F798
95FF
7398
2118
7F18
187F
5B18
7A18
3C18
1819
1B1F
000F
ENDCHAR
STARTCHAR 2431
ENCODING 9265
SWIDTH 362 0
DWIDTH 16 0
BBX 16 16 0 -2
BITMAP
2106
F79F
F778
7718
7318
FF7F
7718
3A18
1A18
7F7F
4318
4318
7F18
4319
431F
430F
ENDCHAR
STARTCHAR 2432
ENCODING 9266
SWIDTH 362 0
DWIDTH 16 0
BBX 16 16 0 -2
BITMAP
1C06
D91F
DB78
C318
6818
6D7F
7F18
6C18
EF18
EC7F
6C18
7F18
6C18
6C19
7F9F
400F
ENDCHAR
STARTCHAR 2433
ENCODING 9267
SWIDTH 362 0
DWIDTH 16 0
BBX 16 16 0 -2
BITMAP
0862
7DFF
B0EE
3066
31FA
FCEE
3076
30B2
34FE
FC86
30FE
3086
30FF
3001
3FFF
1FFF
ENDCHAR
STARTCHAR 2434
ENCODING 9268
SWIDTH 362 0
DWIDTH 16 0
BBX 16 16 0 -2
BITMAP
0830
7DFE
B1B6
31B6
30FC
FDFE
31B6
30FC
35FF
FC88
31FC
30E7
3301
3001
3FFF
1FFF
ENDCHAR
STARTCHAR 2435
ENCODING 9269
SWIDTH 362 0
DWIDTH 16 0
BBX 16 16 0 -2
BITMAP
0810
7D93
B1B2
31D2
30DA
FCFF
31D8
33FE
34D8
FCFE
30D8
30FF
30C0
3001
3FFF
1FFF
ENDCHAR
STARTCHAR 2436
ENCODING 9270
SWIDTH 362 0
DWIDTH 16 0
BBX 16 16 0 -2
BITMAP
0986
7DFE
B1BE
30FE
30BE
FDAE
302E
304C
35FF
FCCC
31D8
303C
30C6
3001
3FFF
1FFF
ENDCHAR
STARTCHAR 2437
ENCODING 9271
SWIDTH 362 0
DWIDTH 16 0
BBX 16 16 0 -2
BITMAP
3002
FEFF
C6D8
C6FF
FEB8
FE29
CE4F
F18F
41F8
3F00
030E
0300
FFFF
0102
01FE
01FE
ENDCHAR
STARTCHAR 2438
ENCODING 9272
SWIDTH 362 0
DWIDTH 16 0
BBX 16 16 0 -2
BITMAP
1C18
7F1F
1818
7F67
3E3C
7B1F
D867
7FFF
600C
6FFE
6082
6FFE
40C3
40C0
C0C1
807F
ENDCHAR
STARTCHAR 2439
ENCODING 9273
SWIDTH 362 0
DWIDTH 16 0
BBX 16 16 0 -2
BITMAP
9B70
5A63
FF7F
DBE6
BF9C
FF1C
9B3E
92E7
01F8
3F00
030E
0300
FFFF
0102
01FE
01FE
ENDCHAR
STARTCHAR 243a
ENCODING 9274
SWIDTH 362 0
DWIDTH 16 0
BBX 16 16 0 -2
BITMAP
3000
3FFE
2000
7FFC
4008
860C
3648
16A8
7FE8
3EC8
6668
3FEC
266C
3FE5
3667
3043
ENDCHAR
STARTCHAR 243b
ENCODING 9275
SWIDTH 362 0
DWIDTH 16 0
BBX 16 16 0 -2
BITMAP
6002
45FF
FE2A
81FF
7DAA
01FE
0C06
0C00
19FF
3090
60D6
C193
C311
C001
FFFF
7FFF
ENDCHAR
STARTCHAR 243c
ENCODING 9276
SWIDTH 362 0
DWIDTH 16 0
BBX 16 16 0 -2
BITMAP
0036
0032
7FFF
5FB2
4433
5796
461C
4F1D
D9E7
A1C3
0602
0000
0003
0000
0602
0000
ENDCHAR
STARTCHAR 243d
ENCODING 9277
SWIDTH 362 0
DWIDTH 16 0
BBX 16 16 0 -2
BITMAP
2188
31FC
110A
03FF
8B02
4BFE
7980
11FF
3100
33FF
6003
E06F
65AF
6C83
607E
200C
ENDCHAR
STARTCHAR 243e
ENCODING 9278
SWIDTH 362 0
DWIDTH 16 0
BBX 16 16 0 -2
BITMAP
4003
6030
4DFF
41FF
4182
4582
78FE
61C3
0381
0180
0D8C
0DD8
19F0
319F
6787
C300
ENDCHAR
STARTCHAR 243f
ENCODING 9279
SWIDTH 362 0
DWIDTH 16 0
BBX 16 16 0 -2
BITMAP
3306
3184
27E4
2B04
3ECF
F7FE
761C
711E
77DE
FF5E
BF57
AF55
AF54
2744
254C
694C
ENDCHAR
STARTCHAR 2440
ENCODING 9280
SWIDTH 362 0
DWIDTH 16 0
BBX 16 16 0 -2
BITMAP
31C6
3784
27C4
2F84
3F9F
F19E
739C
77DE
77FE
FDDE
B8D7
A8F5
A9A4
2304
260C
7C0C
ENDCHAR
STARTCHAR 2441
ENCODING 9281
SWIDTH 362 0
DWIDTH 16 0
BBX 16 16 0 -2
BITMAP
2020
3033
13FF
06CE
8BFF
48C8
79FE
10C8
33FF
308C
6167
E63B
6008
6060
6018
200C
ENDCHAR
STARTCHAR 2442
ENCODING 9282
SWIDTH 362 0
DWIDTH 16 0
BBX 16 16 0 -2
BITMAP
4060
2223
07FF
07BE
8986
D37F
5306
1706
377F
23C3
633E
E336
631C
631C
6337
23C3
ENDCHAR
STARTCHAR 2443
ENCODING 9283
SWIDTH 362 0
DWIDTH 16 0
BBX 16 16 0 -2
BITMAP
2020
33FE
108C
00C8
8FFF
4830
7BFE
1326
3336
3336
6026
E3FE
6306
6306
63FE
2302
ENDCHAR
STARTCHAR 2444
ENCODING 9284
SWIDTH 362 0
DWIDTH 16 0
BBX 16 16 0 -2
BITMAP
2020
37FF
1104
0156
8BFF
4B56
7FD7
1196
3326
3634
67FF
E020
6326
6223
6421
2020
ENDCHAR
STARTCHAR 2445
ENCODING 9285
SWIDTH 362 0
DWIDTH 16 0
BBX 16 16 0 -2
BITMAP
4630
2230
0FFF
0460
D458
57FF
1592
35A7
25FD
25A0
65BF
CDAA
4DAA
69AA
6FEB
73C9
ENDCHAR
STARTCHAR 2446
ENCODING 9286
SWIDTH 362 0
DWIDTH 16 0
BBX 16 16 0 -2
BITMAP
4060
2030
0192
0783
8F87
DDFC
50FC
1000
3186
2208
6288
E24B
6A69
6A28
6BAE
2186
ENDCHAR
STARTCHAR 2447
ENCODING 9287
SWIDTH 362 0
DWIDTH 16 0
BBX 16 16 0 -2
BITMAP
4000
217F
0F98
0630
D62B
564A
269C
267C
266C
66FE
663F
C7BF
5EC4
680C
603C
6018
ENDCHAR
STARTCHAR 2448
ENCODING 9288
SWIDTH 362 0
DWIDTH 16 0
BBX 16 16 0 -2
BITMAP
2002
33FF
11FA
006A
89FA
4BFE
7A7C
1210
36FE
37FF
631B
E31B
63FB
6003
607E
200C
ENDCHAR
STARTCHAR 2449
ENCODING 9289
SWIDTH 362 0
DWIDTH 16 0
BBX 16 16 0 -2
BITMAP
2002
33FF
1002
01FE
8B02
4BFF
7A1B
17FB
36FB
37FB
67FB
E3FB
6043
67FF
607E
200C
ENDCHAR
STARTCHAR 244a
ENCODING 9290
SWIDTH 362 0
DWIDTH 16 0
BBX 16 16 0 -2
BITMAP
4042
2FFF
085A
0FDA
DCDA
5F93
2A80
2ADF
2CD3
6C0B
6BCE
CACE
4A8C
6AEE
7CD3
6863
ENDCHAR
STARTCHAR 244b
ENCODING 9291
SWIDTH 362 0
DWIDTH 16 0
BBX 16 16 0 -2
BITMAP
2203
3303
13FF
020E
8AFE
4BFF
7B30
1331
361F
3E32
6333
E3FE
6220
6623
6633
2603
ENDCHAR
STARTCHAR 244c
ENCODING 9292
SWIDTH 362 0
DWIDTH 16 0
BBX 16 16 0 -2
BITMAP
2030
37FF
1020
03FF
8A22
4BFE
7A22
13FE
3320
33FF
6603
EDBF
66B7
6403
603E
200C
ENDCHAR
STARTCHAR 244d
ENCODING 9293
SWIDTH 362 0
DWIDTH 16 0
BBX 16 16 0 -2
BITMAP
4002
2FDF
058C
058C
D58C
55BF
158C
358C
278E
25BF
65B3
C5B3
5FB3
69B3
61BF
61B2
ENDCHAR
STARTCHAR 244e
ENCODING 9294
SWIDTH 362 0
DWIDTH 16 0
BBX 16 16 0 -2
BITMAP
2000
37FF
10D8
02DA
8BDF
4A02
7BCA
12DA
30D8
37FF
6030
E190
6582
6D85
6DFD
20F8
ENDCHAR
STARTCHAR 244f
ENCODING 9295
SWIDTH 362 0
DWIDTH 16 0
BBX 16 16 0 -2
BITMAP
4182
211F
07DB
011B
D7DF
545F
14DB
34DB
245F
27DF
611B
C7F3
4133
6133
612F
6146
ENDCHAR
STARTCHAR 2450
ENCODING 9296
SWIDTH 362 0
DWIDTH 16 0
BBX 16 16 0 -2
BITMAP
2002
37FF
118C
01FC
898C
49FC
798C
17FF
368B
365B
66FB
E623
67FF
6623
662F
2606
ENDCHAR
STARTCHAR 2451
ENCODING 9297
SWIDTH 362 0
DWIDTH 16 0
BBX 16 16 0 -2
BITMAP
21C6
3184
13DF
01EE
8BBD
4DA4
7806
11FE
3146
313E
610E
E11E
61E6
6346
621E
240C
ENDCHAR
STARTCHAR 2452
ENCODING 9298
SWIDTH 362 0
DWIDTH 16 0
BBX 16 16 0 -2
BITMAP
4002
2FFF
0CC3
0EBB
DFEF
5D8B
2DCB
2F6B
2E2B
6CCB
6EFB
CFCB
4C8B
69C3
6B2F
6626
ENDCHAR
STARTCHAR 2453
ENCODING 9299
SWIDTH 362 0
DWIDTH 16 0
BBX 16 16 0 -2
BITMAP
201A
321B
13FF
03FB
8B0B
4BAE
7BEF
161F
3463
30C4
67FF
E18C
6398
6378
606E
2383
ENDCHAR
STARTCHAR 2454
ENCODING 9300
SWIDTH 362 0
DWIDTH 16 0
BBX 16 16 0 -2
BITMAP
2002
37FF
1042
03FF
8A5A
4A5A
7A5A
1256
3003
3060
62C6
E3DB
625A
625A
625A
2256
ENDCHAR
STARTCHAR 2455
ENCODING 9301
SWIDTH 362 0
DWIDTH 16 0
BBX 16 16 0 -2
BITMAP
4018
201B
0CFF
06FF
D267
52C3
3E7E
2618
2C1A
6E18
6218
C618
4618
6E10
69FF
607E
ENDCHAR
STARTCHAR 2456
ENCODING 9302
SWIDTH 362 0
DWIDTH 16 0
BBX 16 16 0 -2
BITMAP
4018
201B
0CFF
0626
D25B
529B
3E7E
2618
2C76
6FFF
6266
C646
46C6
6E00
69FF
607E
ENDCHAR
STARTCHAR 2457
ENCODING 9303
SWIDTH 362 0
DWIDTH 16 0
BBX 16 16 0 -2
BITMAP
2042
37FF
134B
00C3
8FDF
4BFF
78F2
1070
30EC
31E7
6663
E16A
636F
6265
61E0
2040
ENDCHAR
STARTCHAR 2458
ENCODING 9304
SWIDTH 362 0
DWIDTH 16 0
BBX 16 16 0 -2
BITMAP
2206
3603
17FE
0602
8FFE
4B0C
7BEE
126F
35CD
31FF
663F
E3FE
6206
6206
6306
2306
ENDCHAR
STARTCHAR 2459
ENCODING 9305
SWIDTH 362 0
DWIDTH 16 0
BBX 16 16 0 -2
BITMAP
404C
2FEC
0D6C
0FEF
CD6C
5D6C
3FFF
2013
2FF3
269A
668E
C68C
468C
649E
6CB3
78E3
ENDCHAR
STARTCHAR 245a
ENCODING 9306
SWIDTH 362 0
DWIDTH 16 0
BBX 16 16 0 -2
BITMAP
410C
27DF
010C
0108
D7E3
56D3
16D3
37D3
26DA
26CE
67CC
C6CC
46CE
6FDA
6CD3
60E3
ENDCHAR
STARTCHAR 245b
ENCODING 9307
SWIDTH 362 0
DWIDTH 16 0
BBX 16 16 0 -2
BITMAP
2206
3603
17FE
0602
8FFE
4B06
7BEC
126E
35D1
31FF
663F
E3FE
6206
6206
6306
2306
ENDCHAR
STARTCHAR 245c
ENCODING 9308
SWIDTH 362 0
DWIDTH 16 0
BBX 16 16 0 -2
BITMAP
4030
21B2
013E
0133
8FFF
D103
53CB
165A
37DA
26FA
67DA
E75A
67DA
6642
64CE
28C6
ENDCHAR
STARTCHAR 245d
ENCODING 9309
SWIDTH 362 0
DWIDTH 16 0
BBX 16 16 0 -2
BITMAP
4082
27DF
06DB
06DB
8FDF
D603
56FB
1603
37FF
2653
66D7
E69F
671F
6603
661F
2406
ENDCHAR
STARTCHAR 245e
ENCODING 9310
SWIDTH 362 0
DWIDTH 16 0
BBX 16 16 0 -2
BITMAP
2004
33FE
1356
03DE
8B9E
4B56
7B56
13FC
3000
37FF
66DB
E6DA
66DA
66DA
66DB
2000
ENDCHAR
STARTCHAR 245f
ENCODING 9311
SWIDTH 362 0
DWIDTH 16 0
BBX 16 16 0 -2
BITMAP
4272
2666
0666
07FE
8882
DFDF
56CE
138C
3377
2663
6BFE
E0F0
61EC
63FE
6462
2060
ENDCHAR
STARTCHAR 2460
ENCODING 9312
SWIDTH 362 0
DWIDTH 16 0
BBX 16 16 0 -2
BITMAP
2063
3063
10DA
01EA
8862
48F2
798A
17FE
3682
36C3
66C2
E6C2
66C2
64C2
6CC2
28C2
ENDCHAR
STARTCHAR 2461
ENCODING 9313
SWIDTH 362 0
DWIDTH 16 0
BBX 16 16 0 -2
BITMAP
20C0
3084
11FE
0300
8B8E
4EDB
7F7D
1070
30DC
31F7
6663
E162
636B
626D
61E0
2040
ENDCHAR
STARTCHAR 2462
ENCODING 9314
SWIDTH 362 0
DWIDTH 16 0
BBX 16 16 0 -2
BITMAP
2180
31FC
110C
03FF
8A6C
4ACF
7B87
13FE
3218
321B
62FF
E6FF
6683
6482
78C2
20C2
ENDCHAR
STARTCHAR 2463
ENCODING 9315
SWIDTH 362 0
DWIDTH 16 0
BBX 16 16 0 -2
BITMAP
2060
3242
13FF
03FE
8A02
4BFE
7B02
1232
30B2
3020
60A2
E020
6033
6030
6020
2020
ENDCHAR
STARTCHAR 2464
ENCODING 9316
SWIDTH 362 0
DWIDTH 16 0
BBX 16 16 0 -2
BITMAP
4618
2690
07FF
04AC
D7CC
548C
148C
34BF
24CC
2FCC
6D8C
C39E
469A
6C93
77B3
61E3
ENDCHAR
STARTCHAR 2465
ENCODING 9317
SWIDTH 362 0
DWIDTH 16 0
BBX 16 16 0 -2
BITMAP
4D9A
2D93
0DFF
0D93
DD9E
5D0D
1C37
3D43
2F9A
2D93
6DFF
CD93
4D9C
6D9D
69B7
69E3
ENDCHAR
STARTCHAR 2466
ENCODING 9318
SWIDTH 362 0
DWIDTH 16 0
BBX 16 16 0 -2
BITMAP
440F
2673
0613
07EA
DFA4
5FBF
2788
2588
2D8F
6D0C
6F2B
C76B
47EB
6CEB
786F
6063
ENDCHAR
STARTCHAR 2467
ENCODING 9319
SWIDTH 362 0
DWIDTH 16 0
BBX 16 16 0 -2
BITMAP
46B0
64F7
2CB0
0EB0
DFF8
76B7
24B2
2CB2
2CF2
6C02
64D2
C492
459A
651A
660A
6406
ENDCHAR
STARTCHAR 2468
ENCODING 9320
SWIDTH 362 0
DWIDTH 16 0
BBX 16 16 0 -2
BITMAP
2133
3322
1326
0193
8A03
4B33
7A33
13FF
3283
32C3
62C3
E6C3
66C3
64C3
6CC3
28C3
ENDCHAR
STARTCHAR 2469
ENCODING 9321
SWIDTH 362 0
DWIDTH 16 0
BBX 16 16 0 -2
BITMAP
2182
6117
67D8
6118
FFD8
F55F
67DA
67DA
655A
67DA
611A
77D2
5912
C932
8122
0142
ENDCHAR
STARTCHAR 246a
ENCODING 9322
SWIDTH 362 0
DWIDTH 16 0
BBX 16 16 0 -2
BITMAP
3002
33FF
337B
33FF
BC30
F830
71FE
3030
3030
33FF
3030
6832
6DFE
4430
8033
0000
ENDCHAR
STARTCHAR 246b
ENCODING 9323
SWIDTH 362 0
DWIDTH 16 0
BBX 16 16 0 -2
BITMAP
3060
30C4
31FE
3100
BF0C
FA49
77FF
3238
3058
30BF
336F
7CDC
6D66
4DCC
C030
83C0
ENDCHAR
STARTCHAR 246c
ENCODING 9324
SWIDTH 362 0
DWIDTH 16 0
BBX 16 16 0 -2
BITMAP
0102
FFFF
DFFA
7FFE
0C61
183F
703E
300C
3FFC
200C
3FF8
218C
3398
06F0
183F
F007
ENDCHAR
STARTCHAR 246d
ENCODING 9325
SWIDTH 362 0
DWIDTH 16 0
BBX 16 16 0 -2
BITMAP
3003
3078
FDFF
315B
7DCE
750A
B17A
31FE
3102
0180
218C
1918
03C0
0670
181F
E007
ENDCHAR
STARTCHAR 246e
ENCODING 9326
SWIDTH 362 0
DWIDTH 16 0
BBX 16 16 0 -2
BITMAP
1810
FFFF
1830
3E7E
7AD3
DD11
0602
FFFF
1998
318F
F99F
0BF0
0660
0C38
300F
E007
ENDCHAR
STARTCHAR 246f
ENCODING 9327
SWIDTH 362 0
DWIDTH 16 0
BBX 16 16 0 -2
BITMAP
9B30
5E30
FF7F
DB66
BFB6
FF1C
9B1C
9F37
93C3
0180
218C
1918
03C0
0670
181F
E007
ENDCHAR
STARTCHAR 2470
ENCODING 9328
SWIDTH 362 0
DWIDTH 16 0
BBX 16 16 0 -2
BITMAP
1984
631E
67C6
799E
63C6
7F7E
6206
FFFF
0180
218C
3998
1BD0
0660
0C38
300F
E007
ENDCHAR
STARTCHAR 2471
ENCODING 9329
SWIDTH 362 0
DWIDTH 16 0
BBX 16 16 0 -2
BITMAP
7002
7F18
7318
9EFF
7C18
D818
3018
C010
1818
969B
D65A
5418
3038
2C24
4647
8183
ENDCHAR
STARTCHAR 2472
ENCODING 9330
SWIDTH 362 0
DWIDTH 16 0
BBX 16 16 0 -2
BITMAP
0180
330C
16D0
0C38
380E
E003
7FFE
6666
7FFE
1000
DA5B
DB5B
DADB
FA5B
3018
C018
ENDCHAR
STARTCHAR 2473
ENCODING 9331
SWIDTH 362 0
DWIDTH 16 0
BBX 16 16 0 -2
BITMAP
1C18
5BDB
7A7C
1E30
3366
61C3
7FFF
CC33
8C30
7FFE
0DB0
0CB3
FFFF
1830
3030
6030
ENDCHAR
STARTCHAR 2474
ENCODING 9332
SWIDTH 362 0
DWIDTH 16 0
BBX 16 16 0 -2
BITMAP
1C18
5BDB
7A7C
1E30
3366
61C3
4003
C003
E00C
300C
2464
2664
2664
2664
200C
200C
ENDCHAR
STARTCHAR 2475
ENCODING 9333
SWIDTH 362 0
DWIDTH 16 0
BBX 16 16 0 -2
BITMAP
3246
33C4
ABDD
F99E
27E4
718C
798A
499B
8031
1FF8
0818
0420
03C0
03E0
0C7F
F00F
ENDCHAR
STARTCHAR 2476
ENCODING 9334
SWIDTH 362 0
DWIDTH 16 0
BBX 16 16 0 -2
BITMAP
211C
6578
6558
63DB
FB9F
F7F6
6576
6576
67FE
67EE
67EC
756C
5D6C
CD7E
8573
04E3
ENDCHAR
STARTCHAR 2477
ENCODING 9335
SWIDTH 362 0
DWIDTH 16 0
BBX 16 16 0 -2
BITMAP
0E00
7EFF
5E8F
5EFF
5EFF
5EFF
5EFF
5EFF
5EFF
5EEF
5A93
5BFF
5980
D9C0
987F
903E
ENDCHAR
STARTCHAR 2478
ENCODING 9336
SWIDTH 362 0
DWIDTH 16 0
BBX 16 16 0 -2
BITMAP
007C
3F88
230C
3198
3FFC
200C
3FFC
0182
7FFE
4FF6
4C36
4006
47E6
43C6
43F6
5C36
ENDCHAR
STARTCHAR 2479
ENCODING 9337
SWIDTH 362 0
DWIDTH 16 0
BBX 16 16 0 -2
BITMAP
00FE
7F0C
318C
1098
6184
DB4B
F7DE
718E
FBDF
CB79
0018
1C38
07E0
03E0
0E7F
F00F
ENDCHAR
STARTCHAR 247a
ENCODING 9338
SWIDTH 362 0
DWIDTH 16 0
BBX 16 16 0 -2
BITMAP
0E02
E27F
F330
5630
7EFF
0220
7E20
FF7F
9303
FF02
E702
FF02
9B02
BF06
CF3E
820C
ENDCHAR
STARTCHAR 247b
ENCODING 9339
SWIDTH 362 0
DWIDTH 16 0
BBX 16 16 0 -2
BITMAP
C646
C643
C642
FE7E
0042
0860
087F
7C4E
24D9
2293
238E
FB8F
06D1
0C78
301F
E007
ENDCHAR
STARTCHAR 247c
ENCODING 9340
SWIDTH 362 0
DWIDTH 16 0
BBX 16 16 0 -2
BITMAP
0180
07C0
0D38
719F
8DB8
7FFE
6186
77DE
6DB6
7BEE
6186
77DE
6DB6
7BEE
6186
410C
ENDCHAR
STARTCHAR 247d
ENCODING 9341
SWIDTH 362 0
DWIDTH 16 0
BBX 16 16 0 -2
BITMAP
4C30
6C33
4BFF
4832
49FE
F833
0BFF
09FE
7986
49FE
4986
4986
4986
C8CC
C983
8F01
ENDCHAR
STARTCHAR 247e
ENCODING 9342
SWIDTH 362 0
DWIDTH 16 0
BBX 16 16 0 -2
BITMAP
4C60
6C7F
48E3
493E
49D8
F970
0980
0BFF
787A
49FF
495A
49CE
4982
C97E
C902
8902
ENDCHAR
STARTCHAR 2521
ENCODING 9505
SWIDTH 362 0
DWIDTH 16 0
BBX 16 16 0 -2
BITMAP
4CC2
6CFF
494C
4A38
48EF
FB83
08C3
09CE
796C
483F
49C7
4842
49CE
C9CF
C800
8BFF
ENDCHAR
STARTCHAR 2522
ENCODING 9506
SWIDTH 362 0
DWIDTH 16 0
BBX 16 16 0 -2
BITMAP
4C30
6C33
4BFF
4832
49FE
4833
43FF
49FE
7D86
4DFE
4986
4986
C986
C8CC
8983
8F01
ENDCHAR
STARTCHAR 2523
ENCODING 9507
SWIDTH 362 0
DWIDTH 16 0
BBX 16 16 0 -2
BITMAP
4D06
6D03
4902
4902
4902
4936
4033
4830
7DFF
4D33
49FE
4932
C9FE
C932
8932
8926
ENDCHAR
STARTCHAR 2524
ENCODING 9508
SWIDTH 362 0
DWIDTH 16 0
BBX 16 16 0 -2
BITMAP
4C10
6C1F
4810
49FF
4932
49FE
4130
491E
7D1E
4D7A
497A
49FF
C918
CB18
8A78
8A10
ENDCHAR
STARTCHAR 2525
ENCODING 9509
SWIDTH 362 0
DWIDTH 16 0
BBX 16 16 0 -2
BITMAP
4C6C
6DEF
486C
49C8
49FF
4B03
431B
49EF
7DEB
4DEB
49EB
49EB
C9EB
C97B
8A1B
8802
ENDCHAR
STARTCHAR 2526
ENCODING 9510
SWIDTH 362 0
DWIDTH 16 0
BBX 16 16 0 -2
BITMAP
1832
D1B6
D0F4
D1FF
FF03
93FE
9186
1186
3DFE
F030
D032
11FE
1030
1030
1033
1000
ENDCHAR
STARTCHAR 2527
ENCODING 9511
SWIDTH 362 0
DWIDTH 16 0
BBX 16 16 0 -2
BITMAP
186C
59EF
586C
5DC8
7FFF
DB03
9B1B
19EF
1DEB
F9EB
D9EB
19EB
19EB
197B
1A1B
1002
ENDCHAR
STARTCHAR 2528
ENCODING 9512
SWIDTH 362 0
DWIDTH 16 0
BBX 16 16 0 -2
BITMAP
3318
F313
F33F
F2B2
FECE
B68E
3E9B
36F1
3EBE
F6BA
F6B6
36B6
36BA
3622
3662
36C6
ENDCHAR
STARTCHAR 2529
ENCODING 9513
SWIDTH 362 0
DWIDTH 16 0
BBX 16 16 0 -2
BITMAP
184C
FF6C
1864
7EC7
C380
C366
FE3C
663C
4767
8783
0198
FFFF
0600
0C38
180E
E003
ENDCHAR
STARTCHAR 252a
ENCODING 9514
SWIDTH 362 0
DWIDTH 16 0
BBX 16 16 0 -2
BITMAP
181C
FF1A
001A
7F18
637F
6218
7E18
0318
FF9C
E71C
DD14
FF36
D926
D963
DB43
C383
ENDCHAR
STARTCHAR 252b
ENCODING 9515
SWIDTH 362 0
DWIDTH 16 0
BBX 16 16 0 -2
BITMAP
0830
5833
33FF
3032
51FE
9BFF
1A03
1FFC
3906
6986
C986
09FC
0984
18CC
78DB
3000
ENDCHAR
STARTCHAR 252c
ENCODING 9516
SWIDTH 362 0
DWIDTH 16 0
BBX 16 16 0 -2
BITMAP
1198
F158
67D8
611F
B7FF
354E
37CC
354C
774C
D74C
938E
13DA
177A
3913
F133
6163
ENDCHAR
STARTCHAR 252d
ENCODING 9517
SWIDTH 362 0
DWIDTH 16 0
BBX 16 16 0 -2
BITMAP
0800
5BFF
3048
33CF
530B
9B03
1BCF
1848
3848
69FF
C932
0932
09FE
1932
7932
3102
ENDCHAR
STARTCHAR 252e
ENCODING 9518
SWIDTH 362 0
DWIDTH 16 0
BBX 16 16 0 -2
BITMAP
08C0
5BFF
3080
31FE
5186
9A86
18FE
1803
3BFF
6B5B
CBFF
0BB3
0BB7
1BFF
7B07
3302
ENDCHAR
STARTCHAR 252f
ENCODING 9519
SWIDTH 362 0
DWIDTH 16 0
BBX 16 16 0 -2
BITMAP
1002
F7FF
64E6
65DC
B484
37FF
3484
3DCC
7DEE
DDFE
9F97
1EB7
1CE4
3484
FC84
6884
ENDCHAR
STARTCHAR 2530
ENCODING 9520
SWIDTH 362 0
DWIDTH 16 0
BBX 16 16 0 -2
BITMAP
0842
5FFF
365B
37DF
565B
9FDF
1E23
1E33
3FFF
7E73
DE7B
1EEF
1FAF
1E23
F62F
2606
ENDCHAR
STARTCHAR 2531
ENCODING 9521
SWIDTH 362 0
DWIDTH 16 0
BBX 16 16 0 -2
BITMAP
0810
581F
3010
33FF
5362
9BFE
1B60
1B3E
3B2C
6BFF
CBAE
0BAE
0BEE
1A2C
7E3F
3400
ENDCHAR
STARTCHAR 2532
ENCODING 9522
SWIDTH 362 0
DWIDTH 16 0
BBX 16 16 0 -2
BITMAP
0932
5933
31FE
31FE
5102
99FE
1902
19FE
3982
69FF
CBB3
0FBB
09A3
19FF
781E
300C
ENDCHAR
STARTCHAR 2533
ENCODING 9523
SWIDTH 362 0
DWIDTH 16 0
BBX 16 16 0 -2
BITMAP
1186
D9F5
713C
63EC
F1EC
17CA
1993
3F61
3820
5A33
9936
1974
1848
188C
F107
2603
ENDCHAR
STARTCHAR 2534
ENCODING 9524
SWIDTH 362 0
DWIDTH 16 0
BBX 16 16 0 -2
BITMAP
1186
F30C
62CB
66DB
B79E
130C
328A
36DB
7FFF
D514
9104
1555
1D75
3925
F30C
630C
ENDCHAR
STARTCHAR 2535
ENCODING 9525
SWIDTH 362 0
DWIDTH 16 0
BBX 16 16 0 -2
BITMAP
0820
5BFF
3000
31FF
5132
99FE
1932
19FE
3830
6BFF
C8D3
08D7
098C
1ABC
7CE7
30C3
ENDCHAR
STARTCHAR 2536
ENCODING 9526
SWIDTH 362 0
DWIDTH 16 0
BBX 16 16 0 -2
BITMAP
0002
FF7F
665A
66A6
7EFC
6618
FE3E
C667
0680
7FFE
0180
0184
3FFC
0198
019B
0000
ENDCHAR
STARTCHAR 2537
ENCODING 9527
SWIDTH 362 0
DWIDTH 16 0
BBX 16 16 0 -2
BITMAP
C202
D8FF
D85A
FFA6
C2FC
FE18
D83E
DA67
FE80
7FFE
0180
0184
3FFC
0198
018B
0000
ENDCHAR
STARTCHAR 2538
ENCODING 9528
SWIDTH 362 0
DWIDTH 16 0
BBX 16 16 0 -2
BITMAP
0E46
7866
1846
FFC3
18FE
7F26
581C
5B3F
FCE3
4006
7FFE
0180
3FFC
0190
018A
FFFF
ENDCHAR
STARTCHAR 2539
ENCODING 9529
SWIDTH 362 0
DWIDTH 16 0
BBX 16 16 0 -2
BITMAP
00FC
3E04
318E
1298
3E0C
600C
660C
600C
600C
600C
0006
0180
018C
01B8
018A
7FFF
ENDCHAR
STARTCHAR 253a
ENCODING 9530
SWIDTH 362 0
DWIDTH 16 0
BBX 16 16 0 -2
BITMAP
0208
130C
FBFF
60C2
6092
649A
659F
638C
638C
630C
639E
668C
FCCC
C8CC
100C
000C
ENDCHAR
STARTCHAR 253b
ENCODING 9531
SWIDTH 362 0
DWIDTH 16 0
BBX 16 16 0 -2
BITMAP
0002
0DFF
FD6A
304E
30CF
3106
387F
3132
3092
30D4
31FF
3C38
F07C
C097
0313
0010
ENDCHAR
STARTCHAR 253c
ENCODING 9532
SWIDTH 362 0
DWIDTH 16 0
BBX 16 16 0 -2
BITMAP
0034
0C16
FCCC
31DA
33F3
32FC
39FC
3730
3032
31FF
3132
3DFE
F032
C036
03FF
0301
ENDCHAR
STARTCHAR 253d
ENCODING 9533
SWIDTH 362 0
DWIDTH 16 0
BBX 16 16 0 -2
BITMAP
00C6
0CC4
FFFF
3084
30FC
3030
3B33
3333
3333
33FF
3333
3FFF
F333
C333
033F
0326
ENDCHAR
STARTCHAR 253e
ENCODING 9534
SWIDTH 362 0
DWIDTH 16 0
BBX 16 16 0 -2
BITMAP
0010
0C1F
FC10
31FF
3132
31FE
3930
313E
3140
317F
31AB
3FAA
F37A
C2FF
05B7
094C
ENDCHAR
STARTCHAR 253f
ENCODING 9535
SWIDTH 362 0
DWIDTH 16 0
BBX 16 16 0 -2
BITMAP
00C6
0DEF
FCC6
30B6
30FB
3036
383F
3018
3030
3078
30D0
3D1F
F010
C010
0033
0000
ENDCHAR
STARTCHAR 2540
ENCODING 9536
SWIDTH 362 0
DWIDTH 16 0
BBX 16 16 0 -2
BITMAP
0002
0DFF
FD7A
317A
31FE
33FF
3860
30CC
3198
30F0
3073
3CCE
F18C
C69E
00E3
00C1
ENDCHAR
STARTCHAR 2541
ENCODING 9537
SWIDTH 362 0
DWIDTH 16 0
BBX 16 16 0 -2
BITMAP
00C6
0CC4
FCCE
316B
3231
3002
387F
3042
337E
3342
337E
3F62
F3C3
C381
03FF
01FF
ENDCHAR
STARTCHAR 2542
ENCODING 9538
SWIDTH 362 0
DWIDTH 16 0
BBX 16 16 0 -2
BITMAP
0100
FDBF
318C
7D9F
33CC
FE7F
C430
181C
31AF
CCE3
0C44
2C86
6D0B
4FF9
0FF8
3000
ENDCHAR
STARTCHAR 2543
ENCODING 9539
SWIDTH 362 0
DWIDTH 16 0
BBX 16 16 0 -2
BITMAP
0E06
7E7E
5E5E
5E7E
5E66
5E7E
5E00
5EFF
5EEA
5EEA
5BFF
5300
7580
E7C0
FE7F
E23E
ENDCHAR
STARTCHAR 2544
ENCODING 9540
SWIDTH 362 0
DWIDTH 16 0
BBX 16 16 0 -2
BITMAP
3007
3F7B
537A
9E7A
7C7A
D87A
607A
7F7A
D87A
987A
FF7A
187A
5B77
5B77
DBFF
4397
ENDCHAR
STARTCHAR 2545
ENCODING 9541
SWIDTH 362 0
DWIDTH 16 0
BBX 16 16 0 -2
BITMAP
0F07
E37B
9B7A
CA7A
5C7A
3A7A
667A
FC7A
327A
7F7A
F97A
587A
7A57
5B77
99FF
1897
ENDCHAR
STARTCHAR 2546
ENCODING 9542
SWIDTH 362 0
DWIDTH 16 0
BBX 16 16 0 -2
BITMAP
0100
FF7F
1530
FFB0
F536
E736
C126
FF36
003E
FF2E
1866
7F66
1866
186F
FFF7
C063
ENDCHAR
STARTCHAR 2547
ENCODING 9543
SWIDTH 362 0
DWIDTH 16 0
BBX 16 16 0 -2
BITMAP
0002
FF7F
665A
66A6
7EFC
6618
FE3E
C667
0680
FFFF
1818
1318
3198
3019
FF9F
600F
ENDCHAR
STARTCHAR 2548
ENCODING 9544
SWIDTH 362 0
DWIDTH 16 0
BBX 16 16 0 -2
BITMAP
0002
7FFF
4130
5FFF
4136
5FFE
5B36
5002
5FFF
7007
7FFC
47FC
C4CC
CC49
9FEF
9C07
ENDCHAR
STARTCHAR 2549
ENCODING 9545
SWIDTH 362 0
DWIDTH 16 0
BBX 16 16 0 -2
BITMAP
6180
F3DF
6198
2118
319E
611B
631A
DADE
F69E
F392
2112
6312
D293
DED7
FFFB
4411
ENDCHAR
STARTCHAR 254a
ENCODING 9546
SWIDTH 362 0
DWIDTH 16 0
BBX 16 16 0 -2
BITMAP
0100
FFFF
D530
D530
FF36
0136
FF26
0836
483E
6F2E
6866
6866
6866
686F
FF77
C063
ENDCHAR
STARTCHAR 254b
ENCODING 9547
SWIDTH 362 0
DWIDTH 16 0
BBX 16 16 0 -2
BITMAP
021C
1878
FF58
FB7F
E6D8
C398
CE18
187F
5F18
5A18
7E18
E618
9CFF
1C00
37FF
C3FE
ENDCHAR
STARTCHAR 254c
ENCODING 9548
SWIDTH 362 0
DWIDTH 16 0
BBX 16 16 0 -2
BITMAP
0042
0BFF
FC63
AC63
A9EF
A908
AB5A
FBFF
A863
A9EF
A8E7
A9E7
FF7B
8273
01CF
0086
ENDCHAR
STARTCHAR 254d
ENCODING 9549
SWIDTH 362 0
DWIDTH 16 0
BBX 16 16 0 -2
BITMAP
006C
004C
FFFF
D44C
D44C
D5FF
D4CC
FDB7
D733
D420
D4BA
D5AF
FD2D
8020
00E0
0060
ENDCHAR
STARTCHAR 254e
ENCODING 9550
SWIDTH 362 0
DWIDTH 16 0
BBX 16 16 0 -2
BITMAP
000E
01F2
FF33
D596
D4E4
D4EC
D498
FCF4
D4EE
D5F2
D4B0
D433
FDFF
80C4
0183
0301
ENDCHAR
STARTCHAR 254f
ENCODING 9551
SWIDTH 362 0
DWIDTH 16 0
BBX 16 16 0 -2
BITMAP
3030
FF36
20FE
7F36
6326
E267
7E47
0083
FE30
0236
FFFE
DA36
FE26
DA67
DA47
C383
ENDCHAR
STARTCHAR 2550
ENCODING 9552
SWIDTH 362 0
DWIDTH 16 0
BBX 16 16 0 -2
BITMAP
0180
7FFF
1188
1198
3D9C
67F6
1198
399C
6DB6
410C
7FFE
6184
7FFC
6184
618C
600C
ENDCHAR
STARTCHAR 2551
ENCODING 9553
SWIDTH 362 0
DWIDTH 16 0
BBX 16 16 0 -2
BITMAP
0188
3FFC
018F
018C
3FF8
0180
3FFC
FFFF
0000
1FF8
501F
599E
5FFE
599E
5FF6
1FF8
ENDCHAR
STARTCHAR 2552
ENCODING 9554
SWIDTH 362 0
DWIDTH 16 0
BBX 16 16 0 -2
BITMAP
0180
7FFE
0182
FFFF
FFFA
3188
3FF8
3FF8
0C00
180C
7FFE
7182
31FC
3180
6FFF
C3FE
ENDCHAR
STARTCHAR 2553
ENCODING 9555
SWIDTH 362 0
DWIDTH 16 0
BBX 16 16 0 -2
BITMAP
0080
20C3
3FFF
A630
F3F0
F33F
262B
2DA8
7988
FF08
66DC
6D9C
7B16
47F2
CCE3
9043
ENDCHAR
STARTCHAR 2554
ENCODING 9556
SWIDTH 362 0
DWIDTH 16 0
BBX 16 16 0 -2
BITMAP
0080
20C3
3FFF
A466
E36C
FFFF
2060
236C
6C63
F841
60E0
6360
6A03
5A0B
D3F9
81F8
ENDCHAR
STARTCHAR 2555
ENCODING 9557
SWIDTH 362 0
DWIDTH 16 0
BBX 16 16 0 -2
BITMAP
0080
20C3
3FFF
A31A
EFFE
E318
3FFF
2600
6FFE
EE66
77FE
6666
67FE
4666
C466
8826
ENDCHAR
STARTCHAR 2556
ENCODING 9558
SWIDTH 362 0
DWIDTH 16 0
BBX 16 16 0 -2
BITMAP
0080
20C3
3FFF
BFFF
E180
E7FE
2406
2406
67FE
E406
6FFE
6FFE
670C
48F0
D1FF
9E0F
ENDCHAR
STARTCHAR 2557
ENCODING 9559
SWIDTH 362 0
DWIDTH 16 0
BBX 16 16 0 -2
BITMAP
0080
20C3
3FFF
A7FE
E406
E7FE
2406
2436
6833
EC30
6DB3
6CF6
689C
489D
D7BF
A163
ENDCHAR
STARTCHAR 2558
ENCODING 9560
SWIDTH 362 0
DWIDTH 16 0
BBX 16 16 0 -2
BITMAP
0080
20C3
3FFF
A3FC
E20C
E27C
2FCF
3C03
7BFC
E20C
627C
621C
63EC
478C
C43C
8818
ENDCHAR
STARTCHAR 2559
ENCODING 9561
SWIDTH 362 0
DWIDTH 16 0
BBX 16 16 0 -2
BITMAP
0080
20C3
3FFF
A466
E466
EFFE
2C62
2C63
6FFE
E000
7F90
6F91
7C9B
5F9F
D7FF
BCFE
ENDCHAR
STARTCHAR 255a
ENCODING 9562
SWIDTH 362 0
DWIDTH 16 0
BBX 16 16 0 -2
BITMAP
0080
20C3
3FFF
A618
E493
E9D0
3E50
281F
6F8F
EE98
6D90
6D9F
6F90
4E91
C89F
919F
ENDCHAR
STARTCHAR 255b
ENCODING 9563
SWIDTH 362 0
DWIDTH 16 0
BBX 16 16 0 -2
BITMAP
0080
20C3
3FFF
A1C8
E7FE
E602
260C
2C9A
7FFF
E851
67FE
66F6
661E
47F6
CD86
8806
ENDCHAR
STARTCHAR 255c
ENCODING 9564
SWIDTH 362 0
DWIDTH 16 0
BBX 16 16 0 -2
BITMAP
0080
20C3
3FFF
A010
E476
E443
3242
337E
6640
FE7F
6B43
6343
667F
4C42
DFFF
83FE
ENDCHAR
STARTCHAR 255d
ENCODING 9565
SWIDTH 362 0
DWIDTH 16 0
BBX 16 16 0 -2
BITMAP
0080
20C3
3FFF
A6D8
E6C8
E6FF
2498
2D98
7FFF
F498
6498
64FF
6498
4498
C4DB
84C0
ENDCHAR
STARTCHAR 255e
ENCODING 9566
SWIDTH 362 0
DWIDTH 16 0
BBX 16 16 0 -2
BITMAP
0080
20C3
3FFF
A30C
E618
FDB2
3F3C
270C
7DBA
FEBB
60C0
6660
6E03
5E0B
D7F9
83F8
ENDCHAR
STARTCHAR 255f
ENCODING 9567
SWIDTH 362 0
DWIDTH 16 0
BBX 16 16 0 -2
BITMAP
064C
0638
4433
3FFE
380C
381F
D81B
0830
0830
7FFE
0C10
0813
FFFF
1810
1010
6010
ENDCHAR
STARTCHAR 2560
ENCODING 9568
SWIDTH 362 0
DWIDTH 16 0
BBX 16 16 0 -2
BITMAP
00C0
30C3
63FF
FD86
CDFE
CA86
CCFE
C882
FBFF
CB03
CB7F
CB4F
FB7B
CB03
031F
0306
ENDCHAR
STARTCHAR 2561
ENCODING 9569
SWIDTH 362 0
DWIDTH 16 0
BBX 16 16 0 -2
BITMAP
0030
3030
6068
FCC6
CDFB
CFFF
C986
C9FE
F986
C9FE
C980
C9FF
FB82
CA82
04C2
00C2
ENDCHAR
STARTCHAR 2562
ENCODING 9570
SWIDTH 362 0
DWIDTH 16 0
BBX 16 16 0 -2
BITMAP
1818
18DB
189B
7FFF
5E98
581B
58FF
7E00
46FF
6483
5CBB
CCAB
96BB
A2BB
40C3
00C3
ENDCHAR
STARTCHAR 2563
ENCODING 9571
SWIDTH 362 0
DWIDTH 16 0
BBX 16 16 0 -2
BITMAP
3040
627F
FF40
7F7F
7240
6E7F
7A40
4E7F
873F
0182
7FFF
5FFE
4C18
47E0
C3FF
FC0F
ENDCHAR
STARTCHAR 2564
ENCODING 9572
SWIDTH 362 0
DWIDTH 16 0
BBX 16 16 0 -2
BITMAP
2066
37FE
8860
57FE
1666
3666
67FE
6666
666E
2204
3018
36CC
3648
3648
36CF
0000
ENDCHAR
STARTCHAR 2565
ENCODING 9573
SWIDTH 362 0
DWIDTH 16 0
BBX 16 16 0 -2
BITMAP
181C
1A18
7E7E
1818
1A1B
3018
3434
6622
FFFF
C141
3018
36CC
3648
3648
36CF
0000
ENDCHAR
STARTCHAR 2566
ENCODING 9574
SWIDTH 362 0
DWIDTH 16 0
BBX 16 16 0 -2
BITMAP
0180
0182
7FFF
0184
7DFE
65E6
7DFE
7DFE
65E6
7DFC
0180
FFFF
1810
180C
3007
C003
ENDCHAR
STARTCHAR 2567
ENCODING 9575
SWIDTH 362 0
DWIDTH 16 0
BBX 16 16 0 -2
BITMAP
0002
FDFF
CF02
C9FE
C802
F9FF
C860
C8F3
CBBC
C878
C8D8
CB3C
C8DF
C99B
02F0
0020
ENDCHAR
STARTCHAR 2568
ENCODING 9576
SWIDTH 362 0
DWIDTH 16 0
BBX 16 16 0 -2
BITMAP
0030
FC32
CDFE
C830
CBFF
F830
C836
C830
C830
CBFF
C830
C890
CA83
CE85
04FC
007C
ENDCHAR
STARTCHAR 2569
ENCODING 9577
SWIDTH 362 0
DWIDTH 16 0
BBX 16 16 0 -2
BITMAP
0000
FFFF
CC78
CBFF
CB7B
FB7B
CBFF
C878
C878
C830
C832
C9FE
C830
C830
0033
0000
ENDCHAR
STARTCHAR 256a
ENCODING 9578
SWIDTH 362 0
DWIDTH 16 0
BBX 16 16 0 -2
BITMAP
00E3
FF6B
CDEF
C8E7
CB7B
F8C7
C802
C87E
C9A0
C822
C9FE
C823
CBFF
C821
003F
001F
ENDCHAR
STARTCHAR 256b
ENCODING 9579
SWIDTH 362 0
DWIDTH 16 0
BBX 16 16 0 -2
BITMAP
0186
FFCF
CD86
C8B4
C833
F980
C980
C980
C8FE
C900
C9B7
C9B6
C9B6
C936
0337
0223
ENDCHAR
STARTCHAR 256c
ENCODING 9580
SWIDTH 362 0
DWIDTH 16 0
BBX 16 16 0 -2
BITMAP
009C
FCD8
CFFB
CAD8
CA99
FAF9
CFCF
CF38
C830
CBFF
C830
C9B4
C9B2
CB33
0631
0030
ENDCHAR
STARTCHAR 256d
ENCODING 9581
SWIDTH 362 0
DWIDTH 16 0
BBX 16 16 0 -2
BITMAP
0030
FDB3
CD32
CBFE
C832
F863
CBFF
C830
C936
C933
C932
C9FE
C830
C832
03FF
0301
ENDCHAR
STARTCHAR 256e
ENCODING 9582
SWIDTH 362 0
DWIDTH 16 0
BBX 16 16 0 -2
BITMAP
001E
FDF0
CC30
C9B7
C9B6
F9B6
CBF5
CE79
C830
C9B7
C9B6
C9B6
CBF5
CE79
0030
0030
ENDCHAR
STARTCHAR 256f
ENCODING 9583
SWIDTH 362 0
DWIDTH 16 0
BBX 16 16 0 -2
BITMAP
0906
FD83
CD82
FDB0
CDFF
FD98
CD8D
FDC7
1C9B
1018
1018
1018
1018
1018
1018
1018
ENDCHAR
STARTCHAR 2570
ENCODING 9584
SWIDTH 362 0
DWIDTH 16 0
BBX 16 16 0 -2
BITMAP
1802
10FF
1E66
103C
121C
FF77
0083
7E02
00FF
02C2
FEFE
18C2
5EFE
5AC2
DAC2
90C2
ENDCHAR
STARTCHAR 2571
ENCODING 9585
SWIDTH 362 0
DWIDTH 16 0
BBX 16 16 0 -2
BITMAP
310C
306A
22E9
30EB
390F
BF0C
A130
A140
2106
2183
2182
2182
2182
2182
2182
2182
ENDCHAR
STARTCHAR 2572
ENCODING 9586
SWIDTH 362 0
DWIDTH 16 0
BBX 16 16 0 -2
BITMAP
1808
1064
FE46
14C3
FF83
C6FE
C6C6
C6C6
C6FE
FCC6
10C6
FEFE
10C6
10C6
10C6
10C6
ENDCHAR
STARTCHAR 2573
ENCODING 9587
SWIDTH 362 0
DWIDTH 16 0
BBX 16 16 0 -2
BITMAP
0004
7FFE
6666
6666
6666
6666
7FFC
0000
C243
FF7F
AA55
AA55
AA55
AA55
FE7F
C243
ENDCHAR
STARTCHAR 2574
ENCODING 9588
SWIDTH 362 0
DWIDTH 16 0
BBX 16 16 0 -2
BITMAP
04C3
FEFF
0C83
7883
3000
FEC3
36C3
30C3
70C3
709E
D318
933C
1366
13C3
F303
2300
ENDCHAR
STARTCHAR 2575
ENCODING 9589
SWIDTH 362 0
DWIDTH 16 0
BBX 16 16 0 -2
BITMAP
0410
FE38
0C6C
78C7
31BF
FFFF
3783
31FE
7182
71FE
D180
91FF
13C3
12C3
F4C3
20C3
ENDCHAR
STARTCHAR 2576
ENCODING 9590
SWIDTH 362 0
DWIDTH 16 0
BBX 16 16 0 -2
BITMAP
62C2
46DF
4640
FE40
A6C3
A2D8
22D8
FBDF
23D3
23C3
32C3
72C3
7AC3
4AC3
C3DE
8284
ENDCHAR
STARTCHAR 2577
ENCODING 9591
SWIDTH 362 0
DWIDTH 16 0
BBX 16 16 0 -2
BITMAP
6062
61CF
65EB
7DEB
D1EB
91EF
106A
FECA
10FF
1193
3992
3DFE
2592
4792
C1B2
8182
ENDCHAR
STARTCHAR 2578
ENCODING 9592
SWIDTH 362 0
DWIDTH 16 0
BBX 16 16 0 -2
BITMAP
6010
6038
646C
7CC7
D1BF
91FF
1183
FFFE
1182
11FE
3980
3DFF
27C2
47C2
C2C2
80C2
ENDCHAR
STARTCHAR 2579
ENCODING 9593
SWIDTH 362 0
DWIDTH 16 0
BBX 16 16 0 -2
BITMAP
731C
67FB
F67F
67F8
6679
F7FF
C44F
2000
300E
2180
4180
FFFF
0300
0638
180E
F003
ENDCHAR
STARTCHAR 257a
ENCODING 9594
SWIDTH 362 0
DWIDTH 16 0
BBX 16 16 0 -2
BITMAP
0020
FDFF
236B
22CC
618F
6100
7DFE
ED86
ED86
EDFE
6D86
6D86
7DFE
6986
4186
0000
ENDCHAR
STARTCHAR 257b
ENCODING 9595
SWIDTH 362 0
DWIDTH 16 0
BBX 16 16 0 -2
BITMAP
0018
FC13
21FF
2020
607E
6166
7D7E
ED66
ED7E
ED66
6D7E
6D00
7FFF
68C4
4183
0601
ENDCHAR
STARTCHAR 257c
ENCODING 9596
SWIDTH 362 0
DWIDTH 16 0
BBX 16 16 0 -2
BITMAP
0000
FDFF
2136
2126
617E
6126
7D26
ED7F
ED00
ED7F
6D63
6D62
7D7E
6962
4362
0262
ENDCHAR
STARTCHAR 257d
ENCODING 9597
SWIDTH 362 0
DWIDTH 16 0
BBX 16 16 0 -2
BITMAP
0186
FFCF
2186
2084
60C6
6984
7D8C
EF6B
EB5B
EBCE
6886
698C
790C
6B5B
43FF
0339
ENDCHAR
STARTCHAR 257e
ENCODING 9598
SWIDTH 362 0
DWIDTH 16 0
BBX 16 16 0 -2
BITMAP
009C
FCD8
23FB
22D8
6299
6AB9
7FCF
EF38
E830
EBFF
6830
69B4
79B2
6B33
4631
0030
ENDCHAR
STARTCHAR 2621
ENCODING 9761
SWIDTH 362 0
DWIDTH 16 0
BBX 16 16 0 -2
BITMAP
0198
FF18
27FF
26F3
63A3
6383
7EDB
F8CB
F9C3
FEC3
79C3
7BC3
7E43
68C3
47DE
0184
ENDCHAR
STARTCHAR 2622
ENCODING 9762
SWIDTH 362 0
DWIDTH 16 0
BBX 16 16 0 -2
BITMAP
0030
FC60
20C4
21FE
61C2
6800
7D86
ED84
EBCA
EFFF
6A09
6800
7A92
6ADB
4659
0401
ENDCHAR
STARTCHAR 2623
ENCODING 9763
SWIDTH 362 0
DWIDTH 16 0
BBX 16 16 0 -2
BITMAP
00CE
FBBC
218C
218C
67DF
618C
798C
F9DE
FBFE
FB9E
7FBF
7DAF
79CC
698C
418C
018C
ENDCHAR
STARTCHAR 2624
ENCODING 9764
SWIDTH 362 0
DWIDTH 16 0
BBX 16 16 0 -2
BITMAP
0060
FD64
21FE
2186
6186
61FC
7D82
EDFF
ED82
EDFF
6C0B
6CBF
7ED3
6A03
407E
000C
ENDCHAR
STARTCHAR 2625
ENCODING 9765
SWIDTH 362 0
DWIDTH 16 0
BBX 16 16 0 -2
BITMAP
1844
1A7E
FE64
1A64
7E44
02C7
FF80
82FE
7E46
FF24
602C
7E38
E618
662C
6647
6783
ENDCHAR
STARTCHAR 2626
ENCODING 9766
SWIDTH 362 0
DWIDTH 16 0
BBX 16 16 0 -2
BITMAP
3006
1006
05FF
7EFE
0DFF
1913
11FE
3992
759E
D410
91FE
1046
103C
1038
106F
1183
ENDCHAR
STARTCHAR 2627
ENCODING 9767
SWIDTH 362 0
DWIDTH 16 0
BBX 16 16 0 -2
BITMAP
3000
11FF
04C6
7EFE
0CC6
18C6
10FE
38C6
75FF
D511
9111
11FF
1111
1111
1133
1103
ENDCHAR
STARTCHAR 2628
ENCODING 9768
SWIDTH 362 0
DWIDTH 16 0
BBX 16 16 0 -2
BITMAP
3006
10FE
0486
7E9E
0C96
19FF
1303
3AFE
7486
D4BE
908E
10FE
10B6
1186
111E
120C
ENDCHAR
STARTCHAR 2629
ENCODING 9769
SWIDTH 362 0
DWIDTH 16 0
BBX 16 16 0 -2
BITMAP
0410
FE1F
1010
11FF
75B2
55FE
55B0
57BE
D7C0
D7E6
91E6
91E6
1166
1366
1267
1400
ENDCHAR
STARTCHAR 262a
ENCODING 9770
SWIDTH 362 0
DWIDTH 16 0
BBX 16 16 0 -2
BITMAP
04C0
FEFF
1183
11FB
74FB
54FB
540B
5606
D682
D6C3
90C2
90C2
10C2
1082
1003
1000
ENDCHAR
STARTCHAR 262b
ENCODING 9771
SWIDTH 362 0
DWIDTH 16 0
BBX 16 16 0 -2
BITMAP
264C
664C
664C
264C
3FFC
318C
3FF8
3188
3FF8
4186
FFFE
4196
5FFE
580E
403E
400C
ENDCHAR
STARTCHAR 262c
ENCODING 9772
SWIDTH 362 0
DWIDTH 16 0
BBX 16 16 0 -2
BITMAP
2644
6644
7E7C
0648
3FFC
366C
31C8
3E78
3FF8
6180
FFFE
41B6
41FE
5E0E
403E
400C
ENDCHAR
STARTCHAR 262d
ENCODING 9773
SWIDTH 362 0
DWIDTH 16 0
BBX 16 16 0 -2
BITMAP
0180
03C0
0C38
300F
DFF3
2D8C
3FFC
25EC
3DFC
4186
FFFE
4196
5FFE
580E
403E
400C
ENDCHAR
STARTCHAR 262e
ENCODING 9774
SWIDTH 362 0
DWIDTH 16 0
BBX 16 16 0 -2
BITMAP
1834
F0DC
31DB
33F3
FEE6
30FE
33BC
7830
7DFF
7383
F2C4
B0BE
31E0
3082
30FE
307E
ENDCHAR
STARTCHAR 262f
ENCODING 9775
SWIDTH 362 0
DWIDTH 16 0
BBX 16 16 0 -2
BITMAP
184C
F1FF
3048
31FE
FCCF
3030
3136
79B6
7DB6
71FE
F1B6
B3FF
3186
3186
319E
3104
ENDCHAR
STARTCHAR 2630
ENCODING 9776
SWIDTH 362 0
DWIDTH 16 0
BBX 16 16 0 -2
BITMAP
1834
F032
33FF
31FF
FD33
31FE
3132
79FE
7D32
7126
F007
B106
3086
3086
303E
300C
ENDCHAR
STARTCHAR 2631
ENCODING 9777
SWIDTH 362 0
DWIDTH 16 0
BBX 16 16 0 -2
BITMAP
1804
F1FE
31B6
31B6
FDB6
31DE
318E
79FC
7C00
73FF
F35B
B35A
335A
335A
33DB
3000
ENDCHAR
STARTCHAR 2632
ENCODING 9778
SWIDTH 362 0
DWIDTH 16 0
BBX 16 16 0 -2
BITMAP
1830
F1B3
3132
33FE
FC02
33FF
3000
79FE
7D86
7186
F186
B106
3086
30CC
3048
33FF
ENDCHAR
STARTCHAR 2633
ENCODING 9779
SWIDTH 362 0
DWIDTH 16 0
BBX 16 16 0 -2
BITMAP
1903
F1BF
317B
31FF
FD7F
31EF
3333
7902
7D80
710E
F138
B1C0
3100
3101
31FF
31FE
ENDCHAR
STARTCHAR 2634
ENCODING 9780
SWIDTH 362 0
DWIDTH 16 0
BBX 16 16 0 -2
BITMAP
1987
F1A6
31FF
337E
FEFE
30DE
3186
7B36
7E30
73FF
F030
B1B4
31B2
3333
3631
3030
ENDCHAR
STARTCHAR 2635
ENCODING 9781
SWIDTH 362 0
DWIDTH 16 0
BBX 16 16 0 -2
BITMAP
1860
F1FF
3183
31FE
FD82
31FE
3162
79FF
7C40
708E
F338
B1E6
3038
31E7
301C
31E0
ENDCHAR
STARTCHAR 2636
ENCODING 9782
SWIDTH 362 0
DWIDTH 16 0
BBX 16 16 0 -2
BITMAP
1E60
7860
1A63
38C3
3C83
7E23
9823
1063
184B
5AFF
7CCF
FF03
5803
5E03
DB3E
900C
ENDCHAR
STARTCHAR 2637
ENCODING 9783
SWIDTH 362 0
DWIDTH 16 0
BBX 16 16 0 -2
BITMAP
184C
FF6C
1846
7EC7
C2FE
C33C
821C
FF77
0083
07FC
3980
FFFF
0180
3998
6187
C103
ENDCHAR
STARTCHAR 2638
ENCODING 9784
SWIDTH 362 0
DWIDTH 16 0
BBX 16 16 0 -2
BITMAP
0300
7FFE
0300
3FFC
0600
FFFF
1808
3007
EE1F
F870
1A32
1838
3C7C
3EF7
D993
1B10
ENDCHAR
STARTCHAR 2639
ENCODING 9785
SWIDTH 362 0
DWIDTH 16 0
BBX 16 16 0 -2
BITMAP
0300
7FFF
C463
983E
303E
0600
3FFC
3FFC
300C
300C
3FF8
3FFC
3C38
63E0
07FF
F80F
ENDCHAR
STARTCHAR 263a
ENCODING 9786
SWIDTH 362 0
DWIDTH 16 0
BBX 16 16 0 -2
BITMAP
0300
7FFF
C463
883E
361E
7FF8
0418
0819
301F
608E
FFC2
7F63
7F36
6F1C
FB3F
43E3
ENDCHAR
STARTCHAR 263b
ENCODING 9787
SWIDTH 362 0
DWIDTH 16 0
BBX 16 16 0 -2
BITMAP
0660
7E7E
0661
FE7F
E53F
4180
7FFF
CC62
B83E
3FF8
300C
300C
3FFC
0C61
307F
E03F
ENDCHAR
STARTCHAR 263c
ENCODING 9788
SWIDTH 362 0
DWIDTH 16 0
BBX 16 16 0 -2
BITMAP
4010
21FF
0430
FC7E
0D66
0D66
8D7E
4D66
497E
7966
7966
1740
3BFF
E0C4
0183
0701
ENDCHAR
STARTCHAR 263d
ENCODING 9789
SWIDTH 362 0
DWIDTH 16 0
BBX 16 16 0 -2
BITMAP
4040
20FE
04C6
FCFC
0C8C
0DFF
8CD8
4DB8
4858
789B
78DE
1418
38FE
E19B
00F9
0030
ENDCHAR
STARTCHAR 263e
ENCODING 9790
SWIDTH 362 0
DWIDTH 16 0
BBX 16 16 0 -2
BITMAP
4180
21FE
0580
FDFE
0CFF
0C42
8D7E
4D7E
4966
797E
7966
1700
3BFF
E0C4
0183
0701
ENDCHAR
STARTCHAR 263f
ENCODING 9791
SWIDTH 362 0
DWIDTH 16 0
BBX 16 16 0 -2
BITMAP
40C2
20FF
05B3
FD7F
0CFB
0C73
8C6F
4D82
49FF
79B3
7BF7
14B7
38FF
E063
00DF
0106
ENDCHAR
STARTCHAR 2640
ENCODING 9792
SWIDTH 362 0
DWIDTH 16 0
BBX 16 16 0 -2
BITMAP
3060
7F7F
4CC8
C704
7FFF
C18B
9B98
0EF0
0C30
181F
FFFF
0818
0670
01C0
0F7F
F00F
ENDCHAR
STARTCHAR 2641
ENCODING 9793
SWIDTH 362 0
DWIDTH 16 0
BBX 16 16 0 -2
BITMAP
3060
3FFF
6CC8
C58C
A060
3043
07FF
C984
531E
17C3
2200
6366
C266
6266
6667
6C23
ENDCHAR
STARTCHAR 2642
ENCODING 9794
SWIDTH 362 0
DWIDTH 16 0
BBX 16 16 0 -2
BITMAP
3060
3FFF
6CC8
C58C
A006
37FF
0606
CEFF
5690
1693
269C
6688
C68C
649E
6CE7
68C3
ENDCHAR
STARTCHAR 2643
ENCODING 9795
SWIDTH 362 0
DWIDTH 16 0
BBX 16 16 0 -2
BITMAP
3060
7F7F
4CC8
8584
018E
1830
0C30
FFFF
0008
3F88
3188
3188
3F88
0008
00F8
0018
ENDCHAR
STARTCHAR 2644
ENCODING 9796
SWIDTH 362 0
DWIDTH 16 0
BBX 16 16 0 -2
BITMAP
3060
7F7F
4CC8
8584
0303
0000
3FFC
300C
3008
3FF8
0182
FFFF
1980
398C
6186
C103
ENDCHAR
STARTCHAR 2645
ENCODING 9797
SWIDTH 362 0
DWIDTH 16 0
BBX 16 16 0 -2
BITMAP
3060
3FFF
6CC8
C58C
C002
7FFF
D006
B3FE
698C
D9FE
11C2
3146
F32C
1218
146F
19C3
ENDCHAR
STARTCHAR 2646
ENCODING 9798
SWIDTH 362 0
DWIDTH 16 0
BBX 16 16 0 -2
BITMAP
3060
3FFF
6CC8
C58C
B00E
307E
3490
F410
79FF
3030
3038
307C
28D7
6D93
4210
8010
ENDCHAR
STARTCHAR 2647
ENCODING 9799
SWIDTH 362 0
DWIDTH 16 0
BBX 16 16 0 -2
BITMAP
3060
7F7F
4CC8
8484
7FFE
3FF6
0006
1FE6
1066
1006
007C
0188
58C6
D80B
DFF9
0FF8
ENDCHAR
STARTCHAR 2648
ENCODING 9800
SWIDTH 362 0
DWIDTH 16 0
BBX 16 16 0 -2
BITMAP
3162
3FFF
4C88
9FF8
0004
7FFE
1818
3FFC
3D86
3FFC
218C
7FFF
318F
300C
200C
2008
ENDCHAR
STARTCHAR 2649
ENCODING 9801
SWIDTH 362 0
DWIDTH 16 0
BBX 16 16 0 -2
BITMAP
3060
3FFF
6CC8
C58C
8C34
0D33
7FA3
0820
FFFF
0020
7F36
613C
6118
7F3D
41C7
0703
ENDCHAR
STARTCHAR 264a
ENCODING 9802
SWIDTH 362 0
DWIDTH 16 0
BBX 16 16 0 -2
BITMAP
3060
3FFF
6CC8
C58C
8102
FFFF
6366
7F6C
6364
6362
7F63
6363
6363
FF6E
C364
0360
ENDCHAR
STARTCHAR 264b
ENCODING 9803
SWIDTH 362 0
DWIDTH 16 0
BBX 16 16 0 -2
BITMAP
3060
3FFF
6CC8
CD9C
981A
7FFE
1818
1818
1FF8
181B
FFFF
6C30
783E
6000
7FFE
3FFE
ENDCHAR
STARTCHAR 264c
ENCODING 9804
SWIDTH 362 0
DWIDTH 16 0
BBX 16 16 0 -2
BITMAP
3060
7F7F
4CC8
8484
06FC
1864
18E4
18F5
FF97
C310
1818
FFFF
1818
1018
3018
6010
ENDCHAR
STARTCHAR 264d
ENCODING 9805
SWIDTH 362 0
DWIDTH 16 0
BBX 16 16 0 -2
BITMAP
3060
7F7F
4CC8
8484
06FC
18C4
18C4
18C5
FF87
C307
0180
FFFF
1980
398C
6186
C103
ENDCHAR
STARTCHAR 264e
ENCODING 9806
SWIDTH 362 0
DWIDTH 16 0
BBX 16 16 0 -2
BITMAP
3060
3FFF
6CC8
C58C
80C0
0CC0
FDFF
CD60
CE62
FC7F
CC60
CC62
CC7E
FC60
C060
0060
ENDCHAR
STARTCHAR 264f
ENCODING 9807
SWIDTH 362 0
DWIDTH 16 0
BBX 16 16 0 -2
BITMAP
3060
3FFF
6CC8
C58C
8480
7EC3
44FF
7D13
5CFB
449B
5CDB
74D3
4403
4403
DC3E
880C
ENDCHAR
STARTCHAR 2650
ENCODING 9808
SWIDTH 362 0
DWIDTH 16 0
BBX 16 16 0 -2
BITMAP
3060
3FFF
6CC8
C58C
8038
1818
181E
1FD6
3186
23DE
C444
3FFC
364C
3648
36CF
0000
ENDCHAR
STARTCHAR 2651
ENCODING 9809
SWIDTH 362 0
DWIDTH 16 0
BBX 16 16 0 -2
BITMAP
3060
7F7F
4CC8
B484
3FFE
3046
5FE6
1FC6
1846
1FC6
007C
000B
FFFF
1808
3006
C003
ENDCHAR
STARTCHAR 2652
ENCODING 9810
SWIDTH 362 0
DWIDTH 16 0
BBX 16 16 0 -2
BITMAP
3060
3FFF
6CC8
C58C
9806
1180
3180
37FF
6102
E3FE
A330
23FF
2460
28CC
3183
2301
ENDCHAR
STARTCHAR 2653
ENCODING 9811
SWIDTH 362 0
DWIDTH 16 0
BBX 16 16 0 -2
BITMAP
0038
0018
1FFA
7FFE
0D98
1FF0
6DF0
765E
1CC6
6180
6040
7FFF
D98C
990C
180C
1808
ENDCHAR
STARTCHAR 2654
ENCODING 9812
SWIDTH 362 0
DWIDTH 16 0
BBX 16 16 0 -2
BITMAP
3030
B430
FFFF
7832
71FF
FDB3
31FE
797A
7932
FD7A
B478
B0FC
31B7
3333
3630
3030
ENDCHAR
STARTCHAR 2655
ENCODING 9813
SWIDTH 362 0
DWIDTH 16 0
BBX 16 16 0 -2
BITMAP
3002
B7FF
FC04
79FE
7186
FD86
31FE
7800
7906
FD33
B532
B1FE
3132
3132
31FE
3102
ENDCHAR
STARTCHAR 2656
ENCODING 9814
SWIDTH 362 0
DWIDTH 16 0
BBX 16 16 0 -2
BITMAP
3102
B5FE
FDB6
79B6
71FE
FDB6
31B6
79FE
7906
FC30
B458
B140
3342
3347
327D
3078
ENDCHAR
STARTCHAR 2657
ENCODING 9815
SWIDTH 362 0
DWIDTH 16 0
BBX 16 16 0 -2
BITMAP
3030
B432
FDFF
7933
71FE
FDFE
3002
79FE
7986
FDBE
B586
B1FE
31E6
3106
333E
360C
ENDCHAR
STARTCHAR 2658
ENCODING 9816
SWIDTH 362 0
DWIDTH 16 0
BBX 16 16 0 -2
BITMAP
3030
B5B3
FD32
7932
73FE
FC00
31FF
7820
7966
FD7B
B57A
B17A
317A
317A
317A
3106
ENDCHAR
STARTCHAR 2659
ENCODING 9817
SWIDTH 362 0
DWIDTH 16 0
BBX 16 16 0 -2
BITMAP
0180
01FC
1188
11CC
11C8
13E8
15C8
1368
1FF8
2188
1998
09A3
FFFF
1998
3186
4102
ENDCHAR
STARTCHAR 265a
ENCODING 9818
SWIDTH 362 0
DWIDTH 16 0
BBX 16 16 0 -2
BITMAP
0190
19B8
0DA6
7FFE
0DB0
398C
6994
7FFC
19B0
19B0
7FFC
1998
FFFF
1198
3198
2110
ENDCHAR
STARTCHAR 265b
ENCODING 9819
SWIDTH 362 0
DWIDTH 16 0
BBX 16 16 0 -2
BITMAP
09D8
05B8
07A2
7FFF
07B0
1D8C
7D96
7FFE
0D90
0D93
FFFF
1998
319F
C187
0180
FFFF
ENDCHAR
STARTCHAR 265c
ENCODING 9820
SWIDTH 362 0
DWIDTH 16 0
BBX 16 16 0 -2
BITMAP
3218
3110
21D3
6330
DB2C
D318
F3DF
737F
5B5B
FB5B
CA5A
0A5A
2E58
A4D1
8FDF
099F
ENDCHAR
STARTCHAR 265d
ENCODING 9821
SWIDTH 362 0
DWIDTH 16 0
BBX 16 16 0 -2
BITMAP
3030
3136
20B4
68B8
4DFF
D820
7020
33FF
6848
FCB4
C133
0BFF
BC30
B430
8030
03FF
ENDCHAR
STARTCHAR 265e
ENCODING 9822
SWIDTH 362 0
DWIDTH 16 0
BBX 16 16 0 -2
BITMAP
310E
319C
2108
6108
DDEE
D78C
F71C
731C
591E
FB3A
CB2B
0BA9
2EC8
A648
8448
0808
ENDCHAR
STARTCHAR 265f
ENCODING 9823
SWIDTH 362 0
DWIDTH 16 0
BBX 16 16 0 -2
BITMAP
3006
3006
2006
69FE
4D80
D902
73FF
310B
69FA
FDFA
C1BA
096A
BD4A
B5FE
803C
0008
ENDCHAR
STARTCHAR 2660
ENCODING 9824
SWIDTH 362 0
DWIDTH 16 0
BBX 16 16 0 -2
BITMAP
3030
3030
2036
683E
4C3C
DBFF
7060
30D0
69DB
FFC3
C282
08FE
BC18
B418
8038
0030
ENDCHAR
STARTCHAR 2661
ENCODING 9825
SWIDTH 362 0
DWIDTH 16 0
BBX 16 16 0 -2
BITMAP
30C4
33DF
2084
687C
4C78
D9FF
707B
307A
69FE
FD78
C37B
097B
BCDB
B4DF
819A
0718
ENDCHAR
STARTCHAR 2662
ENCODING 9826
SWIDTH 362 0
DWIDTH 16 0
BBX 16 16 0 -2
BITMAP
3202
33FF
2327
6B77
4FDF
DBEF
73FF
3397
6B23
FF33
C3F7
0BB7
BFFF
B703
830F
0306
ENDCHAR
STARTCHAR 2663
ENCODING 9827
SWIDTH 362 0
DWIDTH 16 0
BBX 16 16 0 -2
BITMAP
3000
3143
237F
623B
DC9B
D19B
F1DB
733B
5A3B
FE5B
CFFB
0A7F
2A7A
A3F8
8258
0208
ENDCHAR
STARTCHAR 2664
ENCODING 9828
SWIDTH 362 0
DWIDTH 16 0
BBX 16 16 0 -2
BITMAP
30C0
30C4
20FE
698C
4D1B
DBC0
7142
317F
69D8
FD18
C1FF
0910
BF34
B722
8643
0581
ENDCHAR
STARTCHAR 2665
ENCODING 9829
SWIDTH 362 0
DWIDTH 16 0
BBX 16 16 0 -2
BITMAP
30C0
30C0
21FF
6918
4F13
D8D6
7054
31FF
6983
FDBA
C18E
099E
BDF2
B542
831E
0206
ENDCHAR
STARTCHAR 2666
ENCODING 9830
SWIDTH 362 0
DWIDTH 16 0
BBX 16 16 0 -2
BITMAP
3208
3318
23D8
669A
DDFF
D5FB
F5FA
75FA
5FFA
FDD2
C992
099E
2BA7
A2C1
847F
0800
ENDCHAR
STARTCHAR 2667
ENCODING 9831
SWIDTH 362 0
DWIDTH 16 0
BBX 16 16 0 -2
BITMAP
300C
31FE
2030
6833
4FFF
D868
70C6
31CF
6A68
FDFE
C030
0BFF
BC30
B430
8030
0030
ENDCHAR
STARTCHAR 2668
ENCODING 9832
SWIDTH 362 0
DWIDTH 16 0
BBX 16 16 0 -2
BITMAP
3186
31A6
2334
6317
DEFF
D584
F186
7324
5B3C
FF1C
C108
0918
2930
A178
811F
0103
ENDCHAR
STARTCHAR 2669
ENCODING 9833
SWIDTH 362 0
DWIDTH 16 0
BBX 16 16 0 -2
BITMAP
1050
1868
30CC
2086
4D03
DBFF
7186
3986
6D86
FCE4
E420
08F0
BCD2
B6C7
82FD
0279
ENDCHAR
STARTCHAR 266a
ENCODING 9834
SWIDTH 362 0
DWIDTH 16 0
BBX 16 16 0 -2
BITMAP
30F6
31B6
216C
6BFF
4DA4
D8B6
7092
3100
69FE
FDB6
C1B6
09FE
BDB6
B5B6
81B6
0186
ENDCHAR
STARTCHAR 266b
ENCODING 9835
SWIDTH 362 0
DWIDTH 16 0
BBX 16 16 0 -2
BITMAP
0E60
787E
66E6
63BC
621C
7E7F
C388
8318
0720
1CE0
1F90
0C7C
7FC4
3998
398E
6186
ENDCHAR
STARTCHAR 266c
ENCODING 9836
SWIDTH 362 0
DWIDTH 16 0
BBX 16 16 0 -2
BITMAP
0F18
7CDE
0F5E
1C3C
3E38
6B27
8AC3
0600
18E0
1980
0618
7FFC
7994
198C
3186
C182
ENDCHAR
STARTCHAR 266d
ENCODING 9837
SWIDTH 362 0
DWIDTH 16 0
BBX 16 16 0 -2
BITMAP
0300
07F8
1E38
3360
0380
7C30
1826
344C
3E70
1866
36FF
FA99
585E
5ADB
DB9B
B030
ENDCHAR
STARTCHAR 266e
ENCODING 9838
SWIDTH 362 0
DWIDTH 16 0
BBX 16 16 0 -2
BITMAP
00F8
3FC0
0186
1990
1F9E
1998
1996
0180
0182
380C
3FFC
2180
FFFF
218C
318C
200C
ENDCHAR
STARTCHAR 266f
ENCODING 9839
SWIDTH 362 0
DWIDTH 16 0
BBX 16 16 0 -2
BITMAP
4102
41FF
C903
F1FF
A102
2166
3D3E
313C
2124
ED24
A9FF
AB24
AB64
FA64
0644
0484
ENDCHAR
STARTCHAR 2670
ENCODING 9840
SWIDTH 362 0
DWIDTH 16 0
BBX 16 16 0 -2
BITMAP
4084
40FE
CC86
F0FE
B086
3086
3CFC
3003
31FF
F490
B4D6
B490
B590
B570
FF3F
061E
ENDCHAR
STARTCHAR 2671
ENCODING 9841
SWIDTH 362 0
DWIDTH 16 0
BBX 16 16 0 -2
BITMAP
600E
6236
6EF6
6E76
6AD6
210C
0186
1830
0C30
FFFF
0000
1FF8
1018
1018
1FF8
1008
ENDCHAR
STARTCHAR 2672
ENCODING 9842
SWIDTH 362 0
DWIDTH 16 0
BBX 16 16 0 -2
BITMAP
600E
6236
6EF6
6E76
6AD6
200C
35FF
7E63
0862
0062
7C62
0042
7CC2
6C86
6D3E
6A0C
ENDCHAR
STARTCHAR 2673
ENCODING 9843
SWIDTH 362 0
DWIDTH 16 0
BBX 16 16 0 -2
BITMAP
600E
6236
6EF6
6E76
6AD6
200C
7E7E
6646
7E7C
7E7E
3F7F
0000
FFFF
0E38
380E
6006
ENDCHAR
STARTCHAR 2674
ENCODING 9844
SWIDTH 362 0
DWIDTH 16 0
BBX 16 16 0 -2
BITMAP
600E
6236
6EF6
6E76
6AD6
200C
3FFC
318C
3FF8
3188
3FF8
0980
0CC4
4816
CFF3
87F0
ENDCHAR
STARTCHAR 2675
ENCODING 9845
SWIDTH 362 0
DWIDTH 16 0
BBX 16 16 0 -2
BITMAP
4006
431B
4B7A
4632
4F7A
4882
4892
5692
5C92
4AB2
7EBA
58AA
5EAE
5AC2
68FE
4006
ENDCHAR
STARTCHAR 2676
ENCODING 9846
SWIDTH 362 0
DWIDTH 16 0
BBX 16 16 0 -2
BITMAP
600E
6666
6666
7FFC
704C
3F4C
764C
DCCF
1886
30FE
5846
1F4C
3338
CE38
18EF
7387
ENDCHAR
STARTCHAR 2677
ENCODING 9847
SWIDTH 362 0
DWIDTH 16 0
BBX 16 16 0 -2
BITMAP
600E
6186
61C6
6676
5814
7F86
6184
7F84
607F
7F04
6024
7FB4
D614
F784
A69C
440C
ENDCHAR
STARTCHAR 2678
ENCODING 9848
SWIDTH 362 0
DWIDTH 16 0
BBX 16 16 0 -2
BITMAP
600E
6186
61C6
6676
6804
3FFC
318C
318C
3FFC
199B
FDFF
7FFF
0180
3FFC
0180
0100
ENDCHAR
STARTCHAR 2679
ENCODING 9849
SWIDTH 362 0
DWIDTH 16 0
BBX 16 16 0 -2
BITMAP
0180
FFFF
0000
0C30
0FF0
1FFC
3004
3FFC
0460
FC7F
0460
7FFC
0180
FFFF
0180
0100
ENDCHAR
STARTCHAR 267a
ENCODING 9850
SWIDTH 362 0
DWIDTH 16 0
BBX 16 16 0 -2
BITMAP
0C20
4D33
79FF
FF02
3006
3030
7C30
3030
33FF
FC00
3106
3186
2186
6186
41FE
8102
ENDCHAR
STARTCHAR 267b
ENCODING 9851
SWIDTH 362 0
DWIDTH 16 0
BBX 16 16 0 -2
BITMAP
0C04
4DFE
784C
FC30
33FF
307B
7CD8
31F8
3230
FC30
33FF
3030
21B6
6133
4231
8430
ENDCHAR
STARTCHAR 267c
ENCODING 9852
SWIDTH 362 0
DWIDTH 16 0
BBX 16 16 0 -2
BITMAP
0F18
4F18
7B7B
FF18
3319
3359
7F9F
3160
3062
FDFF
3182
31FE
2182
6182
41FE
8102
ENDCHAR
STARTCHAR 267d
ENCODING 9853
SWIDTH 362 0
DWIDTH 16 0
BBX 16 16 0 -2
BITMAP
2260
FF60
3263
32C3
FBA3
7FFF
3203
327B
320B
7603
FA7B
325B
327B
3243
7E1E
2604
ENDCHAR
STARTCHAR 267e
ENCODING 9854
SWIDTH 362 0
DWIDTH 16 0
BBX 16 16 0 -2
BITMAP
2230
FF34
323E
3264
FACF
7EF0
32F0
32FF
32EC
76EC
FAFF
32CC
328E
339A
7F33
2661
ENDCHAR
STARTCHAR 2721
ENCODING 10017
SWIDTH 362 0
DWIDTH 16 0
BBX 16 16 0 -2
BITMAP
4612
667F
2D13
FF93
017F
7177
5513
5513
7533
5577
75DF
7513
5513
D113
F777
2332
ENDCHAR
STARTCHAR 2722
ENCODING 10018
SWIDTH 362 0
DWIDTH 16 0
BBX 16 16 0 -2
BITMAP
8222
EFFF
DA33
EE33
EEBB
FEFF
2C77
6733
B033
FE77
E7BB
6C33
B833
3C33
66FF
C266
ENDCHAR
STARTCHAR 2723
ENCODING 10019
SWIDTH 362 0
DWIDTH 16 0
BBX 16 16 0 -2
BITMAP
0212
7F7F
1813
1813
FF7F
1877
3813
7F13
5B33
5B77
5BDF
5B13
5B13
5B13
7F77
4232
ENDCHAR
STARTCHAR 2724
ENCODING 10020
SWIDTH 362 0
DWIDTH 16 0
BBX 16 16 0 -2
BITMAP
3212
3F7F
2313
6313
7FFF
6C77
EC13
EF13
7E33
7677
7FDF
6613
6613
6F13
69F7
70B2
ENDCHAR
STARTCHAR 2725
ENCODING 10021
SWIDTH 362 0
DWIDTH 16 0
BBX 16 16 0 -2
BITMAP
0606
2366
3236
1A1E
F2E6
5EDE
0704
0106
1FFC
0132
7FFE
0706
1FFE
EFFC
080C
0FFC
ENDCHAR
STARTCHAR 2726
ENCODING 10022
SWIDTH 362 0
DWIDTH 16 0
BBX 16 16 0 -2
BITMAP
0300
3FFC
033A
7FFF
0706
3C00
CFFE
3FFC
3006
3006
3FFC
3FFE
2FE6
2FE6
403E
800C
ENDCHAR
STARTCHAR 2727
ENCODING 10023
SWIDTH 362 0
DWIDTH 16 0
BBX 16 16 0 -2
BITMAP
0382
1806
730C
5F18
5530
5506
5706
570C
0198
1830
7343
5F06
550C
5518
5730
5760
ENDCHAR
STARTCHAR 2728
ENCODING 10024
SWIDTH 362 0
DWIDTH 16 0
BBX 16 16 0 -2
BITMAP
0718
7C5B
405A
415A
7FFE
4000
5F7F
5330
5376
537F
5F5A
D05A
D05A
915A
9F5E
1F46
ENDCHAR
STARTCHAR 2729
ENCODING 10025
SWIDTH 362 0
DWIDTH 16 0
BBX 16 16 0 -2
BITMAP
0718
7C5B
405A
405A
5FFE
5700
577F
5730
5776
5F7F
505A
D05A
D05A
915A
9F5E
1F46
ENDCHAR
STARTCHAR 272a
ENCODING 10026
SWIDTH 362 0
DWIDTH 16 0
BBX 16 16 0 -2
BITMAP
101E
1DF0
7C32
11FF
3436
31FE
11B6
FFFE
31B6
3DB6
75FE
7630
D1FE
9030
1032
11FF
ENDCHAR
STARTCHAR 272b
ENCODING 10027
SWIDTH 362 0
DWIDTH 16 0
BBX 16 16 0 -2
BITMAP
0220
FF30
6DFF
6F03
6CCC
6C86
6D32
6C78
7CCE
6DFF
6F4C
6C28
FC38
CC3C
0CE7
0D82
ENDCHAR
STARTCHAR 272c
ENCODING 10028
SWIDTH 362 0
DWIDTH 16 0
BBX 16 16 0 -2
BITMAP
0498
FF8C
6986
6BFF
6E53
6C54
69FE
6956
7956
695E
698E
7906
F97E
C906
09FE
0904
ENDCHAR
STARTCHAR 272d
ENCODING 10029
SWIDTH 362 0
DWIDTH 16 0
BBX 16 16 0 -2
BITMAP
0580
FD92
79FF
797A
7B7A
7BDA
78DA
78DE
7899
7999
7B1F
7A00
F802
D95B
1B6B
1A01
ENDCHAR
STARTCHAR 272e
ENCODING 10030
SWIDTH 362 0
DWIDTH 16 0
BBX 16 16 0 -2
BITMAP
0100
7FFF
C663
8C7E
301E
7F0E
667E
6630
7E36
6630
7E32
67FF
7E30
F631
063F
041E
ENDCHAR
STARTCHAR 272f
ENCODING 10031
SWIDTH 362 0
DWIDTH 16 0
BBX 16 16 0 -2
BITMAP
180C
1F4C
184C
7F2C
7F38
7F3C
5767
4382
000E
1830
1FF0
1810
1FF0
FFFF
0010
0010
ENDCHAR
STARTCHAR 2730
ENCODING 10032
SWIDTH 362 0
DWIDTH 16 0
BBX 16 16 0 -2
BITMAP
4200
7FFF
4266
7E66
587E
7F66
4866
5D66
677E
4366
7E66
63FF
7E06
6206
6206
6204
ENDCHAR
STARTCHAR 2731
ENCODING 10033
SWIDTH 362 0
DWIDTH 16 0
BBX 16 16 0 -2
BITMAP
0180
3FFC
018F
018C
3FF8
3FF8
FFFF
0184
1FFE
01B2
7FFE
0FFE
380E
CFFC
0C0C
0C0C
ENDCHAR
STARTCHAR 2732
ENCODING 10034
SWIDTH 362 0
DWIDTH 16 0
BBX 16 16 0 -2
BITMAP
18CC
18CC
1AFF
FFCC
DA89
FEAD
E6CF
DA90
DA32
DA7F
FE42
E642
C27E
C242
CE42
C642
ENDCHAR
STARTCHAR 2733
ENCODING 10035
SWIDTH 362 0
DWIDTH 16 0
BBX 16 16 0 -2
BITMAP
0606
0606
7EFE
0606
7E7E
FFFF
3010
3018
36FF
369B
36E7
36DB
269B
66A7
46C3
8C82
ENDCHAR
STARTCHAR 2734
ENCODING 10036
SWIDTH 362 0
DWIDTH 16 0
BBX 16 16 0 -2
BITMAP
1830
7B13
5BFF
5B1E
7B7E
7BFF
5B1E
5B7E
7BDA
7BDB
5BDA
5BDA
DADA
DADA
FEDA
94D6
ENDCHAR
STARTCHAR 2735
ENCODING 10037
SWIDTH 362 0
DWIDTH 16 0
BBX 16 16 0 -2
BITMAP
1884
78CC
58DB
5830
7832
79FE
5830
5BFF
7880
78FE
59B6
5936
DBFF
DA26
FC37
9000
ENDCHAR
STARTCHAR 2736
ENCODING 10038
SWIDTH 362 0
DWIDTH 16 0
BBX 16 16 0 -2
BITMAP
124C
7A4C
5FE8
5A48
5BDF
798B
5FEB
5DEB
7DEB
7FFB
599B
5FFB
D993
D993
F9AE
B164
ENDCHAR
STARTCHAR 2737
ENCODING 10039
SWIDTH 362 0
DWIDTH 16 0
BBX 16 16 0 -2
BITMAP
0806
7C70
48F3
4B3E
68DC
5BBE
48DB
4B98
58F0
79FE
4986
4986
C9FE
C986
B986
9986
ENDCHAR
STARTCHAR 2738
ENCODING 10040
SWIDTH 362 0
DWIDTH 16 0
BBX 16 16 0 -2
BITMAP
0830
7C30
4C63
4CE8
68EC
59B7
4FE3
4F26
5926
79AE
4926
49AE
C924
C821
B83F
981F
ENDCHAR
STARTCHAR 2739
ENCODING 10041
SWIDTH 362 0
DWIDTH 16 0
BBX 16 16 0 -2
BITMAP
0810
7C1F
4810
49FF
6932
59FE
4930
493E
5940
7966
4966
4966
CB66
CB66
BE67
9C00
ENDCHAR
STARTCHAR 273a
ENCODING 10042
SWIDTH 362 0
DWIDTH 16 0
BBX 16 16 0 -2
BITMAP
0993
7DB6
4B26
49B2
6892
59FE
49B6
49FE
59B6
79FE
4833
4878
C87C
C8B7
BB33
9E30
ENDCHAR
STARTCHAR 273b
ENCODING 10043
SWIDTH 362 0
DWIDTH 16 0
BBX 16 16 0 -2
BITMAP
00FC
3FB0
0DB0
1FBC
3FE4
2DD8
1FBC
33A4
FFFF
1008
1FF8
19D8
18F8
1718
3278
6030
ENDCHAR
STARTCHAR 273c
ENCODING 10044
SWIDTH 362 0
DWIDTH 16 0
BBX 16 16 0 -2
BITMAP
1A70
7E60
7F7F
5BE6
7FAC
7F18
5B3E
5E67
1798
1B18
19D8
1878
1FD8
1618
3078
6030
ENDCHAR
STARTCHAR 273d
ENCODING 10045
SWIDTH 362 0
DWIDTH 16 0
BBX 16 16 0 -2
BITMAP
0700
1FFC
100C
1008
1FF8
1FF8
4182
7FFF
C662
0C30
181C
383F
5BD2
9ED0
1ED0
1010
ENDCHAR
STARTCHAR 273e
ENCODING 10046
SWIDTH 362 0
DWIDTH 16 0
BBX 16 16 0 -2
BITMAP
0198
3FFC
0180
3FFC
0182
06D0
3E7E
263E
1C1C
3FFF
CE1A
1FFC
1980
1FF8
0180
FFFF
ENDCHAR
STARTCHAR 273f
ENCODING 10047
SWIDTH 362 0
DWIDTH 16 0
BBX 16 16 0 -2
BITMAP
600E
6006
6006
7E7C
3662
6663
7E7E
4662
7E7E
0A50
0C30
0660
03C0
07E0
1C3F
F00E
ENDCHAR
STARTCHAR 2740
ENCODING 10048
SWIDTH 362 0
DWIDTH 16 0
BBX 16 16 0 -2
BITMAP
01C0
0F80
79BE
6186
7FBE
6186
7FBE
4182
0D80
79BE
6186
7FBE
6186
7FBE
4186
0180
ENDCHAR
STARTCHAR 2741
ENCODING 10049
SWIDTH 362 0
DWIDTH 16 0
BBX 16 16 0 -2
BITMAP
0C00
783E
6406
7E3E
6006
61C6
0580
5D86
61BE
6586
7FBE
6186
7FBE
0181
01FF
00FF
ENDCHAR
STARTCHAR 2742
ENCODING 10050
SWIDTH 362 0
DWIDTH 16 0
BBX 16 16 0 -2
BITMAP
0E04
787E
6204
7E7C
6204
7E7C
0660
0C30
301E
6607
B87C
200C
3E7C
200C
300C
300C
ENDCHAR
STARTCHAR 2743
ENCODING 10051
SWIDTH 362 0
DWIDTH 16 0
BBX 16 16 0 -2
BITMAP
2018
21D3
CD92
CD92
C5FE
C400
C5FF
C430
ECE6
C5AB
C5AA
C5AA
C5AA
FDAA
C1AA
0186
ENDCHAR
STARTCHAR 2744
ENCODING 10052
SWIDTH 362 0
DWIDTH 16 0
BBX 16 16 0 -2
BITMAP
2002
20FE
CC10
CC10
C5FF
C410
C470
C5F7
ED93
C592
C5F2
C5B2
C592
FD92
C1FE
0182
ENDCHAR
STARTCHAR 2745
ENCODING 10053
SWIDTH 362 0
DWIDTH 16 0
BBX 16 16 0 -2
BITMAP
2002
21FF
C592
CF92
C5FE
C592
EDB2
C5B2
C430
EDFF
C423
C463
CC63
CCC3
019E
070C
ENDCHAR
STARTCHAR 2746
ENCODING 10054
SWIDTH 362 0
DWIDTH 16 0
BBX 16 16 0 -2
BITMAP
0602
1EFF
6213
1633
5C33
0823
106E
32C6
4782
427F
4242
4242
4242
4242
7E7E
0042
ENDCHAR
STARTCHAR 2747
ENCODING 10055
SWIDTH 362 0
DWIDTH 16 0
BBX 16 16 0 -2
BITMAP
0484
7CFE
1086
10FE
1086
FE86
10FC
1003
11FF
7E90
44D6
4490
4590
4570
7F3F
461E
ENDCHAR
STARTCHAR 2748
ENCODING 10056
SWIDTH 362 0
DWIDTH 16 0
BBX 16 16 0 -2
BITMAP
0440
7CFE
10C6
10FC
108C
FFFF
1030
1076
10DC
7F38
445C
45BE
446B
44DB
7D78
4030
ENDCHAR
STARTCHAR 2749
ENCODING 10057
SWIDTH 362 0
DWIDTH 16 0
BBX 16 16 0 -2
BITMAP
2302
637E
6318
7F18
637F
7F18
6018
FF9A
087E
6866
6DE6
6C66
687E
D820
8FFF
87FE
ENDCHAR
STARTCHAR 274a
ENCODING 10058
SWIDTH 362 0
DWIDTH 16 0
BBX 16 16 0 -2
BITMAP
311C
299A
7CBF
4C1B
6E5B
7B5B
4C9A
FCBE
C898
69BF
7918
4F1B
CB7F
C918
F998
9918
ENDCHAR
STARTCHAR 274b
ENCODING 10059
SWIDTH 362 0
DWIDTH 16 0
BBX 16 16 0 -2
BITMAP
3030
2936
7DA4
4DFF
6860
7863
4FFF
FCB6
C933
6FFF
79B4
49B4
C9BC
C9BC
F830
9830
ENDCHAR
STARTCHAR 274c
ENCODING 10060
SWIDTH 362 0
DWIDTH 16 0
BBX 16 16 0 -2
BITMAP
3030
2936
7DA4
4DFF
6860
7863
4FFF
FCC6
C963
6E6F
79FE
4858
C8D8
C8F8
F866
9B82
ENDCHAR
STARTCHAR 274d
ENCODING 10061
SWIDTH 362 0
DWIDTH 16 0
BBX 16 16 0 -2
BITMAP
1010
3012
7CFF
4DFF
7C12
5CFE
4C32
FC30
CDFF
7CF0
5DF0
4FF0
CDB0
CF70
FCD0
9B10
ENDCHAR
STARTCHAR 274e
ENCODING 10062
SWIDTH 362 0
DWIDTH 16 0
BBX 16 16 0 -2
BITMAP
3180
618B
7FEF
59EB
79EB
796B
5BEF
FA4A
DC30
7833
7BFF
58BC
D9B6
DB33
FE31
B030
ENDCHAR
STARTCHAR 274f
ENCODING 10063
SWIDTH 362 0
DWIDTH 16 0
BBX 16 16 0 -2
BITMAP
1106
31FE
7D86
4DFE
7D86
5D86
4DFE
FC80
CDFF
7FB3
5FBB
4DEF
CDCF
CDFB
FC1F
9806
ENDCHAR
STARTCHAR 2750
ENCODING 10064
SWIDTH 362 0
DWIDTH 16 0
BBX 16 16 0 -2
BITMAP
0230
FF34
303E
206C
FFDE
ABDB
AB5A
BB5A
AB5A
AB42
BB40
BB40
AB41
AB41
FF7F
827F
ENDCHAR
STARTCHAR 2751
ENCODING 10065
SWIDTH 362 0
DWIDTH 16 0
BBX 16 16 0 -2
BITMAP
3002
3CFE
7E10
487E
DE46
DB7E
DA46
DA7E
DA46
C27E
C068
C0C4
C186
C001
FFFF
7FFF
ENDCHAR
STARTCHAR 2752
ENCODING 10066
SWIDTH 362 0
DWIDTH 16 0
BBX 16 16 0 -2
BITMAP
0E30
F63C
B67E
5448
42DE
FFDB
20DA
FFDA
20DA
7FC2
76C0
56C0
DCC1
9CC1
33FF
617F
ENDCHAR
STARTCHAR 2753
ENCODING 10067
SWIDTH 362 0
DWIDTH 16 0
BBX 16 16 0 -2
BITMAP
0990
1998
0FF0
1918
7B5E
7A5E
7EFE
3010
5FFC
0608
18F8
7030
7F7F
3333
6F6F
C6C6
ENDCHAR
STARTCHAR 2754
ENCODING 10068
SWIDTH 362 0
DWIDTH 16 0
BBX 16 16 0 -2
BITMAP
1810
FF7F
1B10
0180
7FFF
C003
C180
33FE
3246
326C
322C
3238
3218
FA3C
0267
03C3
ENDCHAR
STARTCHAR 2755
ENCODING 10069
SWIDTH 362 0
DWIDTH 16 0
BBX 16 16 0 -2
BITMAP
1810
FF7F
1810
3070
C5EC
69E3
1B6C
367C
6070
23C0
3E10
0C1B
FE7F
0818
1018
6010
ENDCHAR
STARTCHAR 2756
ENCODING 10070
SWIDTH 362 0
DWIDTH 16 0
BBX 16 16 0 -2
BITMAP
1810
FF7F
1B10
0182
7FFE
0630
FFFF
0182
7FFE
0100
0180
FFFF
0980
1998
6186
C102
ENDCHAR
STARTCHAR 2757
ENCODING 10071
SWIDTH 362 0
DWIDTH 16 0
BBX 16 16 0 -2
BITMAP
1810
FF7F
1810
0182
7FFF
0FF8
1818
4803
FFFF
DFF2
0108
7F00
03FE
0301
01FF
00FF
ENDCHAR
STARTCHAR 2758
ENCODING 10072
SWIDTH 362 0
DWIDTH 16 0
BBX 16 16 0 -2
BITMAP
1810
FF7F
1890
00C0
3FFF
3190
F198
7598
35FA
3598
F598
B598
6599
45FB
CF9F
8C00
ENDCHAR
STARTCHAR 2759
ENCODING 10073
SWIDTH 362 0
DWIDTH 16 0
BBX 16 16 0 -2
BITMAP
1810
FF7F
1810
0330
2DF0
2CE6
6F8B
3FF8
E7F0
018C
1FFC
118C
1FFC
0186
7FFF
7001
ENDCHAR
STARTCHAR 275a
ENCODING 10074
SWIDTH 362 0
DWIDTH 16 0
BBX 16 16 0 -2
BITMAP
1810
FF7F
1810
0243
FE7F
0662
7E7E
7E7E
0460
1860
6C50
0C1B
FE7F
0818
1018
6010
ENDCHAR
STARTCHAR 275b
ENCODING 10075
SWIDTH 362 0
DWIDTH 16 0
BBX 16 16 0 -2
BITMAP
1810
FF7F
1810
0020
1C30
7F20
1863
FFE6
83C6
0EA6
082C
1E3C
F818
583C
7867
1183
ENDCHAR
STARTCHAR 275c
ENCODING 10076
SWIDTH 362 0
DWIDTH 16 0
BBX 16 16 0 -2
BITMAP
1810
FEFF
1810
1004
18BE
1AF4
FEB4
18B4
1AB4
00B4
46B4
66B6
66AE
67CE
7F77
4241
ENDCHAR
STARTCHAR 275d
ENCODING 10077
SWIDTH 362 0
DWIDTH 16 0
BBX 16 16 0 -2
BITMAP
1810
FF7F
1810
0050
004C
7FFF
2360
3366
3F66
0024
7F2C
3F3C
0C38
7E39
606F
0183
ENDCHAR
STARTCHAR 275e
ENCODING 10078
SWIDTH 362 0
DWIDTH 16 0
BBX 16 16 0 -2
BITMAP
1810
FF7F
1810
7FFE
0600
3FF8
061B
0000
7FFE
0610
3FF8
FFFF
0000
1FF8
1018
1018
ENDCHAR
STARTCHAR 275f
ENCODING 10079
SWIDTH 362 0
DWIDTH 16 0
BBX 16 16 0 -2
BITMAP
1810
FF7F
1810
7FFE
0600
3FF8
061B
0000
1FF8
1018
1FF8
0C18
FE7F
0818
1018
6010
ENDCHAR
STARTCHAR 2760
ENCODING 10080
SWIDTH 362 0
DWIDTH 16 0
BBX 16 16 0 -2
BITMAP
1810
FF7F
1810
0816
7F86
0036
7F36
6336
7F36
0036
7FB6
49B6
7FB6
4986
7F9E
410C
ENDCHAR
STARTCHAR 2761
ENCODING 10081
SWIDTH 362 0
DWIDTH 16 0
BBX 16 16 0 -2
BITMAP
1810
FF7F
1810
0460
0C66
0C60
0C63
0180
3FFC
318C
3FF8
0184
3FFC
1FFC
0180
FFFF
ENDCHAR
STARTCHAR 2762
ENCODING 10082
SWIDTH 362 0
DWIDTH 16 0
BBX 16 16 0 -2
BITMAP
1810
FF7F
1810
7FFE
6000
7FFC
6002
6CCC
6C78
4F1F
C41F
0C18
7E7F
0818
1018
6010
ENDCHAR
STARTCHAR 2763
ENCODING 10083
SWIDTH 362 0
DWIDTH 16 0
BBX 16 16 0 -2
BITMAP
1810
FF7F
1810
7FFF
0C30
1C1C
3FFF
C180
3FFC
318C
3FF8
0184
3FFC
1FFC
0180
FFFF
ENDCHAR
STARTCHAR 2764
ENCODING 10084
SWIDTH 362 0
DWIDTH 16 0
BBX 16 16 0 -2
BITMAP
1810
FF7F
1810
0812
7FFE
0C38
380F
701B
9018
1C78
1C1C
318F
618A
0180
0180
FFFF
ENDCHAR
STARTCHAR 2765
ENCODING 10085
SWIDTH 362 0
DWIDTH 16 0
BBX 16 16 0 -2
BITMAP
1810
FF7F
1810
4006
7FFE
69B6
6DE6
63C6
6636
7D96
6DB6
67E6
6676
6C3E
781E
6006
ENDCHAR
STARTCHAR 2766
ENCODING 10086
SWIDTH 362 0
DWIDTH 16 0
BBX 16 16 0 -2
BITMAP
1810
FF7F
1810
3FFC
300C
3008
3FF8
0660
3FFC
218C
3FF8
7FFE
0786
0D9E
398C
4100
ENDCHAR
STARTCHAR 2767
ENCODING 10087
SWIDTH 362 0
DWIDTH 16 0
BBX 16 16 0 -2
BITMAP
1810
FF7F
1810
3FFC
200C
3FFC
300C
3190
199A
1998
7FFE
1998
7FFC
FFFF
0180
0100
ENDCHAR
STARTCHAR 2768
ENCODING 10088
SWIDTH 362 0
DWIDTH 16 0
BBX 16 16 0 -2
BITMAP
1810
7F7F
1810
3FFC
300C
3FF8
3008
3708
0603
0D18
198C
3997
CFF0
0670
181F
700F
ENDCHAR
STARTCHAR 2769
ENCODING 10089
SWIDTH 362 0
DWIDTH 16 0
BBX 16 16 0 -2
BITMAP
1810
FF7F
1810
0106
4DFE
4D86
4DFE
4D86
4DFE
4C02
4DFE
4C30
4FFF
4C30
0030
0030
ENDCHAR
STARTCHAR 276a
ENCODING 10090
SWIDTH 362 0
DWIDTH 16 0
BBX 16 16 0 -2
BITMAP
1810
FF7F
1810
0018
0010
FDFF
D410
D413
D5FF
FC04
D5FF
D484
FC44
C404
007C
0008
ENDCHAR
STARTCHAR 276b
ENCODING 10091
SWIDTH 362 0
DWIDTH 16 0
BBX 16 16 0 -2
BITMAP
1810
FF7F
1910
0180
7FFC
6184
7FFC
0183
FFFF
7FFC
6004
67E4
6464
6464
600C
600C
ENDCHAR
STARTCHAR 276c
ENCODING 10092
SWIDTH 362 0
DWIDTH 16 0
BBX 16 16 0 -2
BITMAP
1810
FF7F
1810
0060
3066
1060
01FE
7906
39F6
2936
7DF6
1906
31FE
7800
47FF
01FC
ENDCHAR
STARTCHAR 276d
ENCODING 10093
SWIDTH 362 0
DWIDTH 16 0
BBX 16 16 0 -2
BITMAP
1810
FF7F
1890
0184
21FE
7FFF
630A
6300
63FC
6000
67F8
6418
67F8
47F8
C000
FFFF
ENDCHAR
STARTCHAR 276e
ENCODING 10094
SWIDTH 362 0
DWIDTH 16 0
BBX 16 16 0 -2
BITMAP
1810
FF7F
1890
0184
21FE
7FFF
630A
6300
63FC
6700
660C
6F6C
73EC
46F8
CDBF
8632
ENDCHAR
STARTCHAR 276f
ENCODING 10095
SWIDTH 362 0
DWIDTH 16 0
BBX 16 16 0 -2
BITMAP
0660
7E7F
0660
3FFC
364C
3FF8
0002
FFFF
C342
0226
7FFE
0318
01B0
01E0
03FF
7C1F
ENDCHAR
STARTCHAR 2770
ENCODING 10096
SWIDTH 362 0
DWIDTH 16 0
BBX 16 16 0 -2
BITMAP
0660
FE7F
0660
7FFC
6664
6664
7FFC
18D8
18C8
30FF
37C0
704C
F078
3031
30CF
3707
ENDCHAR
STARTCHAR 2771
ENCODING 10097
SWIDTH 362 0
DWIDTH 16 0
BBX 16 16 0 -2
BITMAP
1810
FF7F
1810
1FFC
166C
13C8
13E8
1668
3FF8
2180
3FFC
218C
3FFC
0184
FFFE
6003
ENDCHAR
STARTCHAR 2772
ENCODING 10098
SWIDTH 362 0
DWIDTH 16 0
BBX 16 16 0 -2
BITMAP
1810
FF7F
1810
1800
1F7E
7846
7F46
7E47
8C63
187F
E000
0C30
0C33
0C30
1830
7030
ENDCHAR
STARTCHAR 2773
ENCODING 10099
SWIDTH 362 0
DWIDTH 16 0
BBX 16 16 0 -2
BITMAP
1810
FF7F
1810
01C0
6186
7FFE
1980
18C6
3FFE
7084
FFFE
3084
3FFE
3080
3FFF
3000
ENDCHAR
STARTCHAR 2774
ENCODING 10100
SWIDTH 362 0
DWIDTH 16 0
BBX 16 16 0 -2
BITMAP
1810
FF7F
1810
30CC
27DE
A8DF
ABDE
AA1E
AEDE
FBDE
22CC
27CC
654C
4ACC
47CC
818C
ENDCHAR
STARTCHAR 2775
ENCODING 10101
SWIDTH 362 0
DWIDTH 16 0
BBX 16 16 0 -2
BITMAP
1810
FF7F
1810
0610
661A
66D6
7E7C
052C
0DC7
33C2
CD30
199F
7FF7
C180
0186
7FFE
ENDCHAR
STARTCHAR 2776
ENCODING 10102
SWIDTH 362 0
DWIDTH 16 0
BBX 16 16 0 -2
BITMAP
1810
FF7F
1810
0078
1FF8
1198
0D90
7FFE
07E0
0FB8
398E
6086
0DC0
485E
CFF3
87F1
ENDCHAR
STARTCHAR 2777
ENCODING 10103
SWIDTH 362 0
DWIDTH 16 0
BBX 16 16 0 -2
BITMAP
1810
FEFF
1810
0004
1EBE
78F4
18B4
1AB4
FEB4
18B4
5EB4
66B6
66AA
67CF
7F77
4241
ENDCHAR
STARTCHAR 2778
ENCODING 10104
SWIDTH 362 0
DWIDTH 16 0
BBX 16 16 0 -2
BITMAP
1810
FF7F
1830
0030
7C32
6FFF
6B02
7804
69FC
6802
7BFF
68D8
48D8
4999
BB1F
9E0F
ENDCHAR
STARTCHAR 2779
ENCODING 10105
SWIDTH 362 0
DWIDTH 16 0
BBX 16 16 0 -2
BITMAP
1810
FF7F
1810
0810
7CC8
4CC6
4983
7BFF
4986
4986
79FE
4878
4858
48D9
C99F
9B0F
ENDCHAR
STARTCHAR 277a
ENCODING 10106
SWIDTH 362 0
DWIDTH 16 0
BBX 16 16 0 -2
BITMAP
1C18
1A13
FE7F
1810
40C0
33FC
0304
13FC
7B04
33FC
7C60
1FFF
1060
3060
FE63
03FE
ENDCHAR
STARTCHAR 277b
ENCODING 10107
SWIDTH 362 0
DWIDTH 16 0
BBX 16 16 0 -2
BITMAP
1810
FF7F
1810
0830
4C30
4BFF
4844
798E
43F3
4931
7C30
4FFF
49B4
C9B7
8B33
8830
ENDCHAR
STARTCHAR 277c
ENCODING 10108
SWIDTH 362 0
DWIDTH 16 0
BBX 16 16 0 -2
BITMAP
1810
FF7F
1810
1000
1BFC
1364
33FC
6364
63FC
A460
2FFF
266B
27FE
2786
260E
2406
ENDCHAR
STARTCHAR 277d
ENCODING 10109
SWIDTH 362 0
DWIDTH 16 0
BBX 16 16 0 -2
BITMAP
1810
FF7F
1910
0182
FFFE
3188
3FF9
01FF
00FE
1FF8
1018
1018
1FF8
FFFF
181C
6006
ENDCHAR
STARTCHAR 277e
ENCODING 10110
SWIDTH 362 0
DWIDTH 16 0
BBX 16 16 0 -2
BITMAP
1810
FF7F
1810
0020
D830
71FF
7036
D830
99FF
3802
69FE
C9FE
8986
19FE
7906
3606
ENDCHAR
STARTCHAR 2821
ENCODING 10273
SWIDTH 362 0
DWIDTH 16 0
BBX 16 16 0 -2
BITMAP
1810
FF7F
1810
0060
18E0
18D0
310C
73FF
6C02
A7FB
26DA
26D4
27D4
265A
25CB
28CA
ENDCHAR
STARTCHAR 2822
ENCODING 10274
SWIDTH 362 0
DWIDTH 16 0
BBX 16 16 0 -2
BITMAP
1810
FF7F
1810
1002
31FF
3103
2D7A
495A
F15A
2D32
4F32
FF32
454E
B786
9302
8102
ENDCHAR
STARTCHAR 2823
ENCODING 10275
SWIDTH 362 0
DWIDTH 16 0
BBX 16 16 0 -2
BITMAP
1810
FF7F
1990
03E0
0C3C
3FFF
C180
7FFF
09B0
399C
6786
1918
181B
1818
3018
C010
ENDCHAR
STARTCHAR 2824
ENCODING 10276
SWIDTH 362 0
DWIDTH 16 0
BBX 16 16 0 -2
BITMAP
1810
FF7F
1810
1810
3182
215F
4160
9FE0
311F
2766
6546
E546
6D46
6D66
691E
610C
ENDCHAR
STARTCHAR 2825
ENCODING 10277
SWIDTH 362 0
DWIDTH 16 0
BBX 16 16 0 -2
BITMAP
1810
FF7F
1810
01C0
20C3
60C0
63E0
6F5E
6C46
6F5E
6CC6
6FFC
61B0
431C
CE0F
9802
ENDCHAR
STARTCHAR 2826
ENCODING 10278
SWIDTH 362 0
DWIDTH 16 0
BBX 16 16 0 -2
BITMAP
0C00
0F7C
0F64
7FE4
49E4
5F64
4F64
4164
5F64
5F64
5364
5F64
D344
CAC5
BF87
B187
ENDCHAR
STARTCHAR 2827
ENCODING 10279
SWIDTH 362 0
DWIDTH 16 0
BBX 16 16 0 -2
BITMAP
0E18
0B1F
0918
FFFF
08DA
78FE
6BD8
6ADE
FACE
6AF4
6EF4
EEF4
AEF5
0EA7
13E7
21C0
ENDCHAR
STARTCHAR 2828
ENCODING 10280
SWIDTH 362 0
DWIDTH 16 0
BBX 16 16 0 -2
BITMAP
0180
01FC
2303
6303
7FFE
61FC
61FC
666C
6CCE
6CDC
666C
67FC
6444
47FC
C4CC
840C
ENDCHAR
STARTCHAR 2829
ENCODING 10281
SWIDTH 362 0
DWIDTH 16 0
BBX 16 16 0 -2
BITMAP
10C0
30C2
69FE
ED4C
EA38
683C
68CF
6B86
01FC
7FFE
6306
6300
61FC
6631
4C3F
B81E
ENDCHAR
STARTCHAR 282a
ENCODING 10282
SWIDTH 362 0
DWIDTH 16 0
BBX 16 16 0 -2
BITMAP
3020
3132
33FF
3202
FDFE
B460
B448
B484
FDFE
FDB2
3034
39FE
3C30
FC30
C433
0000
ENDCHAR
STARTCHAR 282b
ENCODING 10283
SWIDTH 362 0
DWIDTH 16 0
BBX 16 16 0 -2
BITMAP
3020
3033
33FF
30CC
FC4A
B7FF
B732
B430
FDFE
FDB6
31B6
39B6
3DB6
FDBE
C534
0030
ENDCHAR
STARTCHAR 282c
ENCODING 10284
SWIDTH 362 0
DWIDTH 16 0
BBX 16 16 0 -2
BITMAP
300E
300E
3078
31FF
FD33
B5FE
B532
B532
FD36
FD72
3066
3863
3CC2
FC86
C53E
060C
ENDCHAR
STARTCHAR 282d
ENCODING 10285
SWIDTH 362 0
DWIDTH 16 0
BBX 16 16 0 -2
BITMAP
3003
30FB
3082
30FA
FC82
B4FA
B482
B5FE
FD00
FD0C
317E
3904
3D7C
FF04
C77C
0600
ENDCHAR
STARTCHAR 282e
ENCODING 10286
SWIDTH 362 0
DWIDTH 16 0
BBX 16 16 0 -2
BITMAP
3030
3030
303B
3036
FC24
B43B
B7FF
B426
FC43
FCFE
31C2
3AC2
3CFE
FCC2
C4C2
00C2
ENDCHAR
STARTCHAR 282f
ENCODING 10287
SWIDTH 362 0
DWIDTH 16 0
BBX 16 16 0 -2
BITMAP
300C
37D8
231C
2B14
FBF6
AAE3
AECD
AED8
FFB6
F1AC
2198
3133
2B46
FA0C
CC18
0060
ENDCHAR
STARTCHAR 2830
ENCODING 10288
SWIDTH 362 0
DWIDTH 16 0
BBX 16 16 0 -2
BITMAP
3002
33FF
2020
287C
FB4F
AB4B
AB7B
AB4B
FB4B
FB7B
234B
334B
2B7B
FF03
C3FF
0302
ENDCHAR
STARTCHAR 2831
ENCODING 10289
SWIDTH 362 0
DWIDTH 16 0
BBX 16 16 0 -2
BITMAP
3018
301B
201B
2BFF
FB18
AB38
ABFB
AB3B
FBFA
FBAE
23AC
33EC
2B0C
FE1F
C633
0441
ENDCHAR
STARTCHAR 2832
ENCODING 10290
SWIDTH 362 0
DWIDTH 16 0
BBX 16 16 0 -2
BITMAP
3002
33FF
2370
2B64
FB67
AB66
AB66
AB7C
FB7E
A376
32DB
3AD6
3E9D
E791
051F
0200
ENDCHAR
STARTCHAR 2833
ENCODING 10291
SWIDTH 362 0
DWIDTH 16 0
BBX 16 16 0 -2
BITMAP
3030
3030
23FF
28C8
F9B6
AB33
AEFC
A830
F8B4
F986
21C7
3186
2986
FD06
C306
0604
ENDCHAR
STARTCHAR 2834
ENCODING 10292
SWIDTH 362 0
DWIDTH 16 0
BBX 16 16 0 -2
BITMAP
3102
31FF
2132
2932
FDFE
A932
A932
A9FE
F902
F830
20D8
30C2
2AC3
FEC5
C2FD
0078
ENDCHAR
STARTCHAR 2835
ENCODING 10293
SWIDTH 362 0
DWIDTH 16 0
BBX 16 16 0 -2
BITMAP
3042
31FF
317A
31DE
FC02
B5FE
B4C0
B7FF
FC80
FD86
31FE
3806
3C06
FC06
C47C
0018
ENDCHAR
STARTCHAR 2836
ENCODING 10294
SWIDTH 362 0
DWIDTH 16 0
BBX 16 16 0 -2
BITMAP
3102
31FF
3132
31FE
FD32
B532
B5FE
B430
FC48
FCCE
33CF
3EC9
3C88
FD88
C508
0608
ENDCHAR
STARTCHAR 2837
ENCODING 10295
SWIDTH 362 0
DWIDTH 16 0
BBX 16 16 0 -2
BITMAP
3000
303F
21A1
29A1
F9AD
AB3D
ABBD
AAFD
F8BD
FCA1
23A1
33BF
29A0
FFC0
C67F
043E
ENDCHAR
STARTCHAR 2838
ENCODING 10296
SWIDTH 362 0
DWIDTH 16 0
BBX 16 16 0 -2
BITMAP
30C6
30C4
31EF
30C4
FC30
B430
B422
B7FF
FC40
FCC6
30FE
39C6
3F46
FE46
C07E
0042
ENDCHAR
STARTCHAR 2839
ENCODING 10297
SWIDTH 362 0
DWIDTH 16 0
BBX 16 16 0 -2
BITMAP
33F3
32A3
27EF
2AAB
F80B
AFFB
A90B
A9EB
FB6B
FB6B
27EB
24CB
38C3
F983
C30F
0C06
ENDCHAR
STARTCHAR 283a
ENCODING 10298
SWIDTH 362 0
DWIDTH 16 0
BBX 16 16 0 -2
BITMAP
3180
3167
2320
2A10
FDD0
A97F
AB36
AE36
FE26
FA26
2266
32C6
2A46
FA66
C26E
022C
ENDCHAR
STARTCHAR 283b
ENCODING 10299
SWIDTH 362 0
DWIDTH 16 0
BBX 16 16 0 -2
BITMAP
0130
05A0
2476
27F3
63F0
1E18
0FFC
0300
7FFE
0998
199F
799F
9998
118C
01FE
FC02
ENDCHAR
STARTCHAR 283c
ENCODING 10300
SWIDTH 362 0
DWIDTH 16 0
BBX 16 16 0 -2
BITMAP
0180
0182
7FFE
1FF8
1018
1FF8
4003
CE63
8D62
31BE
7188
318C
3188
318C
01FE
FC02
ENDCHAR
STARTCHAR 283d
ENCODING 10301
SWIDTH 362 0
DWIDTH 16 0
BBX 16 16 0 -2
BITMAP
460E
6606
7EFE
6004
7EFE
604C
7E38
606F
4186
2180
3FFC
218C
3FFC
0184
FFFE
6003
ENDCHAR
STARTCHAR 283e
ENCODING 10302
SWIDTH 362 0
DWIDTH 16 0
BBX 16 16 0 -2
BITMAP
0604
7E7E
6666
7E7E
6344
0300
7FFE
0D30
199C
3FFF
F99A
1998
1FF8
0184
FFFE
6002
ENDCHAR
STARTCHAR 283f
ENCODING 10303
SWIDTH 362 0
DWIDTH 16 0
BBX 16 16 0 -2
BITMAP
1A10
FF7F
1810
1FF8
0760
7FFE
0386
068C
1B80
6080
0184
3FFE
318C
318C
01FE
7C03
ENDCHAR
STARTCHAR 2840
ENCODING 10304
SWIDTH 362 0
DWIDTH 16 0
BBX 16 16 0 -2
BITMAP
1810
FF7F
1810
1018
1FFC
1188
1FF8
1188
1FF8
0180
3FFC
3184
3FFC
0186
7FFF
6001
ENDCHAR
STARTCHAR 2841
ENCODING 10305
SWIDTH 362 0
DWIDTH 16 0
BBX 16 16 0 -2
BITMAP
0C1C
78D8
1C78
7E18
38D8
3E58
7A1A
5818
1918
2188
3FFC
218C
3FFC
0184
FFFE
6003
ENDCHAR
STARTCHAR 2842
ENCODING 10306
SWIDTH 362 0
DWIDTH 16 0
BBX 16 16 0 -2
BITMAP
0400
0FE0
0FC0
7FFC
0F98
73F0
1CF0
67DE
3CC6
0380
0180
3FFC
218C
3FFC
01FE
FC02
ENDCHAR
STARTCHAR 2843
ENCODING 10307
SWIDTH 362 0
DWIDTH 16 0
BBX 16 16 0 -2
BITMAP
3018
2C10
7EB6
7DB3
4192
7D92
459E
7C92
4110
2180
3FFC
218C
3FFC
0184
FFFE
6003
ENDCHAR
STARTCHAR 2844
ENCODING 10308
SWIDTH 362 0
DWIDTH 16 0
BBX 16 16 0 -2
BITMAP
1806
1060
37FC
67FC
E66C
22CC
21C0
233E
2F0E
0180
3FFC
218C
3FFC
0184
FFFE
6003
ENDCHAR
STARTCHAR 2845
ENCODING 10309
SWIDTH 362 0
DWIDTH 16 0
BBX 16 16 0 -2
BITMAP
0180
6083
7FFF
6618
6D18
6FFF
6F7A
777E
661A
6CFF
7041
6040
6FFE
4040
C042
9FFF
ENDCHAR
STARTCHAR 2846
ENCODING 10310
SWIDTH 362 0
DWIDTH 16 0
BBX 16 16 0 -2
BITMAP
0700
0600
0FF0
0C30
1260
21C0
0770
1C3F
781F
D818
7F7E
7B5E
7E7E
1A1A
FFFF
41C1
ENDCHAR
STARTCHAR 2847
ENCODING 10311
SWIDTH 362 0
DWIDTH 16 0
BBX 16 16 0 -2
BITMAP
4E86
46D8
7E98
4792
7DFE
4479
5E5B
728F
4106
0188
3FFC
318C
3FF8
0188
7FFE
6002
ENDCHAR
STARTCHAR 2848
ENCODING 10312
SWIDTH 362 0
DWIDTH 16 0
BBX 16 16 0 -2
BITMAP
0066
1866
1067
3066
7E66
6E66
6E66
6E66
6E67
6EFC
6E94
7EB6
F8E7
40C0
00FF
007F
ENDCHAR
STARTCHAR 2849
ENCODING 10313
SWIDTH 362 0
DWIDTH 16 0
BBX 16 16 0 -2
BITMAP
0082
19FF
1192
3192
7FFE
6F92
6F92
6FFE
6FA2
6E18
6E68
7F62
F963
4367
007D
003C
ENDCHAR
STARTCHAR 284a
ENCODING 10314
SWIDTH 362 0
DWIDTH 16 0
BBX 16 16 0 -2
BITMAP
0C30
1836
31FE
4FFF
1836
31FE
4632
0C30
31FF
6630
8638
3FFC
3648
3648
3648
FFFF
ENDCHAR
STARTCHAR 284b
ENCODING 10315
SWIDTH 362 0
DWIDTH 16 0
BBX 16 16 0 -2
BITMAP
1806
7F04
18FF
FF64
1834
7F04
180C
FC1C
C300
0183
FFFF
0CCC
1C70
6F38
8E1F
0C06
ENDCHAR
STARTCHAR 284c
ENCODING 10316
SWIDTH 362 0
DWIDTH 16 0
BBX 16 16 0 -2
BITMAP
0C70
7FE8
086C
7FE6
6960
4F60
0F63
1860
0CA4
FFA6
19BC
373C
F318
3DBD
30EF
0387
ENDCHAR
STARTCHAR 284d
ENCODING 10317
SWIDTH 362 0
DWIDTH 16 0
BBX 16 16 0 -2
BITMAP
1818
7B5E
7ADE
5A5E
3018
5FF8
1018
1FF8
0100
0183
FFFF
0CCC
1C70
6F38
8E1F
0C06
ENDCHAR
STARTCHAR 284e
ENCODING 10318
SWIDTH 362 0
DWIDTH 16 0
BBX 16 16 0 -2
BITMAP
0600
3FFC
218C
27EC
21AC
218C
27EC
218C
2FEC
2188
FFFF
06CC
1C78
3D30
CE1F
0407
ENDCHAR
STARTCHAR 284f
ENCODING 10319
SWIDTH 362 0
DWIDTH 16 0
BBX 16 16 0 -2
BITMAP
0180
7FFF
0430
222C
3FFE
2C7C
3FFC
3664
27EC
201C
030C
06CC
0C70
3DB8
CE0F
0C07
ENDCHAR
STARTCHAR 2850
ENCODING 10320
SWIDTH 362 0
DWIDTH 16 0
BBX 16 16 0 -2
BITMAP
0100
7FFF
0800
187E
FF7E
7F6E
63DE
7E9E
4184
0183
FFFF
06CC
0C70
3DB8
CE0F
0C07
ENDCHAR
STARTCHAR 2851
ENCODING 10321
SWIDTH 362 0
DWIDTH 16 0
BBX 16 16 0 -2
BITMAP
2020
3133
0BFF
7E02
0806
1830
3430
3C30
7BFF
FC00
B506
3186
3186
3186
31FE
3100
ENDCHAR
STARTCHAR 2852
ENCODING 10322
SWIDTH 362 0
DWIDTH 16 0
BBX 16 16 0 -2
BITMAP
2060
3022
09FE
7C4C
0886
19FF
37F3
3C30
79B6
FDB6
B5B6
31B6
31B6
3186
319E
3104
ENDCHAR
STARTCHAR 2853
ENCODING 10323
SWIDTH 362 0
DWIDTH 16 0
BBX 16 16 0 -2
BITMAP
6018
201E
181A
7FFF
1818
13FB
399B
399A
73FE
FB1E
AB5C
266C
241D
203D
2067
21C3
ENDCHAR
STARTCHAR 2854
ENCODING 10324
SWIDTH 362 0
DWIDTH 16 0
BBX 16 16 0 -2
BITMAP
2102
31FF
0903
7DFF
0900
1903
37FF
3F24
7946
FDFF
B758
331A
337E
3218
3618
34FF
ENDCHAR
STARTCHAR 2855
ENCODING 10325
SWIDTH 362 0
DWIDTH 16 0
BBX 16 16 0 -2
BITMAP
2002
37FF
0880
7DB0
09F0
183F
37F3
3EFA
7ABE
FEB6
B7B6
303F
31F9
3040
3003
3000
ENDCHAR
STARTCHAR 2856
ENCODING 10326
SWIDTH 362 0
DWIDTH 16 0
BBX 16 16 0 -2
BITMAP
2002
31FF
0903
7D7F
0903
197F
3400
3DFE
7986
FD86
B5FE
3186
31FE
3186
3186
3186
ENDCHAR
STARTCHAR 2857
ENCODING 10327
SWIDTH 362 0
DWIDTH 16 0
BBX 16 16 0 -2
BITMAP
2010
301F
0810
7DFF
0932
19FE
3730
3F3E
7930
FD24
B57E
3164
311C
331C
326F
37C3
ENDCHAR
STARTCHAR 2858
ENCODING 10328
SWIDTH 362 0
DWIDTH 16 0
BBX 16 16 0 -2
BITMAP
21C0
3183
09FF
7DEB
0A7B
187B
34FF
3FA7
784E
FC24
B438
30DA
31C3
33C5
32FD
307C
ENDCHAR
STARTCHAR 2859
ENCODING 10329
SWIDTH 362 0
DWIDTH 16 0
BBX 16 16 0 -2
BITMAP
21C0
3180
09FF
7E00
0A30
1B37
37B7
3FFB
7B73
FF7B
B7FF
33B7
3373
3323
3303
3303
ENDCHAR
STARTCHAR 285a
ENCODING 10330
SWIDTH 362 0
DWIDTH 16 0
BBX 16 16 0 -2
BITMAP
2030
3030
0868
7CCC
0987
1BFF
3680
3CFC
78CC
FCC0
B7FF
3060
30C8
3086
33FE
3182
ENDCHAR
STARTCHAR 285b
ENCODING 10331
SWIDTH 362 0
DWIDTH 16 0
BBX 16 16 0 -2
BITMAP
0102
7FFF
03C0
03FF
3E3F
6C30
0FF0
0183
FFFF
1DB8
318C
030C
0C78
1D38
6E0F
0C07
ENDCHAR
STARTCHAR 285c
ENCODING 10332
SWIDTH 362 0
DWIDTH 16 0
BBX 16 16 0 -2
BITMAP
0006
0660
3FFC
2664
27C4
200C
3FFC
3FFC
3008
3008
1FF0
1FF0
0182
FFFF
0180
0100
ENDCHAR
STARTCHAR 285d
ENCODING 10333
SWIDTH 362 0
DWIDTH 16 0
BBX 16 16 0 -2
BITMAP
0638
7E28
46BE
7EFB
46AA
46AA
7EFE
46AA
46AA
7FFF
286C
28C7
6983
4901
CFFF
87FF
ENDCHAR
STARTCHAR 285e
ENCODING 10334
SWIDTH 362 0
DWIDTH 16 0
BBX 16 16 0 -2
BITMAP
0180
7FFE
1188
199C
3DF6
47F0
1D9F
7FFE
9808
1808
1FF8
1808
1FF8
0E41
187F
703F
ENDCHAR
STARTCHAR 285f
ENCODING 10335
SWIDTH 362 0
DWIDTH 16 0
BBX 16 16 0 -2
BITMAP
0742
7C7F
6363
6363
617F
7F63
6063
7F63
7F63
7F7F
5B54
5F14
5334
F325
A747
6387
ENDCHAR
STARTCHAR 2860
ENCODING 10336
SWIDTH 362 0
DWIDTH 16 0
BBX 16 16 0 -2
BITMAP
1882
18FF
1EC2
18C2
1AFE
7EC2
02C2
7EC2
00C2
FFFE
182E
7C2C
5E6C
DA4D
98CF
1307
ENDCHAR
STARTCHAR 2861
ENCODING 10337
SWIDTH 362 0
DWIDTH 16 0
BBX 16 16 0 -2
BITMAP
0002
C3FF
C2C2
C2C2
FEFE
18C2
1AC2
18C2
1AC2
DEFE
7C2C
182C
346C
26CD
438F
8307
ENDCHAR
STARTCHAR 2862
ENCODING 10338
SWIDTH 362 0
DWIDTH 16 0
BBX 16 16 0 -2
BITMAP
0E42
787F
1342
7A42
247E
FFC2
81C2
0442
7E42
247E
3C3E
183C
1C2C
366D
62CF
8387
ENDCHAR
STARTCHAR 2863
ENCODING 10339
SWIDTH 362 0
DWIDTH 16 0
BBX 16 16 0 -2
BITMAP
6022
407F
4063
7FE3
E7FF
A7E3
27E3
2FE3
FFE3
27FF
27B4
7794
6FB4
4EB5
C067
81C7
ENDCHAR
STARTCHAR 2864
ENCODING 10340
SWIDTH 362 0
DWIDTH 16 0
BBX 16 16 0 -2
BITMAP
3020
2C33
7DFF
C860
FE46
568F
57FB
5719
5610
7FFF
4610
46D4
4692
C793
9F11
8C10
ENDCHAR
STARTCHAR 2865
ENCODING 10341
SWIDTH 362 0
DWIDTH 16 0
BBX 16 16 0 -2
BITMAP
3046
2C44
7C44
C9FF
FE44
5644
5644
567C
5618
7E13
47FF
46D4
46D2
C793
9F11
8C10
ENDCHAR
STARTCHAR 2866
ENCODING 10342
SWIDTH 362 0
DWIDTH 16 0
BBX 16 16 0 -2
BITMAP
3068
2C6C
7DFF
C826
FE3C
5639
56EF
57C3
566C
7FFF
4664
462E
4638
C639
9EEF
8F07
ENDCHAR
STARTCHAR 2867
ENCODING 10343
SWIDTH 362 0
DWIDTH 16 0
BBX 16 16 0 -2
BITMAP
3102
2DEF
7DEB
C9EB
FFFB
5783
5783
57FF
576B
7E68
4668
4648
46C8
C689
9F0F
8E07
ENDCHAR
STARTCHAR 2868
ENCODING 10344
SWIDTH 362 0
DWIDTH 16 0
BBX 16 16 0 -2
BITMAP
3018
2C96
7C96
C8D6
FFF5
577D
5738
57FF
5668
7E68
4668
4648
46C8
C689
9F0F
8E07
ENDCHAR
STARTCHAR 2869
ENCODING 10345
SWIDTH 362 0
DWIDTH 16 0
BBX 16 16 0 -2
BITMAP
30D0
2CC8
7CCF
C9D8
FF98
5798
56FF
5698
5698
7E98
46FF
4698
4698
C698
9EDB
8CC0
ENDCHAR
STARTCHAR 286a
ENCODING 10346
SWIDTH 362 0
DWIDTH 16 0
BBX 16 16 0 -2
BITMAP
00D8
00CA
7FFE
3FCC
336C
2238
7F7A
7DCE
0F66
18E0
3FFC
7FFC
118C
300C
603C
C018
ENDCHAR
STARTCHAR 286b
ENCODING 10347
SWIDTH 362 0
DWIDTH 16 0
BBX 16 16 0 -2
BITMAP
6040
2036
0CF4
00CC
02CA
7ADB
06F3
78FC
01FC
0B30
7D32
4DB3
4932
4932
7B32
4102
ENDCHAR
STARTCHAR 286c
ENCODING 10348
SWIDTH 362 0
DWIDTH 16 0
BBX 16 16 0 -2
BITMAP
600C
206C
0C64
01FF
0044
7844
00CE
7800
000C
086C
7C64
4DFF
4844
4844
78CF
4000
ENDCHAR
STARTCHAR 286d
ENCODING 10349
SWIDTH 362 0
DWIDTH 16 0
BBX 16 16 0 -2
BITMAP
6002
21FE
0C00
01FF
0100
7983
01FF
7A63
01FF
084B
7CFF
4CCB
499B
4F1B
781E
400C
ENDCHAR
STARTCHAR 286e
ENCODING 10350
SWIDTH 362 0
DWIDTH 16 0
BBX 16 16 0 -2
BITMAP
61CC
218C
398C
07FF
018C
798C
018C
79FC
0020
0023
FFFF
D9A0
D9A4
DB26
FE23
8020
ENDCHAR
STARTCHAR 286f
ENCODING 10351
SWIDTH 362 0
DWIDTH 16 0
BBX 16 16 0 -2
BITMAP
659B
279B
1792
0732
073F
7622
0772
77BA
06AE
06A2
F6A2
D7A2
D722
D622
F626
8426
ENDCHAR
STARTCHAR 2870
ENCODING 10352
SWIDTH 362 0
DWIDTH 16 0
BBX 16 16 0 -2
BITMAP
6060
2022
0DFE
0040
00C4
798E
03F3
7931
0030
09FF
7C30
4DB4
49B6
4933
7A33
4030
ENDCHAR
STARTCHAR 2871
ENCODING 10353
SWIDTH 362 0
DWIDTH 16 0
BBX 16 16 0 -2
BITMAP
6030
2030
0DFF
0078
00CC
798F
03CE
7858
01FE
0830
7C32
4DFF
4830
4830
7830
4030
ENDCHAR
STARTCHAR 2872
ENCODING 10354
SWIDTH 362 0
DWIDTH 16 0
BBX 16 16 0 -2
BITMAP
6042
23FF
08E7
01EF
037B
7863
00E7
79EF
037B
00E7
79E7
5B6B
5E73
5863
79EF
40C6
ENDCHAR
STARTCHAR 2873
ENCODING 10355
SWIDTH 362 0
DWIDTH 16 0
BBX 16 16 0 -2
BITMAP
6030
2333
09B2
00B4
0032
7BFF
0303
7B0B
037F
034B
7B4B
5B4B
5B03
5B03
7B1F
4306
ENDCHAR
STARTCHAR 2874
ENCODING 10356
SWIDTH 362 0
DWIDTH 16 0
BBX 16 16 0 -2
BITMAP
6006
21FE
0DB6
01B6
01FE
79B6
01B6
7900
0002
0BFF
7C84
4C84
4984
4904
7B04
4E04
ENDCHAR
STARTCHAR 2875
ENCODING 10357
SWIDTH 362 0
DWIDTH 16 0
BBX 16 16 0 -2
BITMAP
6006
207E
0F46
0346
037E
7B03
03FF
7806
01FE
09FE
7D8E
4D9E
49F6
4906
7B1E
4E0C
ENDCHAR
STARTCHAR 2876
ENCODING 10358
SWIDTH 362 0
DWIDTH 16 0
BBX 16 16 0 -2
BITMAP
6018
2013
0C1F
0010
01FF
7932
01FE
7930
013E
0910
7D18
4D18
4B38
4B3C
7A67
47C2
ENDCHAR
STARTCHAR 2877
ENCODING 10359
SWIDTH 362 0
DWIDTH 16 0
BBX 16 16 0 -2
BITMAP
6070
2060
0C7E
0060
0166
7963
0162
797E
014E
09EA
7DBA
4D32
4962
49C2
79FE
4102
ENDCHAR
STARTCHAR 2878
ENCODING 10360
SWIDTH 362 0
DWIDTH 16 0
BBX 16 16 0 -2
BITMAP
6186
23CF
0D86
0084
003E
79F0
0030
7830
03FF
0830
7C30
4C68
484C
4886
7907
4603
ENDCHAR
STARTCHAR 2879
ENCODING 10361
SWIDTH 362 0
DWIDTH 16 0
BBX 16 16 0 -2
BITMAP
6030
203E
0DF0
0030
01FE
7830
01FF
7830
0030
0833
7FFF
4DB4
49B2
4B33
7E31
4030
ENDCHAR
STARTCHAR 287a
ENCODING 10362
SWIDTH 362 0
DWIDTH 16 0
BBX 16 16 0 -2
BITMAP
6106
2186
0D8E
01FE
01B6
79FE
01CE
79CE
01CE
09CE
7DCE
4DCE
497E
4907
7A03
4603
ENDCHAR
STARTCHAR 287b
ENCODING 10363
SWIDTH 362 0
DWIDTH 16 0
BBX 16 16 0 -2
BITMAP
6180
21FF
0F03
03FA
01F2
79F2
0006
787C
0008
09FF
7CC2
4CFF
4802
4806
787C
4018
ENDCHAR
STARTCHAR 287c
ENCODING 10364
SWIDTH 362 0
DWIDTH 16 0
BBX 16 16 0 -2
BITMAP
6060
21FE
0D86
0186
01FE
7980
01FE
7986
0186
09FE
7D30
4DFF
4830
4830
7830
4030
ENDCHAR
STARTCHAR 287d
ENCODING 10365
SWIDTH 362 0
DWIDTH 16 0
BBX 16 16 0 -2
BITMAP
61F0
21B6
19BE
0164
037C
7318
0730
7F78
03DB
0333
FB33
DB7E
DB0C
DB18
FB30
8360
ENDCHAR
STARTCHAR 287e
ENCODING 10366
SWIDTH 362 0
DWIDTH 16 0
BBX 16 16 0 -2
BITMAP
60D8
20CC
0C86
01B7
0363
7A4C
00C6
79F6
0182
0830
7CD8
4CC2
4AC3
4EC5
7CFC
407C
ENDCHAR
STARTCHAR 2921
ENCODING 10529
SWIDTH 362 0
DWIDTH 16 0
BBX 16 16 0 -2
BITMAP
6010
20D8
0888
018C
0106
7B07
07FF
7800
0004
03FE
7B54
5B54
5B54
5B54
7BFF
4000
ENDCHAR
STARTCHAR 2922
ENCODING 10530
SWIDTH 362 0
DWIDTH 16 0
BBX 16 16 0 -2
BITMAP
4310
4C18
4F10
4338
7F2C
4846
FF82
0100
FFFF
0000
1FF8
1FF8
0000
1FF8
1018
1018
ENDCHAR
STARTCHAR 2923
ENCODING 10531
SWIDTH 362 0
DWIDTH 16 0
BBX 16 16 0 -2
BITMAP
0180
33FE
3E4E
2228
3E38
3E7F
F2C7
0182
FFFF
0008
1FF8
1FF8
0000
1FFC
1008
1008
ENDCHAR
STARTCHAR 2924
ENCODING 10532
SWIDTH 362 0
DWIDTH 16 0
BBX 16 16 0 -2
BITMAP
0CD8
1898
33FE
7098
17FF
1198
1204
0102
FFFF
0008
1FF8
1FF8
0000
1FFC
1008
1008
ENDCHAR
STARTCHAR 2925
ENCODING 10533
SWIDTH 362 0
DWIDTH 16 0
BBX 16 16 0 -2
BITMAP
00C6
FEC4
00CF
0CCC
7CC4
4CFC
4CC4
7CC4
0CFC
4CC4
68C4
39FF
1CC4
F086
C103
0601
ENDCHAR
STARTCHAR 2926
ENCODING 10534
SWIDTH 362 0
DWIDTH 16 0
BBX 16 16 0 -2
BITMAP
0180
3FFF
6006
58FC
1FCC
3AD8
4CD9
18FF
607E
7FFF
3008
300C
3008
3C38
0C32
FFFF
ENDCHAR
STARTCHAR 2927
ENCODING 10535
SWIDTH 362 0
DWIDTH 16 0
BBX 16 16 0 -2
BITMAP
1C18
1B13
7F7F
1812
7E7E
1810
FF7F
1810
7FFF
0000
3FFC
300C
3FF8
0830
0C32
FFFF
ENDCHAR
STARTCHAR 2928
ENCODING 10536
SWIDTH 362 0
DWIDTH 16 0
BBX 16 16 0 -2
BITMAP
1806
1800
3F46
3B46
4E46
8E4C
74CC
5868
31FF
4C18
0C18
FF7F
0C18
0818
1018
2010
ENDCHAR
STARTCHAR 2929
ENCODING 10537
SWIDTH 362 0
DWIDTH 16 0
BBX 16 16 0 -2
BITMAP
040E
FFF0
3183
3183
6183
D7FF
BD82
39FF
D9FA
1DEE
3FE2
79EE
997A
1B42
76DE
2186
ENDCHAR
STARTCHAR 292a
ENCODING 10538
SWIDTH 362 0
DWIDTH 16 0
BBX 16 16 0 -2
BITMAP
0402
FFFF
3183
3183
61FF
D798
BD9C
39A7
D9E7
1D80
3F86
7987
9904
1B38
720C
2404
ENDCHAR
STARTCHAR 292b
ENCODING 10539
SWIDTH 362 0
DWIDTH 16 0
BBX 16 16 0 -2
BITMAP
0020
FFF3
317F
2173
6173
F77B
BD6A
396A
59EE
BD6E
3F6C
5B6C
9BEE
137A
7073
6063
ENDCHAR
STARTCHAR 292c
ENCODING 10540
SWIDTH 362 0
DWIDTH 16 0
BBX 16 16 0 -2
BITMAP
0402
FFFF
3182
31FE
6182
D782
BDFE
3918
D998
1D98
3FFF
7998
9998
19B9
71DF
218F
ENDCHAR
STARTCHAR 292d
ENCODING 10541
SWIDTH 362 0
DWIDTH 16 0
BBX 16 16 0 -2
BITMAP
0860
FFFF
C8C0
D8FF
D198
D318
DBFF
C800
CDFF
CCF2
CDBE
FC78
D9BC
C07F
C1FB
C030
ENDCHAR
STARTCHAR 292e
ENCODING 10542
SWIDTH 362 0
DWIDTH 16 0
BBX 16 16 0 -2
BITMAP
1830
1830
1FF0
7FFE
0F18
3BB0
0DE0
77FE
3CC7
1998
1818
3E3E
7B7B
D9D9
1818
1818
ENDCHAR
STARTCHAR 292f
ENCODING 10543
SWIDTH 362 0
DWIDTH 16 0
BBX 16 16 0 -2
BITMAP
1802
31FF
6592
DD92
79FE
3192
79B2
D880
3C03
6CC6
DCC6
34C6
ECC6
0D86
7906
1E04
ENDCHAR
STARTCHAR 2930
ENCODING 10544
SWIDTH 362 0
DWIDTH 16 0
BBX 16 16 0 -2
BITMAP
31CC
218C
7DFF
D908
332F
336F
DB6B
1D6B
3D7F
6D0A
9D68
2D38
CD18
0D3C
7967
31C3
ENDCHAR
STARTCHAR 2931
ENCODING 10545
SWIDTH 362 0
DWIDTH 16 0
BBX 16 16 0 -2
BITMAP
180E
31F0
6423
DD32
7994
3000
7818
D810
3DFF
6C38
DC78
347C
ECD6
0D93
7B13
1810
ENDCHAR
STARTCHAR 2932
ENCODING 10546
SWIDTH 362 0
DWIDTH 16 0
BBX 16 16 0 -2
BITMAP
446C
7E6C
44FE
446C
7C6F
446C
44CC
7C88
446C
44FE
4C6C
4C6C
69FF
6C4C
C6CC
808C
ENDCHAR
STARTCHAR 2933
ENCODING 10547
SWIDTH 362 0
DWIDTH 16 0
BBX 16 16 0 -2
BITMAP
4430
7E30
47FF
4534
7DB6
45B6
47BE
7E79
4471
4430
4C78
4CFC
69B7
6F33
C630
8030
ENDCHAR
STARTCHAR 2934
ENCODING 10548
SWIDTH 362 0
DWIDTH 16 0
BBX 16 16 0 -2
BITMAP
4430
7E30
4468
44C6
7D83
47FF
4430
7C30
45FF
4430
4C36
4DFE
6986
6D86
C786
8186
ENDCHAR
STARTCHAR 2935
ENCODING 10549
SWIDTH 362 0
DWIDTH 16 0
BBX 16 16 0 -2
BITMAP
0300
FFFF
1818
4C33
7FFF
CC32
B83E
3FF8
1018
1FF8
1018
1FF8
1018
1FF8
381C
6006
ENDCHAR
STARTCHAR 2936
ENCODING 10550
SWIDTH 362 0
DWIDTH 16 0
BBX 16 16 0 -2
BITMAP
3210
FF7F
6C24
181C
3E3F
C7C3
1018
1018
1018
1018
1018
1018
1018
1C18
300C
6006
ENDCHAR
STARTCHAR 2937
ENCODING 10551
SWIDTH 362 0
DWIDTH 16 0
BBX 16 16 0 -2
BITMAP
0003
018C
7FFC
6DE4
7FFC
73DC
000C
1008
1008
1008
1008
1008
1008
1C38
1E1C
7006
ENDCHAR
STARTCHAR 2938
ENCODING 10552
SWIDTH 362 0
DWIDTH 16 0
BBX 16 16 0 -2
BITMAP
0222
7FFF
01BC
07F9
7F7F
7FFE
01BD
03F1
3C1F
1FF8
1FF8
1FF8
1008
1FF8
380C
6006
ENDCHAR
STARTCHAR 2939
ENCODING 10553
SWIDTH 362 0
DWIDTH 16 0
BBX 16 16 0 -2
BITMAP
0C78
186C
3FFF
7BE0
9939
178F
100A
180C
1808
1808
1808
1808
1808
1C38
1C1C
7006
ENDCHAR
STARTCHAR 293a
ENCODING 10554
SWIDTH 362 0
DWIDTH 16 0
BBX 16 16 0 -2
BITMAP
1802
19FF
1B83
19FF
1980
1B9C
7F98
2DFF
6D98
EF98
EFBB
AD98
6D98
6D99
4D1F
8A0F
ENDCHAR
STARTCHAR 293b
ENCODING 10555
SWIDTH 362 0
DWIDTH 16 0
BBX 16 16 0 -2
BITMAP
326C
316C
33EF
794F
314F
314F
FFEF
314F
F14F
F14F
F94B
F35B
F257
F462
BFFF
9FFE
ENDCHAR
STARTCHAR 293c
ENCODING 10556
SWIDTH 362 0
DWIDTH 16 0
BBX 16 16 0 -2
BITMAP
1830
18B6
18FC
7E78
18FE
1833
FFFF
184E
58FF
5B6D
5E7C
5862
F87E
F83E
9FFF
87FC
ENDCHAR
STARTCHAR 293d
ENCODING 10557
SWIDTH 362 0
DWIDTH 16 0
BBX 16 16 0 -2
BITMAP
1802
1000
1000
7CFF
1058
10DA
FE9B
1113
70FF
74C3
5CC2
50C2
F0FE
F000
9FFF
87FE
ENDCHAR
STARTCHAR 293e
ENCODING 10558
SWIDTH 362 0
DWIDTH 16 0
BBX 16 16 0 -2
BITMAP
1883
1183
1183
7DFF
11B4
11A7
FFF3
11B6
71BE
75B6
5DDC
5118
F230
F4C0
9FFF
87FE
ENDCHAR
STARTCHAR 293f
ENCODING 10559
SWIDTH 362 0
DWIDTH 16 0
BBX 16 16 0 -2
BITMAP
30C3
30CB
33EF
7A8B
33FB
32AB
FEAB
32EB
F0CB
F1EB
FFB3
F683
F08F
F082
BFFF
9FFE
ENDCHAR
STARTCHAR 2940
ENCODING 10560
SWIDTH 362 0
DWIDTH 16 0
BBX 16 16 0 -2
BITMAP
1818
1012
11FE
7CD6
10D6
10F6
FF39
1030
7078
74F6
5D93
5311
F010
F000
9FFF
87FE
ENDCHAR
STARTCHAR 2941
ENCODING 10561
SWIDTH 362 0
DWIDTH 16 0
BBX 16 16 0 -2
BITMAP
1800
1830
1832
7EFE
1828
1866
FFC6
1806
58F6
5A96
5EF6
581E
F80C
F800
9FFF
87FC
ENDCHAR
STARTCHAR 2942
ENCODING 10562
SWIDTH 362 0
DWIDTH 16 0
BBX 16 16 0 -2
BITMAP
1903
1186
11A6
7DB6
11FE
11FA
FFFA
11FA
71FA
75DA
5F18
5118
F318
F208
9FFF
87FE
ENDCHAR
STARTCHAR 2943
ENCODING 10563
SWIDTH 362 0
DWIDTH 16 0
BBX 16 16 0 -2
BITMAP
1818
101F
1018
7DFF
11B2
11B0
FFB0
119F
719C
7598
5D98
5136
F363
F281
9FFF
87FE
ENDCHAR
STARTCHAR 2944
ENCODING 10564
SWIDTH 362 0
DWIDTH 16 0
BBX 16 16 0 -2
BITMAP
0063
FC42
CCE7
CCC6
CC86
FC86
3086
31EF
F086
FC86
F086
F086
F186
FD86
E106
0204
ENDCHAR
STARTCHAR 2945
ENCODING 10565
SWIDTH 362 0
DWIDTH 16 0
BBX 16 16 0 -2
BITMAP
0020
FC33
CDFF
CC60
CC46
FC8F
31F3
3119
F010
FDFF
F010
F0D4
F092
FD93
E311
0010
ENDCHAR
STARTCHAR 2946
ENCODING 10566
SWIDTH 362 0
DWIDTH 16 0
BBX 16 16 0 -2
BITMAP
0020
FC30
CFFF
CF66
CF66
FF46
33DF
33C6
F3D6
FF5E
F34E
F346
F346
FE46
E24E
0046
ENDCHAR
STARTCHAR 2947
ENCODING 10567
SWIDTH 362 0
DWIDTH 16 0
BBX 16 16 0 -2
BITMAP
000E
FC66
CC66
CDFF
CC66
FC66
3067
3000
F00E
FC66
F066
F1FF
F066
FC66
E067
0000
ENDCHAR
STARTCHAR 2948
ENCODING 10568
SWIDTH 362 0
DWIDTH 16 0
BBX 16 16 0 -2
BITMAP
0046
FC44
CDFF
CC44
CC44
FC44
3044
307C
F018
FC13
F1FF
F0D4
F0D2
FD93
E311
0010
ENDCHAR
STARTCHAR 2949
ENCODING 10569
SWIDTH 362 0
DWIDTH 16 0
BBX 16 16 0 -2
BITMAP
0030
FC30
CFFF
CC68
CCF6
FDB3
32FC
3030
F0FC
FCCC
F0CF
F0CC
F0CC
FC8C
E10C
020C
ENDCHAR
STARTCHAR 294a
ENCODING 10570
SWIDTH 362 0
DWIDTH 16 0
BBX 16 16 0 -2
BITMAP
0018
FC13
CDFF
CD3B
CCCE
FC87
3183
3030
F010
FC13
F1FF
F010
F010
FC10
E010
0010
ENDCHAR
STARTCHAR 294b
ENCODING 10571
SWIDTH 362 0
DWIDTH 16 0
BBX 16 16 0 -2
BITMAP
0084
FDFE
CD86
CDFE
CD86
FD86
31FC
3000
F1FE
FC30
F030
F1FE
F030
FC30
E033
0000
ENDCHAR
STARTCHAR 294c
ENCODING 10572
SWIDTH 362 0
DWIDTH 16 0
BBX 16 16 0 -2
BITMAP
0010
FC1F
CC10
CDFF
CD62
FDFE
3160
313E
F110
FD18
F118
F118
F33C
FF66
E6C3
0183
ENDCHAR
STARTCHAR 294d
ENCODING 10573
SWIDTH 362 0
DWIDTH 16 0
BBX 16 16 0 -2
BITMAP
0030
FC30
CD20
CDBE
CDA0
FDA0
31B2
3030
F020
FDA0
F13E
F320
F320
FEA0
E47F
083E
ENDCHAR
STARTCHAR 294e
ENCODING 10574
SWIDTH 362 0
DWIDTH 16 0
BBX 16 16 0 -2
BITMAP
0040
FCCC
CDFE
CD82
CD0C
FF0C
325B
33FD
F008
FC04
F1FE
F000
F000
FC03
E3FF
0000
ENDCHAR
STARTCHAR 294f
ENCODING 10575
SWIDTH 362 0
DWIDTH 16 0
BBX 16 16 0 -2
BITMAP
01C0
FD80
CDFF
CF03
CF8B
FDFF
3163
306F
F1FF
FDEB
F1EB
F1EB
F1FB
FC03
E03E
000C
ENDCHAR
STARTCHAR 2950
ENCODING 10576
SWIDTH 362 0
DWIDTH 16 0
BBX 16 16 0 -2
BITMAP
3002
2DFF
7D82
4D82
7D82
4DFE
4C80
4CC2
4CFE
7D10
FF33
7C30
6C64
CCC2
BD83
1B01
ENDCHAR
STARTCHAR 2951
ENCODING 10577
SWIDTH 362 0
DWIDTH 16 0
BBX 16 16 0 -2
BITMAP
3030
2C32
7C3E
4D36
7DFE
4D86
4DFE
4D86
4D86
7D36
FC30
7FFF
6C30
CC30
BC30
1830
ENDCHAR
STARTCHAR 2952
ENCODING 10578
SWIDTH 362 0
DWIDTH 16 0
BBX 16 16 0 -2
BITMAP
3020
3133
FFFF
3202
FC8C
B58C
FD84
FD84
B5FC
FD84
3184
FDFC
3184
3184
318F
3000
ENDCHAR
STARTCHAR 2953
ENCODING 10579
SWIDTH 362 0
DWIDTH 16 0
BBX 16 16 0 -2
BITMAP
3003
33F3
FCC3
3187
FDA7
B7F7
FFD7
FCC7
B4C7
FFF7
30C7
FCC3
30F3
37C3
3307
3006
ENDCHAR
STARTCHAR 2954
ENCODING 10580
SWIDTH 362 0
DWIDTH 16 0
BBX 16 16 0 -2
BITMAP
3002
31FF
3E92
30D6
FDB6
FF2C
B52C
FDB6
B496
FC00
B1FF
3410
FE32
3030
3010
31FF
ENDCHAR
STARTCHAR 2955
ENCODING 10581
SWIDTH 362 0
DWIDTH 16 0
BBX 16 16 0 -2
BITMAP
3018
3113
FC92
30D4
FC12
B5FF
FD83
FD8B
B5FF
FDEB
31EB
FDEB
3183
3183
318F
3106
ENDCHAR
STARTCHAR 2956
ENCODING 10582
SWIDTH 362 0
DWIDTH 16 0
BBX 16 16 0 -2
BITMAP
1886
11B3
FF92
1592
FFFE
D792
F792
F7FE
D67C
FCD8
11FF
FC18
1018
1018
1018
1018
ENDCHAR
STARTCHAR 2957
ENCODING 10583
SWIDTH 362 0
DWIDTH 16 0
BBX 16 16 0 -2
BITMAP
30C6
31EF
FCC6
30E4
FC32
B5FF
FD3B
FD6B
B54F
FDCF
3187
FD03
3103
3103
311F
3106
ENDCHAR
STARTCHAR 2958
ENCODING 10584
SWIDTH 362 0
DWIDTH 16 0
BBX 16 16 0 -2
BITMAP
30C6
30C6
FCCC
30EE
FDBB
B531
FE30
FC18
B498
FCD8
319F
FD98
3198
3378
323F
340E
ENDCHAR
STARTCHAR 2959
ENCODING 10585
SWIDTH 362 0
DWIDTH 16 0
BBX 16 16 0 -2
BITMAP
30C0
30CC
FCFE
3184
FDFC
B40C
FDFF
FC12
B593
FCD6
3010
FC70
3396
3113
3070
3020
ENDCHAR
STARTCHAR 295a
ENCODING 10586
SWIDTH 362 0
DWIDTH 16 0
BBX 16 16 0 -2
BITMAP
31C0
3180
FDFF
3303
FD8B
B5FF
FD63
FC6F
B5FF
FDEB
31EB
FDEB
31FB
3003
303E
300C
ENDCHAR
STARTCHAR 295b
ENCODING 10587
SWIDTH 362 0
DWIDTH 16 0
BBX 16 16 0 -2
BITMAP
301E
31F0
FD90
31FF
FD98
B598
FDED
FDC7
B403
FDFE
3186
FD86
31FE
3186
3186
3186
ENDCHAR
STARTCHAR 295c
ENCODING 10588
SWIDTH 362 0
DWIDTH 16 0
BBX 16 16 0 -2
BITMAP
30D8
30CC
FC86
31B7
FF63
B44C
FCC6
FDF6
B582
FC30
30D8
FCC2
32C1
36C5
30FC
307C
ENDCHAR
STARTCHAR 295d
ENCODING 10589
SWIDTH 362 0
DWIDTH 16 0
BBX 16 16 0 -2
BITMAP
0082
7FFF
6018
6038
6066
636C
665C
6DCF
70C2
7FFE
6FFC
5FFE
58C6
C0C3
BFFF
80C0
ENDCHAR
STARTCHAR 295e
ENCODING 10590
SWIDTH 362 0
DWIDTH 16 0
BBX 16 16 0 -2
BITMAP
0302
FFFF
1018
3FFE
73D8
DEDA
0CFE
3118
C192
7FFE
3FF8
3FF8
3188
0183
FFFF
0100
ENDCHAR
STARTCHAR 295f
ENCODING 10591
SWIDTH 362 0
DWIDTH 16 0
BBX 16 16 0 -2
BITMAP
1860
387F
6ED2
DEB0
3838
3C66
C6C3
0183
7FFE
1FF8
3188
3FF8
3188
0183
FFFF
0100
ENDCHAR
STARTCHAR 2960
ENCODING 10592
SWIDTH 362 0
DWIDTH 16 0
BBX 16 16 0 -2
BITMAP
6060
7F7F
EBEB
2A2A
2A2A
5252
AEAE
0180
7FFE
1FF8
3188
3FF8
3188
0183
FFFF
0100
ENDCHAR
STARTCHAR 2961
ENCODING 10593
SWIDTH 362 0
DWIDTH 16 0
BBX 16 16 0 -2
BITMAP
3838
6666
3C3C
3636
FFFF
4141
4003
40C0
5FFE
4FFC
58C6
5FFE
58C6
C0C0
FFFF
80C0
ENDCHAR
STARTCHAR 2962
ENCODING 10594
SWIDTH 362 0
DWIDTH 16 0
BBX 16 16 0 -2
BITMAP
0180
F19F
67E4
6584
67E4
65E4
67E4
75FF
65E4
65C4
6184
67E4
7984
F184
C19F
0100
ENDCHAR
STARTCHAR 2963
ENCODING 10595
SWIDTH 362 0
DWIDTH 16 0
BBX 16 16 0 -2
BITMAP
1983
599B
33EE
3386
3BEE
4BEB
83F1
1BE3
9BF3
5BDB
798A
33EE
3184
798E
499B
89B3
ENDCHAR
STARTCHAR 2964
ENCODING 10596
SWIDTH 362 0
DWIDTH 16 0
BBX 16 16 0 -2
BITMAP
2030
3462
FFFF
C593
6D92
69FE
3FB2
31B2
11FE
1458
7CD8
31FF
3018
2018
6018
C010
ENDCHAR
STARTCHAR 2965
ENCODING 10597
SWIDTH 362 0
DWIDTH 16 0
BBX 16 16 0 -2
BITMAP
1020
1833
7FFF
C306
AE44
666C
6628
66FF
7C10
6210
7F32
6330
6210
6210
7E10
6210
ENDCHAR
STARTCHAR 2966
ENCODING 10598
SWIDTH 362 0
DWIDTH 16 0
BBX 16 16 0 -2
BITMAP
3418
3EFF
F618
64FF
7CC3
3CC2
66FE
C380
0186
0C30
0460
FFFF
0184
7FFE
0180
0100
ENDCHAR
STARTCHAR 2967
ENCODING 10599
SWIDTH 362 0
DWIDTH 16 0
BBX 16 16 0 -2
BITMAP
1806
30FE
EC06
1C06
31FF
CC00
19FF
7110
9096
14B8
DE6C
D0C6
D183
D301
FFFF
9FFE
ENDCHAR
STARTCHAR 2968
ENCODING 10600
SWIDTH 362 0
DWIDTH 16 0
BBX 16 16 0 -2
BITMAP
0030
63FF
336C
136B
03FF
F36B
33FF
2346
7B46
5BC4
1AE4
33A9
35FF
7800
DFFF
03FC
ENDCHAR
STARTCHAR 2969
ENCODING 10601
SWIDTH 362 0
DWIDTH 16 0
BBX 16 16 0 -2
BITMAP
0132
61B6
30EC
10C6
0132
F1B6
30FC
20CE
7B87
588C
1BFF
308C
310C
7A08
DFFF
03FC
ENDCHAR
STARTCHAR 296a
ENCODING 10602
SWIDTH 362 0
DWIDTH 16 0
BBX 16 16 0 -2
BITMAP
0002
6130
31FF
13B7
02F8
F0F4
3132
2120
79B6
5B24
1A6C
3136
3192
7892
DFFF
03FE
ENDCHAR
STARTCHAR 296b
ENCODING 10603
SWIDTH 362 0
DWIDTH 16 0
BBX 16 16 0 -2
BITMAP
0030
63FF
3032
1030
03FF
F102
31FE
21FE
7986
59FE
1986
31C6
3383
7E01
DFFF
03FE
ENDCHAR
STARTCHAR 296c
ENCODING 10604
SWIDTH 362 0
DWIDTH 16 0
BBX 16 16 0 -2
BITMAP
0030
63FF
3030
1132
01FE
F132
31FE
21FF
7BC5
5BFF
1884
30C4
303C
7808
DFFF
03FC
ENDCHAR
STARTCHAR 296d
ENCODING 10605
SWIDTH 362 0
DWIDTH 16 0
BBX 16 16 0 -2
BITMAP
0030
6032
33FE
1020
07FF
F190
31FF
2310
7FFF
5910
19FF
3110
31FF
7900
DFFF
03FC
ENDCHAR
STARTCHAR 296e
ENCODING 10606
SWIDTH 362 0
DWIDTH 16 0
BBX 16 16 0 -2
BITMAP
0030
603E
3030
13FF
0372
F360
333C
2300
7B7E
5B7E
1B46
327E
34C6
7800
DFFF
03FC
ENDCHAR
STARTCHAR 296f
ENCODING 10607
SWIDTH 362 0
DWIDTH 16 0
BBX 16 16 0 -2
BITMAP
0203
63DB
33DB
1202
0006
F000
3003
2000
7906
5906
1906
3106
3106
7906
DFFF
03FE
ENDCHAR
STARTCHAR 2970
ENCODING 10608
SWIDTH 362 0
DWIDTH 16 0
BBX 16 16 0 -2
BITMAP
0030
63FF
3344
1366
03FF
F366
337C
239B
7BDB
5B7E
1A34
3666
34C3
7901
DFFF
03FE
ENDCHAR
STARTCHAR 2971
ENCODING 10609
SWIDTH 362 0
DWIDTH 16 0
BBX 16 16 0 -2
BITMAP
003E
63C6
3326
112C
07FF
F062
30E6
277C
78D8
5F3C
18DF
331B
30F0
7820
DFFF
03FC
ENDCHAR
STARTCHAR 2972
ENCODING 10610
SWIDTH 362 0
DWIDTH 16 0
BBX 16 16 0 -2
BITMAP
0062
60FF
33B6
10D8
0060
F1E0
33FF
2000
79FE
59FE
1800
31FE
3106
79FE
DFFF
03FE
ENDCHAR
STARTCHAR 2973
ENCODING 10611
SWIDTH 362 0
DWIDTH 16 0
BBX 16 16 0 -2
BITMAP
0607
C7DF
64D5
2FD5
0555
F7D5
3555
6555
7FD5
7C55
3455
3DD5
68E5
F000
DFFF
03FC
ENDCHAR
STARTCHAR 2974
ENCODING 10612
SWIDTH 362 0
DWIDTH 16 0
BBX 16 16 0 -2
BITMAP
011C
C3D8
67FB
265E
07D6
F676
37CE
666E
77EC
7ECE
31CE
325B
6DF3
F000
DFFF
03FC
ENDCHAR
STARTCHAR 2975
ENCODING 10613
SWIDTH 362 0
DWIDTH 16 0
BBX 16 16 0 -2
BITMAP
001F
63E0
320E
12F0
02C3
F2C3
32C3
22C0
7AFF
5AF7
1EFF
37F7
3577
7802
DFFF
03FE
ENDCHAR
STARTCHAR 2976
ENCODING 10614
SWIDTH 362 0
DWIDTH 16 0
BBX 16 16 0 -2
BITMAP
0802
FCBF
DFF2
DCB2
DCBE
DE80
DABF
DAAB
FBAB
DBBF
DB23
DB20
FBA0
DEE1
1CFF
185F
ENDCHAR
STARTCHAR 2977
ENCODING 10615
SWIDTH 362 0
DWIDTH 16 0
BBX 16 16 0 -2
BITMAP
1802
187F
FF62
3662
7F7E
D900
7F7F
5B5B
5B5B
5B7F
5B43
7F40
1840
1B41
1C7F
087F
ENDCHAR
STARTCHAR 2978
ENCODING 10616
SWIDTH 362 0
DWIDTH 16 0
BBX 16 16 0 -2
BITMAP
1802
9B7F
5A62
7C62
1A7E
FF00
837F
835B
BF5B
AB7F
BB43
BB40
8340
8341
8F7F
867F
ENDCHAR
STARTCHAR 2979
ENCODING 10617
SWIDTH 362 0
DWIDTH 16 0
BBX 16 16 0 -2
BITMAP
1802
1F7F
1862
FF62
DA7E
FE00
D87F
DE5B
CE5B
F67F
F643
F640
F6C0
A7C1
E67F
C07F
ENDCHAR
STARTCHAR 297a
ENCODING 10618
SWIDTH 362 0
DWIDTH 16 0
BBX 16 16 0 -2
BITMAP
0C02
6C7F
6F62
6C62
687E
FF00
187F
185B
37DB
667F
6643
A240
2340
2F41
397F
307F
ENDCHAR
STARTCHAR 297b
ENCODING 10619
SWIDTH 362 0
DWIDTH 16 0
BBX 16 16 0 -2
BITMAP
0C02
6C7F
6F62
6C62
687E
6900
FFFF
765B
665B
667F
6643
7640
5E40
4F41
897F
917F
ENDCHAR
STARTCHAR 297c
ENCODING 10620
SWIDTH 362 0
DWIDTH 16 0
BBX 16 16 0 -2
BITMAP
0612
041F
64DA
3F9E
0E1C
191C
10DE
20DA
D15B
15D9
7FF9
799F
3B9B
6F58
4678
8C10
ENDCHAR
STARTCHAR 297d
ENCODING 10621
SWIDTH 362 0
DWIDTH 16 0
BBX 16 16 0 -2
BITMAP
0322
433F
7F26
FFA4
03AC
03A8
7FA4
5FA2
5FA3
4DA3
7FA3
4C3F
7F26
0820
FF20
6020
ENDCHAR
STARTCHAR 297e
ENCODING 10622
SWIDTH 362 0
DWIDTH 16 0
BBX 16 16 0 -2
BITMAP
00A2
FFFF
0032
7FB6
55B4
55BC
7736
0032
FFB3
4131
7FB1
61BF
7FB7
61B0
61B0
6130
ENDCHAR
STARTCHAR 2a21
ENCODING 10785
SWIDTH 362 0
DWIDTH 16 0
BBX 16 16 0 -2
BITMAP
0022
FFFF
6AF2
6AB6
79B4
69BC
FEF6
C832
0C33
0CB1
7FB1
6C3F
6DB7
CCB0
8C30
0C30
ENDCHAR
STARTCHAR 2a22
ENCODING 10786
SWIDTH 362 0
DWIDTH 16 0
BBX 16 16 0 -2
BITMAP
0C22
0CFF
FFF2
53F6
31B4
7FFC
E1B6
7FB2
61B3
7FB1
0D31
6D3F
6DB7
CCF0
BCF0
1830
ENDCHAR
STARTCHAR 2a23
ENCODING 10787
SWIDTH 362 0
DWIDTH 16 0
BBX 16 16 0 -2
BITMAP
3322
323F
F3B2
3236
2834
643C
7FB6
6432
E433
FF31
6431
653F
7F37
6430
6DB0
6030
ENDCHAR
STARTCHAR 2a24
ENCODING 10788
SWIDTH 362 0
DWIDTH 16 0
BBX 16 16 0 -2
BITMAP
18A2
1DBF
37B2
7BB6
1DB4
37BC
73B6
41B2
51B3
51B1
51B1
51BF
51B7
D1B0
91B0
9130
ENDCHAR
STARTCHAR 2a25
ENCODING 10789
SWIDTH 362 0
DWIDTH 16 0
BBX 16 16 0 -2
BITMAP
0F22
7C3F
08B2
FFB6
1E34
29BC
D8B6
1A32
3FB3
C9B1
AE31
1C3F
0E37
EBB0
D8B0
1830
ENDCHAR
STARTCHAR 2a26
ENCODING 10790
SWIDTH 362 0
DWIDTH 16 0
BBX 16 16 0 -2
BITMAP
0722
7C3F
2932
6936
6B34
7BBC
FFB6
6932
6B33
FEB1
8CB1
7FBF
0837
0FB0
FE30
4030
ENDCHAR
STARTCHAR 2a27
ENCODING 10791
SWIDTH 362 0
DWIDTH 16 0
BBX 16 16 0 -2
BITMAP
0220
FFB3
29FF
2B6A
FECF
EF06
EEFE
EE06
EEFE
C680
C786
FF83
C602
C602
FE7E
C20C
ENDCHAR
STARTCHAR 2a28
ENCODING 10792
SWIDTH 362 0
DWIDTH 16 0
BBX 16 16 0 -2
BITMAP
0218
FF10
28FF
2A30
FE38
EE74
EE53
EE93
EF11
C696
C6FE
FE86
C686
C686
FEFE
C282
ENDCHAR
STARTCHAR 2a29
ENCODING 10793
SWIDTH 362 0
DWIDTH 16 0
BBX 16 16 0 -2
BITMAP
0206
FF7E
2830
2AFF
FE20
EE7E
EE06
EE06
EE3C
C608
C6C6
FEFE
C6EE
C6EE
FEEE
C3FF
ENDCHAR
STARTCHAR 2a2a
ENCODING 10794
SWIDTH 362 0
DWIDTH 16 0
BBX 16 16 0 -2
BITMAP
0218
FF18
2818
2A1B
FEFF
EE18
EE18
EE1A
EE7E
C600
C6C6
FEFE
C6EE
C6EE
FEEE
C3FF
ENDCHAR
STARTCHAR 2a2b
ENCODING 10795
SWIDTH 362 0
DWIDTH 16 0
BBX 16 16 0 -2
BITMAP
0602
FE3F
29A2
2BA2
FFBE
EFFF
EE00
EE7F
EE62
C67E
C662
FE7E
C642
C642
FECE
C386
ENDCHAR
STARTCHAR 2a2c
ENCODING 10796
SWIDTH 362 0
DWIDTH 16 0
BBX 16 16 0 -2
BITMAP
0218
FF1B
28FE
2A7C
FE5C
EEDF
EE9B
EF70
EE06
C6FE
C6C6
FEC6
C6FE
C6C6
FEC6
C2C6
ENDCHAR
STARTCHAR 2a2d
ENCODING 10797
SWIDTH 362 0
DWIDTH 16 0
BBX 16 16 0 -2
BITMAP
0230
FF22
28FF
2ADB
FEDA
EEFE
EEDA
EED2
EEFE
C63C
C668
FEFF
C608
C608
FE08
C208
ENDCHAR
STARTCHAR 2a2e
ENCODING 10798
SWIDTH 362 0
DWIDTH 16 0
BBX 16 16 0 -2
BITMAP
11C8
0D98
4DB3
C003
DFFA
9818
1FF0
7FFF
0640
7FFE
644C
687C
7004
6FF4
600C
600C
ENDCHAR
STARTCHAR 2a2f
ENCODING 10799
SWIDTH 362 0
DWIDTH 16 0
BBX 16 16 0 -2
BITMAP
4630
6466
6C7E
4CB6
4DDC
6C78
4470
85C2
7FFF
0644
7FFE
6C7C
783C
7FF4
600C
600C
ENDCHAR
STARTCHAR 2a30
ENCODING 10800
SWIDTH 362 0
DWIDTH 16 0
BBX 16 16 0 -2
BITMAP
2607
249E
7F96
FFD6
0416
7FD6
6496
658E
0C03
06C0
7FFC
6444
787C
7FF4
600C
600C
ENDCHAR
STARTCHAR 2a31
ENCODING 10801
SWIDTH 362 0
DWIDTH 16 0
BBX 16 16 0 -2
BITMAP
03C0
0678
3FEF
7FFA
0038
0DE4
6C1A
4FF3
0003
0660
7FFC
6C64
783C
7FF4
600C
600C
ENDCHAR
STARTCHAR 2a32
ENCODING 10802
SWIDTH 362 0
DWIDTH 16 0
BBX 16 16 0 -2
BITMAP
1870
1C62
337F
7F5A
80B0
7E38
066E
0CC7
0902
06C0
7FFC
6C4C
787C
7FFC
600C
600C
ENDCHAR
STARTCHAR 2a33
ENCODING 10803
SWIDTH 362 0
DWIDTH 16 0
BBX 16 16 0 -2
BITMAP
01FC
3F98
1998
7FFE
07F0
1D1E
6106
7FFE
03E0
0C3F
7FFF
DFF8
1818
1FF8
1818
1810
ENDCHAR
STARTCHAR 2a34
ENCODING 10804
SWIDTH 362 0
DWIDTH 16 0
BBX 16 16 0 -2
BITMAP
01FC
3F98
1998
7FFE
07F0
1D9E
777E
1648
3E30
0C1F
3FF7
E990
0FF0
0802
0FFE
07FE
ENDCHAR
STARTCHAR 2a35
ENCODING 10805
SWIDTH 362 0
DWIDTH 16 0
BBX 16 16 0 -2
BITMAP
0180
7FFE
1188
199C
3D96
63E2
07B0
0D9F
3FFF
F98A
1FF8
1FF8
1188
1FFC
0182
7FFF
ENDCHAR
STARTCHAR 2a36
ENCODING 10806
SWIDTH 362 0
DWIDTH 16 0
BBX 16 16 0 -2
BITMAP
1002
19FF
3C32
27FE
61B2
FD33
93FF
1433
7C3F
1432
DD86
7D83
7182
3D82
E1FE
4102
ENDCHAR
STARTCHAR 2a37
ENCODING 10807
SWIDTH 362 0
DWIDTH 16 0
BBX 16 16 0 -2
BITMAP
3163
3163
396B
696F
C3FB
F96B
21EB
21EB
F96B
2FFB
A96B
FB6B
3263
3E63
E46F
4846
ENDCHAR
STARTCHAR 2a38
ENCODING 10808
SWIDTH 362 0
DWIDTH 16 0
BBX 16 16 0 -2
BITMAP
3022
33F6
3966
6D6C
C170
F962
2166
27F6
F96C
2960
BB63
FB63
3266
3E64
E66C
4C78
ENDCHAR
STARTCHAR 2a39
ENCODING 10809
SWIDTH 362 0
DWIDTH 16 0
BBX 16 16 0 -2
BITMAP
31CC
318C
3988
6FE8
C19F
F98B
21AB
27FB
F98B
298B
A90B
FB5B
37FB
3F33
E227
4046
ENDCHAR
STARTCHAR 2a3a
ENCODING 10810
SWIDTH 362 0
DWIDTH 16 0
BBX 16 16 0 -2
BITMAP
3187
31BC
39B0
69B0
C3F0
F9BF
21B6
21F6
FBB6
2FB6
ABB6
F9B6
31A6
39E6
E3E6
41C4
ENDCHAR
STARTCHAR 2a3b
ENCODING 10811
SWIDTH 362 0
DWIDTH 16 0
BBX 16 16 0 -2
BITMAP
1002
19FF
3C68
2668
616F
FDEF
91EB
15EB
7DEB
15EF
DC68
7C68
7048
3CC8
E188
4308
ENDCHAR
STARTCHAR 2a3c
ENCODING 10812
SWIDTH 362 0
DWIDTH 16 0
BBX 16 16 0 -2
BITMAP
08CE
18C6
3CC6
36C6
62C6
7CC6
98C6
18C4
7E80
1F8E
5DBC
7DE0
3981
1D83
F1FF
40FE
ENDCHAR
STARTCHAR 2a3d
ENCODING 10813
SWIDTH 362 0
DWIDTH 16 0
BBX 16 16 0 -2
BITMAP
1030
3030
383F
6C30
4436
FDFE
3186
3186
FD86
3CEE
BC68
7848
70C8
3CC9
E18F
4307
ENDCHAR
STARTCHAR 2a3e
ENCODING 10814
SWIDTH 362 0
DWIDTH 16 0
BBX 16 16 0 -2
BITMAP
1010
1993
3D92
2792
61FE
FC06
907E
1440
7C42
144C
DC44
7CC4
70C4
3C84
E184
4304
ENDCHAR
STARTCHAR 2a3f
ENCODING 10815
SWIDTH 362 0
DWIDTH 16 0
BBX 16 16 0 -2
BITMAP
1102
198F
3DEE
27BA
61BA
FDEE
9186
15FE
7D02
1430
DC30
7CFE
7030
3C30
E032
43FF
ENDCHAR
STARTCHAR 2a40
ENCODING 10816
SWIDTH 362 0
DWIDTH 16 0
BBX 16 16 0 -2
BITMAP
1060
1862
3DFF
27A3
61A2
FDFE
91EE
15FE
7DDA
159A
DDB2
7DE2
71C2
3D82
E1FE
4100
ENDCHAR
STARTCHAR 2a41
ENCODING 10817
SWIDTH 362 0
DWIDTH 16 0
BBX 16 16 0 -2
BITMAP
30C4
30FE
39B6
6B36
C237
F9A7
21C0
213E
FB26
2F36
A916
F91C
310C
391C
E137
4143
ENDCHAR
STARTCHAR 2a42
ENCODING 10818
SWIDTH 362 0
DWIDTH 16 0
BBX 16 16 0 -2
BITMAP
020C
7E6C
18EC
19EC
18ED
FCED
E30F
0380
07C0
0E70
1FFF
7187
9FFC
09B0
05A2
7FFF
ENDCHAR
STARTCHAR 2a43
ENCODING 10819
SWIDTH 362 0
DWIDTH 16 0
BBX 16 16 0 -2
BITMAP
0E08
387C
200C
3E7C
200C
220C
3FFC
0380
06E0
0C3C
3FFF
E182
1FF8
09B0
05A2
7FFF
ENDCHAR
STARTCHAR 2a44
ENCODING 10820
SWIDTH 362 0
DWIDTH 16 0
BBX 16 16 0 -2
BITMAP
1030
303F
3630
65FE
646C
A438
24EE
2387
2380
0660
1C3C
318F
E18A
0DB0
05A2
7FFF
ENDCHAR
STARTCHAR 2a45
ENCODING 10821
SWIDTH 362 0
DWIDTH 16 0
BBX 16 16 0 -2
BITMAP
0380
07C0
0C38
1FFF
E186
1FFC
0DB0
7FFF
0100
7FFE
0000
0000
1FF8
1FFC
1008
1008
ENDCHAR
STARTCHAR 2a46
ENCODING 10822
SWIDTH 362 0
DWIDTH 16 0
BBX 16 16 0 -2
BITMAP
4646
7E7E
4646
7E7E
4646
7E7E
4006
5FF6
4306
4366
5FFE
4426
47E6
4666
47FE
400C
ENDCHAR
STARTCHAR 2a47
ENCODING 10823
SWIDTH 362 0
DWIDTH 16 0
BBX 16 16 0 -2
BITMAP
4646
7E7E
4646
7E7E
4646
7E7E
4016
5FB6
4D66
4D1E
4D36
5FE6
4D1E
4936
597E
510C
ENDCHAR
STARTCHAR 2a48
ENCODING 10824
SWIDTH 362 0
DWIDTH 16 0
BBX 16 16 0 -2
BITMAP
4646
7E7E
4646
7E7E
4646
7FFE
4186
5FF6
49B6
4DB6
4DB6
4BA6
43C6
47FE
49BE
410C
ENDCHAR
STARTCHAR 2a49
ENCODING 10825
SWIDTH 362 0
DWIDTH 16 0
BBX 16 16 0 -2
BITMAP
4646
7E7E
4646
7E7E
4646
7E7E
4006
4666
4CD6
4CC6
5CDE
4CC6
4C96
4DFE
4DDE
4C06
ENDCHAR
STARTCHAR 2a4a
ENCODING 10826
SWIDTH 362 0
DWIDTH 16 0
BBX 16 16 0 -2
BITMAP
4646
7E7E
4646
7E7E
4646
7E7E
4006
4636
4FFE
4D96
5DF6
5596
45F6
45FE
441E
440C
ENDCHAR
STARTCHAR 2a4b
ENCODING 10827
SWIDTH 362 0
DWIDTH 16 0
BBX 16 16 0 -2
BITMAP
4646
7E7E
4646
7E7E
4646
7E7E
4446
4646
4DF6
4DB6
5D96
55F6
4596
45F6
450E
4406
ENDCHAR
STARTCHAR 2a4c
ENCODING 10828
SWIDTH 362 0
DWIDTH 16 0
BBX 16 16 0 -2
BITMAP
4646
7E7E
4646
7E7E
4646
7E7E
4066
4DF6
4F0E
5BDE
5BF6
6BF6
4BDE
4AEE
4ECE
4C06
ENDCHAR
STARTCHAR 2a4d
ENCODING 10829
SWIDTH 362 0
DWIDTH 16 0
BBX 16 16 0 -2
BITMAP
4646
7E7E
4646
7E7E
4646
7E7E
42F6
4FB6
45B6
47E6
4066
4196
5FFE
4186
439E
410C
ENDCHAR
STARTCHAR 2a4e
ENCODING 10830
SWIDTH 362 0
DWIDTH 16 0
BBX 16 16 0 -2
BITMAP
4646
7E7E
4646
7E7E
4646
7E7E
4C36
4636
5FFE
4186
47F6
5E5E
572E
53E6
401E
400C
ENDCHAR
STARTCHAR 2a4f
ENCODING 10831
SWIDTH 362 0
DWIDTH 16 0
BBX 16 16 0 -2
BITMAP
9A02
FBFF
DB03
D3FF
F313
E318
D3FE
DB1C
CB3F
CB3C
CB36
FA66
D2E6
C766
C466
C866
ENDCHAR
STARTCHAR 2a50
ENCODING 10832
SWIDTH 362 0
DWIDTH 16 0
BBX 16 16 0 -2
BITMAP
9803
FC60
D9FC
D184
F1FC
E1FC
D384
DBFF
CE02
CBDE
CB5E
FB5E
D356
C377
C277
C420
ENDCHAR
STARTCHAR 2a51
ENCODING 10833
SWIDTH 362 0
DWIDTH 16 0
BBX 16 16 0 -2
BITMAP
9904
F9FE
D986
D186
F1FE
E186
D186
D984
CACB
CBDB
CA5B
FBDF
D25B
C25B
C3DF
C25A
ENDCHAR
STARTCHAR 2a52
ENCODING 10834
SWIDTH 362 0
DWIDTH 16 0
BBX 16 16 0 -2
BITMAP
884C
FDFF
C848
D830
D1FF
D0C4
D986
CBF3
CD33
CC30
CFFF
FDB0
D9B6
C133
C333
C230
ENDCHAR
STARTCHAR 2a53
ENCODING 10835
SWIDTH 362 0
DWIDTH 16 0
BBX 16 16 0 -2
BITMAP
888C
FCCC
C8FC
D88C
D0FC
D08C
D93C
C808
CECB
CFDB
CFDF
FE5B
DBDF
C25B
C7D7
C4E2
ENDCHAR
STARTCHAR 2a54
ENCODING 10836
SWIDTH 362 0
DWIDTH 16 0
BBX 16 16 0 -2
BITMAP
983C
F9C4
D924
D1A8
F1FC
E0C4
D0CC
D8C6
C986
C9FF
CB03
FE3F
D557
CB43
C31E
C00C
ENDCHAR
STARTCHAR 2a55
ENCODING 10837
SWIDTH 362 0
DWIDTH 16 0
BBX 16 16 0 -2
BITMAP
8860
FD66
C9FE
D9FE
D186
D1FE
D986
C936
CCB2
CC30
CDF6
FC33
DBFF
C030
C030
C030
ENDCHAR
STARTCHAR 2a56
ENCODING 10838
SWIDTH 362 0
DWIDTH 16 0
BBX 16 16 0 -2
BITMAP
881E
FDF0
C8B4
D9B6
D1B6
D27B
D8B4
C9B6
CDBE
CF7B
CE30
FDFE
D830
C030
C033
C000
ENDCHAR
STARTCHAR 2a57
ENCODING 10839
SWIDTH 362 0
DWIDTH 16 0
BBX 16 16 0 -2
BITMAP
6018
4010
78FE
4216
7E37
3E36
6016
40FE
FE12
98D6
9E58
3030
39F6
2593
4670
8020
ENDCHAR
STARTCHAR 2a58
ENCODING 10840
SWIDTH 362 0
DWIDTH 16 0
BBX 16 16 0 -2
BITMAP
30C6
3C6C
2628
7F7F
6412
E412
EFFE
6CD0
64F3
64B3
7F33
6473
64D3
651E
7F10
6010
ENDCHAR
STARTCHAR 2a59
ENCODING 10841
SWIDTH 362 0
DWIDTH 16 0
BBX 16 16 0 -2
BITMAP
0803
4F00
69E0
696C
6B6C
6B7F
7BEC
0FEC
0F7F
7F6C
6B6C
6B7F
6B6C
4B6C
DB6F
B360
ENDCHAR
STARTCHAR 2a5a
ENCODING 10842
SWIDTH 362 0
DWIDTH 16 0
BBX 16 16 0 -2
BITMAP
2602
1DFF
3C30
6CFE
1C30
6430
9DFF
0CC0
18C6
38C0
78C6
98C0
18C6
18C0
18C6
1800
ENDCHAR
STARTCHAR 2a5b
ENCODING 10843
SWIDTH 362 0
DWIDTH 16 0
BBX 16 16 0 -2
BITMAP
1C60
1E68
1ACC
18FF
19C8
7EC8
5ECE
5ECC
7EC8
5EC8
5EFF
5EC8
5EC8
5EC8
5EFF
46C0
ENDCHAR
STARTCHAR 2a5c
ENCODING 10844
SWIDTH 362 0
DWIDTH 16 0
BBX 16 16 0 -2
BITMAP
0060
0368
FFCC
18FF
5BC8
7FC8
5FCE
5ECC
7EC8
FFC8
9DFF
18C8
18C8
1BC8
FCFF
40C0
ENDCHAR
STARTCHAR 2a5d
ENCODING 10845
SWIDTH 362 0
DWIDTH 16 0
BBX 16 16 0 -2
BITMAP
0260
7E68
00CC
7EFF
54C8
FDC8
FDCE
54CC
7EC8
02C8
7EFF
18C8
18C8
1EC8
F8FF
40C0
ENDCHAR
STARTCHAR 2a5e
ENCODING 10846
SWIDTH 362 0
DWIDTH 16 0
BBX 16 16 0 -2
BITMAP
4460
7E68
44CC
7CFF
44C8
45C8
7FCE
00CC
7EC8
10C8
12FF
FEC8
10C8
10C8
10FF
10C0
ENDCHAR
STARTCHAR 2a5f
ENCODING 10847
SWIDTH 362 0
DWIDTH 16 0
BBX 16 16 0 -2
BITMAP
4440
7ED8
64C8
64FF
7D98
6598
66DA
7CD8
6498
6498
6CFE
0C98
3898
6498
46FF
C080
ENDCHAR
STARTCHAR 2a60
ENCODING 10848
SWIDTH 362 0
DWIDTH 16 0
BBX 16 16 0 -2
BITMAP
2460
7E68
66CC
66FF
7EC8
01C8
7FCE
66CC
7EC8
6EC8
6EFF
7EC8
56C8
46C8
DEFF
8CC0
ENDCHAR
STARTCHAR 2a61
ENCODING 10849
SWIDTH 362 0
DWIDTH 16 0
BBX 16 16 0 -2
BITMAP
4660
3C68
1ECC
63FF
B1C8
FFC8
38CE
78CC
7FC8
7BC8
FAFF
7AC8
7AC8
7EC8
58FF
18C0
ENDCHAR
STARTCHAR 2a62
ENCODING 10850
SWIDTH 362 0
DWIDTH 16 0
BBX 16 16 0 -2
BITMAP
3060
3068
66CC
FEFF
EDC8
2FC8
46CE
B0CC
BEC8
7EC8
6CFF
FCC8
98C8
3CC8
66FF
C2C0
ENDCHAR
STARTCHAR 2a63
ENCODING 10851
SWIDTH 362 0
DWIDTH 16 0
BBX 16 16 0 -2
BITMAP
1E60
7868
1ACC
FFFF
3CC8
3BC8
5BCE
98CC
24C8
3EC8
26FF
26C8
27C8
66C8
46FF
80C0
ENDCHAR
STARTCHAR 2a64
ENCODING 10852
SWIDTH 362 0
DWIDTH 16 0
BBX 16 16 0 -2
BITMAP
1430
7C2C
A564
257F
3FEC
3CEC
256E
256C
3F6C
F76C
A67F
266C
2E6C
3BEC
E37F
61C0
ENDCHAR
STARTCHAR 2a65
ENCODING 10853
SWIDTH 362 0
DWIDTH 16 0
BBX 16 16 0 -2
BITMAP
0E60
F66C
26CC
F4FF
48C8
05C8
7FCE
0CCC
10C8
16C8
F8FF
D0C8
10C8
10C8
70FF
20C0
ENDCHAR
STARTCHAR 2a66
ENCODING 10854
SWIDTH 362 0
DWIDTH 16 0
BBX 16 16 0 -2
BITMAP
3118
379E
65B2
45BF
DDB6
BCF6
2876
6FB6
E1B6
E5B6
653E
6336
6336
67F6
68FF
7020
ENDCHAR
STARTCHAR 2a67
ENCODING 10855
SWIDTH 362 0
DWIDTH 16 0
BBX 16 16 0 -2
BITMAP
1880
3FFE
7080
FFFC
1080
1FFC
1080
1FFE
0000
CC66
C623
3FFC
300C
300C
300C
300C
ENDCHAR
STARTCHAR 2a68
ENCODING 10856
SWIDTH 362 0
DWIDTH 16 0
BBX 16 16 0 -2
BITMAP
0030
7F30
49BE
C9BC
AFF0
1C30
3C30
6A30
00FF
3E30
0030
FFB0
3031
6331
FF3F
419F
ENDCHAR
STARTCHAR 2a69
ENCODING 10857
SWIDTH 362 0
DWIDTH 16 0
BBX 16 16 0 -2
BITMAP
000C
0180
7FFF
D99B
8DE4
3DB8
230E
33FE
0614
6BF8
1990
3190
6191
6113
331F
2C0E
ENDCHAR
STARTCHAR 2a6a
ENCODING 10858
SWIDTH 362 0
DWIDTH 16 0
BBX 16 16 0 -2
BITMAP
000C
0180
7FFF
D99B
8DE4
3DB8
2108
33FC
0000
6802
1FFF
3190
6190
6111
331F
2C1E
ENDCHAR
STARTCHAR 2a6b
ENCODING 10859
SWIDTH 362 0
DWIDTH 16 0
BBX 16 16 0 -2
BITMAP
000C
0180
7FFF
D99B
8DE4
3DB8
1148
1860
1EC2
18CC
1D4C
F878
5838
1838
78CF
3303
ENDCHAR
STARTCHAR 2a6c
ENCODING 10860
SWIDTH 362 0
DWIDTH 16 0
BBX 16 16 0 -2
BITMAP
000C
0180
7FFF
D99B
8DE4
3DB8
1968
1E6C
3FFC
3D44
1C10
0FF8
1330
21E0
07FF
7C0E
ENDCHAR
STARTCHAR 2a6d
ENCODING 10861
SWIDTH 362 0
DWIDTH 16 0
BBX 16 16 0 -2
BITMAP
00F8
7F80
0702
0C30
1FF8
3C2F
E7E2
0660
0662
0660
0662
0660
3E62
F460
4C60
3060
ENDCHAR
STARTCHAR 2a6e
ENCODING 10862
SWIDTH 362 0
DWIDTH 16 0
BBX 16 16 0 -2
BITMAP
0660
0662
7E7E
7E7E
0660
3E7F
E7E0
0182
7FFE
3FFC
318C
3FF8
07E0
0D9F
318F
C100
ENDCHAR
STARTCHAR 2a6f
ENCODING 10863
SWIDTH 362 0
DWIDTH 16 0
BBX 16 16 0 -2
BITMAP
0102
FFFF
1002
3302
FFFE
D502
D502
DD02
D502
D57F
D502
DD02
D57E
D502
FF02
C302
ENDCHAR
STARTCHAR 2a70
ENCODING 10864
SWIDTH 362 0
DWIDTH 16 0
BBX 16 16 0 -2
BITMAP
0202
FEFF
3092
2292
FED2
AAC2
AA80
BAFF
AAA3
AAA6
AA96
BA9C
AA8C
AB9C
FBB7
C3C3
ENDCHAR
STARTCHAR 2a71
ENCODING 10865
SWIDTH 362 0
DWIDTH 16 0
BBX 16 16 0 -2
BITMAP
0030
7F30
1036
7F33
5A32
5A32
5A22
5A62
5A62
5A46
7FBE
430C
0000
4466
C623
8221
ENDCHAR
STARTCHAR 2a72
ENCODING 10866
SWIDTH 362 0
DWIDTH 16 0
BBX 16 16 0 -2
BITMAP
6C20
6D30
FFFF
6F03
7E1C
1018
FE1B
D618
D698
FCD8
10D8
FE18
1018
1018
1078
1030
ENDCHAR
STARTCHAR 2a73
ENCODING 10867
SWIDTH 362 0
DWIDTH 16 0
BBX 16 16 0 -2
BITMAP
6C02
6DFF
FECC
6CCC
7CFC
10CC
FECC
D6FC
D6CC
FCCC
10CF
FF0C
100C
100C
100C
100C
ENDCHAR
STARTCHAR 2a74
ENCODING 10868
SWIDTH 362 0
DWIDTH 16 0
BBX 16 16 0 -2
BITMAP
6C02
6DFF
FE30
6C60
7C64
10C6
FFFF
D7F1
D618
FC10
10FE
FE10
1010
1010
1033
1000
ENDCHAR
STARTCHAR 2a75
ENCODING 10869
SWIDTH 362 0
DWIDTH 16 0
BBX 16 16 0 -2
BITMAP
6C02
6DFF
FE30
6C20
7DE6
1186
FF86
D786
D786
FDFE
1186
FF86
1186
1186
11FE
1182
ENDCHAR
STARTCHAR 2a76
ENCODING 10870
SWIDTH 362 0
DWIDTH 16 0
BBX 16 16 0 -2
BITMAP
6C30
6C30
FFFF
6C38
7C4C
1087
FFFF
D600
D7FE
FC40
10CE
FEC6
1006
100C
107C
1018
ENDCHAR
STARTCHAR 2a77
ENCODING 10871
SWIDTH 362 0
DWIDTH 16 0
BBX 16 16 0 -2
BITMAP
6C30
6C30
FDB6
6DB3
7DB2
11FE
FFB2
D7B2
D7FE
FD30
1036
FE1C
1018
107D
10C7
1303
ENDCHAR
STARTCHAR 2a78
ENCODING 10872
SWIDTH 362 0
DWIDTH 16 0
BBX 16 16 0 -2
BITMAP
6C60
6C64
FEFE
6DCC
7F78
1030
7C60
55F0
5433
7C63
10C2
FFB6
101C
1038
10E0
1380
ENDCHAR
STARTCHAR 2a79
ENCODING 10873
SWIDTH 362 0
DWIDTH 16 0
BBX 16 16 0 -2
BITMAP
6C60
6DF3
FF9F
6D9B
7D9B
159B
FF9B
D79B
D79B
FD9B
119B
FFBB
13DF
111A
1018
1010
ENDCHAR
STARTCHAR 2a7a
ENCODING 10874
SWIDTH 362 0
DWIDTH 16 0
BBX 16 16 0 -2
BITMAP
3030
3033
7DFF
6C32
6FFF
01B6
7DB4
45FF
7C32
1036
FC36
D078
F6FE
F1B7
1633
1030
ENDCHAR
STARTCHAR 2a7b
ENCODING 10875
SWIDTH 362 0
DWIDTH 16 0
BBX 16 16 0 -2
BITMAP
3000
31FF
7C00
2400
3EFE
00C6
7EC6
66C6
7EFE
18C6
7EC6
58FE
5AC6
5800
1803
1000
ENDCHAR
STARTCHAR 2a7c
ENCODING 10876
SWIDTH 362 0
DWIDTH 16 0
BBX 16 16 0 -2
BITMAP
3102
31FF
7D93
6D93
6D93
01FF
7D93
4593
7DB3
11BB
FDAF
D1EF
F7C7
F183
11FF
1102
ENDCHAR
STARTCHAR 2a7d
ENCODING 10877
SWIDTH 362 0
DWIDTH 16 0
BBX 16 16 0 -2
BITMAP
3004
307E
7C44
6C44
6CC4
00C7
7D99
4410
7DFF
1010
FCF4
D0D6
F793
F113
1210
1010
ENDCHAR
STARTCHAR 2a7e
ENCODING 10878
SWIDTH 362 0
DWIDTH 16 0
BBX 16 16 0 -2
BITMAP
3060
30C4
7CFE
6CC4
6DCC
0128
7F38
4438
7C6C
10C7
FDFF
D386
F686
F086
10FE
1084
ENDCHAR
STARTCHAR 2b21
ENCODING 11041
SWIDTH 362 0
DWIDTH 16 0
BBX 16 16 0 -2
BITMAP
2020
3430
FDFF
CC4C
48C6
6883
FF0F
004C
4C4C
4C68
4C38
7C30
4C38
4C6E
7D87
4F01
ENDCHAR
STARTCHAR 2b22
ENCODING 11042
SWIDTH 362 0
DWIDTH 16 0
BBX 16 16 0 -2
BITMAP
0C00
0C04
7FFE
67E6
6466
67E6
601C
0180
3FFC
0C30
0673
0000
1FF8
1FF8
1818
1818
ENDCHAR
STARTCHAR 2b23
ENCODING 11043
SWIDTH 362 0
DWIDTH 16 0
BBX 16 16 0 -2
BITMAP
1800
18FF
DB30
7CFF
30C3
36C2
63FE
D9C2
98C2
18FE
1AC2
18C2
187E
18E6
1983
1301
ENDCHAR
STARTCHAR 2b24
ENCODING 11044
SWIDTH 362 0
DWIDTH 16 0
BBX 16 16 0 -2
BITMAP
0000
677F
6610
667F
6643
6642
67FE
66C2
6642
667E
6642
6642
467E
4666
C6C3
8581
ENDCHAR
STARTCHAR 2b25
ENCODING 11045
SWIDTH 362 0
DWIDTH 16 0
BBX 16 16 0 -2
BITMAP
0000
FFFF
C010
C27F
DE43
C842
C87E
DE42
C842
C87E
C842
FF42
C07E
FF66
00C3
0301
ENDCHAR
STARTCHAR 2b26
ENCODING 11046
SWIDTH 362 0
DWIDTH 16 0
BBX 16 16 0 -2
BITMAP
0002
7EFF
6610
667F
6643
7E42
647E
6042
6642
7E7E
6642
E642
A67E
A666
BEC3
0181
ENDCHAR
STARTCHAR 2b27
ENCODING 11047
SWIDTH 362 0
DWIDTH 16 0
BBX 16 16 0 -2
BITMAP
0000
FEFF
0030
04FE
7EC6
46C6
46FE
7EC6
46C6
46FE
46C6
44C6
007E
FEE4
E183
0303
ENDCHAR
STARTCHAR 2b28
ENCODING 11048
SWIDTH 362 0
DWIDTH 16 0
BBX 16 16 0 -2
BITMAP
0200
7F7F
1810
7E7F
7B43
5B42
D87E
1B42
7F42
187E
1842
1842
187E
FE66
C0C3
0101
ENDCHAR
STARTCHAR 2b29
ENCODING 11049
SWIDTH 362 0
DWIDTH 16 0
BBX 16 16 0 -2
BITMAP
4400
7FFF
4610
46FF
7EC3
46C2
46FE
44C2
40C2
46FE
5EC2
70C2
42FE
4236
7E43
7E81
ENDCHAR
STARTCHAR 2b2a
ENCODING 11050
SWIDTH 362 0
DWIDTH 16 0
BBX 16 16 0 -2
BITMAP
0100
FFFF
C118
C57F
FF63
C162
DD7E
DD62
D562
D57E
DD62
D162
C17E
C136
CF63
C3C1
ENDCHAR
STARTCHAR 2b2b
ENCODING 11051
SWIDTH 362 0
DWIDTH 16 0
BBX 16 16 0 -2
BITMAP
0000
067F
3618
367F
3663
F662
B77E
B662
B662
B67E
B662
B6E2
B77E
F666
C0C3
0181
ENDCHAR
STARTCHAR 2b2c
ENCODING 11052
SWIDTH 362 0
DWIDTH 16 0
BBX 16 16 0 -2
BITMAP
0602
3CFF
C310
B6FE
D4C6
60C6
60FE
FCC6
6CC6
6CFE
6CC6
6CC6
6E7E
4CE4
CD83
0301
ENDCHAR
STARTCHAR 2b2d
ENCODING 11053
SWIDTH 362 0
DWIDTH 16 0
BBX 16 16 0 -2
BITMAP
0400
FEFF
6410
6F7F
6343
4342
D77E
9A42
1842
FF7E
1842
7C42
DA7E
9B66
18C3
1181
ENDCHAR
STARTCHAR 2b2e
ENCODING 11054
SWIDTH 362 0
DWIDTH 16 0
BBX 16 16 0 -2
BITMAP
1C02
79FF
7810
7EFE
58C6
98C6
1BFE
3CC6
34C6
34FE
34C6
35C6
267E
64E4
4183
8301
ENDCHAR
STARTCHAR 2b2f
ENCODING 11055
SWIDTH 362 0
DWIDTH 16 0
BBX 16 16 0 -2
BITMAP
3002
31FF
CE10
C6FE
C6C6
C6C6
C6FE
EEC6
C6C6
C6FE
C6C6
C6C6
C67E
FEE4
C183
0301
ENDCHAR
STARTCHAR 2b30
ENCODING 11056
SWIDTH 362 0
DWIDTH 16 0
BBX 16 16 0 -2
BITMAP
0700
7C7F
4018
437F
5F63
5762
577E
5762
5F62
507E
5062
D162
D17E
DF66
9FC3
0181
ENDCHAR
STARTCHAR 2b31
ENCODING 11057
SWIDTH 362 0
DWIDTH 16 0
BBX 16 16 0 -2
BITMAP
0602
1CFF
6630
0EFE
38C6
C6C6
18FE
70C6
18C6
FFFE
DBC6
DAC6
DEFE
9AC4
1983
1701
ENDCHAR
STARTCHAR 2b32
ENCODING 11058
SWIDTH 362 0
DWIDTH 16 0
BBX 16 16 0 -2
BITMAP
0100
7FA6
439C
7F9E
49F2
7FD8
6F9B
6F9C
6FBE
7FBB
48D9
4AD8
CFC1
F161
813F
800F
ENDCHAR
STARTCHAR 2b33
ENCODING 11059
SWIDTH 362 0
DWIDTH 16 0
BBX 16 16 0 -2
BITMAP
0118
7F9E
43BE
7FB6
49DC
7F98
6FAC
6FDF
6F9B
7FBE
488C
4AD8
CFF1
F161
813F
800F
ENDCHAR
STARTCHAR 2b34
ENCODING 11060
SWIDTH 362 0
DWIDTH 16 0
BBX 16 16 0 -2
BITMAP
0102
7F9F
43F0
7FE3
49FF
7FE0
6FFF
6FFB
6FFB
7FDF
4890
4AC0
CFC1
F161
813F
800F
ENDCHAR
STARTCHAR 2b35
ENCODING 11061
SWIDTH 362 0
DWIDTH 16 0
BBX 16 16 0 -2
BITMAP
0108
7FBA
43BF
7FBA
49AE
7FFF
6FB2
6FBE
6FA2
7FE2
48E6
4AC6
CFC1
F161
813F
800F
ENDCHAR
STARTCHAR 2b36
ENCODING 11062
SWIDTH 362 0
DWIDTH 16 0
BBX 16 16 0 -2
BITMAP
20C0
30C0
31FF
7F80
21FF
220E
3CFE
25D7
2453
65FD
645E
445C
445E
4CD6
FC93
9991
ENDCHAR
STARTCHAR 2b37
ENCODING 11063
SWIDTH 362 0
DWIDTH 16 0
BBX 16 16 0 -2
BITMAP
3102
39FF
6D18
4D58
F978
8D7E
7D66
4D66
7D66
4D7E
7D78
4178
4958
7D18
671B
4100
ENDCHAR
STARTCHAR 2b38
ENCODING 11064
SWIDTH 362 0
DWIDTH 16 0
BBX 16 16 0 -2
BITMAP
030E
306E
362C
6638
FDBC
9BC6
3660
6FF8
981F
381E
DFF8
1818
1FFC
196C
1F38
0C0E
ENDCHAR
STARTCHAR 2b39
ENCODING 11065
SWIDTH 362 0
DWIDTH 16 0
BBX 16 16 0 -2
BITMAP
4030
6070
6478
7CCC
D1FF
9103
FFFC
1184
F1FC
DF84
D1FE
D1A6
D79C
F9A6
C1C3
0081
ENDCHAR
STARTCHAR 2b3a
ENCODING 11066
SWIDTH 362 0
DWIDTH 16 0
BBX 16 16 0 -2
BITMAP
0180
07E0
0FFC
3FFF
CFF0
0FFC
08F8
0F38
0C08
0C20
0C34
0C30
0C33
0C30
1C1C
7006
ENDCHAR
STARTCHAR 2b3b
ENCODING 11067
SWIDTH 362 0
DWIDTH 16 0
BBX 16 16 0 -2
BITMAP
3102
39FF
6DF0
4DE0
F9E2
8DFE
7DD8
4D98
7D98
4DFF
7D98
4190
49B6
7D63
67C1
4181
ENDCHAR
STARTCHAR 2b3c
ENCODING 11068
SWIDTH 362 0
DWIDTH 16 0
BBX 16 16 0 -2
BITMAP
3030
3830
6C32
4DFF
F8B4
8DB4
7DBE
4DFB
7F73
4C30
7C30
4078
484C
7C86
6503
4601
ENDCHAR
STARTCHAR 2b3d
ENCODING 11069
SWIDTH 362 0
DWIDTH 16 0
BBX 16 16 0 -2
BITMAP
3102
39FF
6D7B
4D7B
F97B
8DCF
7D03
4D4B
7D7F
4D6B
7D6B
416B
4903
7D03
651F
4106
ENDCHAR
STARTCHAR 2b3e
ENCODING 11070
SWIDTH 362 0
DWIDTH 16 0
BBX 16 16 0 -2
BITMAP
2182
31C3
79E2
4962
F362
8B62
7F62
5F7A
7B6A
5B6E
7B7E
4367
5BED
7B49
6B11
4320
ENDCHAR
STARTCHAR 2b3f
ENCODING 11071
SWIDTH 362 0
DWIDTH 16 0
BBX 16 16 0 -2
BITMAP
30C0
38C6
6DFE
4D0C
FB7C
8C0C
7DFE
4C64
7C64
4C74
7DFC
4064
4865
7DFF
6403
4001
ENDCHAR
STARTCHAR 2b40
ENCODING 11072
SWIDTH 362 0
DWIDTH 16 0
BBX 16 16 0 -2
BITMAP
300E
39F2
6C43
4DB6
F8BC
8C04
7DFE
4C0C
7C18
4C30
7FFF
4030
4830
7C30
64F0
4060
ENDCHAR
STARTCHAR 2b41
ENCODING 11073
SWIDTH 362 0
DWIDTH 16 0
BBX 16 16 0 -2
BITMAP
307B
345E
26B4
205E
7F6A
60FF
6730
667E
7646
7646
7C7E
4C46
4C7E
DF46
3346
C046
ENDCHAR
STARTCHAR 2b42
ENCODING 11074
SWIDTH 362 0
DWIDTH 16 0
BBX 16 16 0 -2
BITMAP
0818
7C12
1193
14D6
7CD4
3810
75FF
5610
90D0
FED4
4492
4593
7D13
4511
4C10
4C10
ENDCHAR
STARTCHAR 2b43
ENCODING 11075
SWIDTH 362 0
DWIDTH 16 0
BBX 16 16 0 -2
BITMAP
4426
6666
67E6
6006
7FFE
3FFC
2188
3FFC
2188
3FFC
2182
3FFF
09B3
6CDB
460F
C006
ENDCHAR
STARTCHAR 2b44
ENCODING 11076
SWIDTH 362 0
DWIDTH 16 0
BBX 16 16 0 -2
BITMAP
4402
7DFF
5180
7D80
5180
51BE
7DB6
51B6
7FB6
07B6
7FBE
F780
E780
8580
3DFF
18FF
ENDCHAR
STARTCHAR 2b45
ENCODING 11077
SWIDTH 362 0
DWIDTH 16 0
BBX 16 16 0 -2
BITMAP
4470
7C62
51FF
7C63
5062
5042
7CC6
508E
7F04
07FE
7F86
F786
E786
8586
3DFE
1982
ENDCHAR
STARTCHAR 2b46
ENCODING 11078
SWIDTH 362 0
DWIDTH 16 0
BBX 16 16 0 -2
BITMAP
4430
7C30
5036
7DFE
51B6
51B6
7FFF
50C0
7CC6
06FE
7E06
F606
E606
8406
3C3C
1818
ENDCHAR
STARTCHAR 2b47
ENCODING 11079
SWIDTH 362 0
DWIDTH 16 0
BBX 16 16 0 -2
BITMAP
45C0
7D80
5182
7DFF
5360
5260
7C62
507E
7E60
0660
7E62
F67E
E660
8460
3C60
1860
ENDCHAR
STARTCHAR 2b48
ENCODING 11080
SWIDTH 362 0
DWIDTH 16 0
BBX 16 16 0 -2
BITMAP
4406
7DFE
5040
7C40
50C3
50C0
7CC4
50E6
7EA6
06AC
7F9C
F798
E718
873C
3F67
19C3
ENDCHAR
STARTCHAR 2b49
ENCODING 11081
SWIDTH 362 0
DWIDTH 16 0
BBX 16 16 0 -2
BITMAP
4467
7E46
7846
7C46
7846
7C46
7C40
7842
7E7F
0E43
3EC2
36C2
A682
8682
3D82
0B02
ENDCHAR
STARTCHAR 2b4a
ENCODING 11082
SWIDTH 362 0
DWIDTH 16 0
BBX 16 16 0 -2
BITMAP
440F
7CF6
5096
7C96
5096
5096
7C96
5096
7E96
06B6
7EB2
F6A2
E7AB
85CF
3DF7
1A41
ENDCHAR
STARTCHAR 2b4b
ENCODING 11083
SWIDTH 362 0
DWIDTH 16 0
BBX 16 16 0 -2
BITMAP
4410
7C30
5038
7C2C
5066
50D7
7D93
5110
7ED4
06D6
7E93
F713
E611
8410
3CF0
1820
ENDCHAR
STARTCHAR 2b4c
ENCODING 11084
SWIDTH 362 0
DWIDTH 16 0
BBX 16 16 0 -2
BITMAP
1082
10FF
30D8
28FF
64D8
CED8
FAFE
42D8
00FF
7E03
4657
46FB
4783
4703
7E1E
400C
ENDCHAR
STARTCHAR 2b4d
ENCODING 11085
SWIDTH 362 0
DWIDTH 16 0
BBX 16 16 0 -2
BITMAP
1008
1190
1FF0
1FF0
1186
0006
69A6
449E
0184
3FFC
0180
7FFF
0700
0C30
3FFC
3806
ENDCHAR
STARTCHAR 2b4e
ENCODING 11086
SWIDTH 362 0
DWIDTH 16 0
BBX 16 16 0 -2
BITMAP
1008
1180
1FF0
1190
1FF0
1FFE
0006
6DB6
409E
0004
7FFC
6664
7FFC
0C60
1860
7040
ENDCHAR
STARTCHAR 2b4f
ENCODING 11087
SWIDTH 362 0
DWIDTH 16 0
BBX 16 16 0 -2
BITMAP
0430
7E30
7C33
7C30
7460
FF44
82C2
6DFF
7CE9
7C68
6C68
7C68
74C8
44C9
DD8F
8F07
ENDCHAR
STARTCHAR 2b50
ENCODING 11088
SWIDTH 362 0
DWIDTH 16 0
BBX 16 16 0 -2
BITMAP
0400
7EFE
7CC6
7CC6
74C6
FFC6
82C6
6CFE
7CC6
7C00
6C6C
7C66
74C2
44C3
DD83
8B01
ENDCHAR
STARTCHAR 2b51
ENCODING 11089
SWIDTH 362 0
DWIDTH 16 0
BBX 16 16 0 -2
BITMAP
0418
7F93
7D92
7D92
75FE
FF00
82C0
6CC0
7C86
7C9C
6CE0
7C80
7481
4483
DCFF
887E
ENDCHAR
STARTCHAR 2b52
ENCODING 11090
SWIDTH 362 0
DWIDTH 16 0
BBX 16 16 0 -2
BITMAP
0418
7ED0
7CD0
7CFF
7490
FF90
8310
6FFF
7C30
7C38
6C28
7C68
74CC
4486
DD03
8A01
ENDCHAR
STARTCHAR 2b53
ENCODING 11091
SWIDTH 362 0
DWIDTH 16 0
BBX 16 16 0 -2
BITMAP
0460
7E62
7CFF
7D80
7500
FF7C
8244
6C44
7C44
7DFF
6C44
7CC4
74C4
4485
DD87
8B07
ENDCHAR
STARTCHAR 2b54
ENCODING 11092
SWIDTH 362 0
DWIDTH 16 0
BBX 16 16 0 -2
BITMAP
0406
7E1C
7C60
7CC0
740E
FF3C
83E0
6DA6
7DAC
7DB8
6D90
7D98
758C
45BE
DDC7
8882
ENDCHAR
STARTCHAR 2b55
ENCODING 11093
SWIDTH 362 0
DWIDTH 16 0
BBX 16 16 0 -2
BITMAP
0410
7E30
7C38
7C6C
746E
FFC7
83FC
6C10
7C10
7C12
6DFF
7C10
7410
4410
DC10
8810
ENDCHAR
STARTCHAR 2b56
ENCODING 11094
SWIDTH 362 0
DWIDTH 16 0
BBX 16 16 0 -2
BITMAP
0306
7FFE
0FF0
1FF0
200E
6006
6FE6
6FE6
605C
0D30
199F
6186
818C
0180
0182
FFFF
ENDCHAR
STARTCHAR 2b57
ENCODING 11095
SWIDTH 362 0
DWIDTH 16 0
BBX 16 16 0 -2
BITMAP
630C
601C
7E66
7E0C
FF33
630E
FF38
41E2
7FFF
C182
F19C
318C
3188
31B8
3198
0100
ENDCHAR
STARTCHAR 2b58
ENCODING 11096
SWIDTH 362 0
DWIDTH 16 0
BBX 16 16 0 -2
BITMAP
7F0C
7E38
6046
611C
FF62
6F0F
F978
40D0
00C8
3FFF
20C0
2058
2070
6071
419F
8707
ENDCHAR
STARTCHAR 2b59
ENCODING 11097
SWIDTH 362 0
DWIDTH 16 0
BBX 16 16 0 -2
BITMAP
630C
601C
7E66
7E0C
FF37
630E
FF38
41E0
0180
318C
3188
3FF8
4184
6186
6186
7FFC
ENDCHAR
STARTCHAR 2b5a
ENCODING 11098
SWIDTH 362 0
DWIDTH 16 0
BBX 16 16 0 -2
BITMAP
7F0C
7E18
6066
601C
FF67
6F0C
F9B0
5800
3806
61C0
8180
3FFE
2186
219E
2184
0180
ENDCHAR
STARTCHAR 2b5b
ENCODING 11099
SWIDTH 362 0
DWIDTH 16 0
BBX 16 16 0 -2
BITMAP
7F0C
7E18
6066
601C
FF67
6F0C
F9B0
5800
3806
61C0
8980
1990
118C
2186
4780
0180
ENDCHAR
STARTCHAR 2b5c
ENCODING 11100
SWIDTH 362 0
DWIDTH 16 0
BBX 16 16 0 -2
BITMAP
230C
601C
7E64
7E0E
FF38
6607
FF3C
4170
00F8
1F80
1006
1FFE
1020
1020
3033
0000
ENDCHAR
STARTCHAR 2b5d
ENCODING 11101
SWIDTH 362 0
DWIDTH 16 0
BBX 16 16 0 -2
BITMAP
4202
7F7F
581A
7E7E
581A
7F7E
4182
4182
4362
4DBA
599A
47A2
4D92
5992
439E
4006
ENDCHAR
STARTCHAR 2b5e
ENCODING 11102
SWIDTH 362 0
DWIDTH 16 0
BBX 16 16 0 -2
BITMAP
4102
5FFF
5D1A
7B1C
5F18
6F78
FF58
405F
6058
6058
7ED8
60D8
60F8
66B8
791F
4200
ENDCHAR
STARTCHAR 2b5f
ENCODING 11103
SWIDTH 362 0
DWIDTH 16 0
BBX 16 16 0 -2
BITMAP
0618
0010
2C10
6C10
6CFF
7C10
0010
FE10
CEF6
EEC6
FEC6
D6C6
D6C6
D6C6
DEFE
D6C2
ENDCHAR
STARTCHAR 2b60
ENCODING 11104
SWIDTH 362 0
DWIDTH 16 0
BBX 16 16 0 -2
BITMAP
3000
2030
FC60
D446
D4C3
FDFB
D481
D406
7CFE
3EC6
3EC6
7FFE
7C00
5801
DFFF
8FFF
ENDCHAR
STARTCHAR 2b61
ENCODING 11105
SWIDTH 362 0
DWIDTH 16 0
BBX 16 16 0 -2
BITMAP
0060
FE60
D7FE
D7B6
F7B6
F7FE
D7B6
D7B6
FFFE
107E
105E
10DF
10D9
1199
131F
160F
ENDCHAR
STARTCHAR 2b62
ENCODING 11106
SWIDTH 362 0
DWIDTH 16 0
BBX 16 16 0 -2
BITMAP
6060
6062
61FF
7D33
F132
B1FE
3132
FF32
31FE
307E
385E
2CDF
6CD9
4599
C31F
860F
ENDCHAR
STARTCHAR 2b63
ENCODING 11107
SWIDTH 362 0
DWIDTH 16 0
BBX 16 16 0 -2
BITMAP
1860
7060
51FE
7DB6
D1B6
91FE
91B6
7FB6
11FE
107E
385E
3CDF
24D9
6799
431F
860F
ENDCHAR
STARTCHAR 2b64
ENCODING 11108
SWIDTH 362 0
DWIDTH 16 0
BBX 16 16 0 -2
BITMAP
2002
61FF
7982
5908
FC7C
FC48
5448
7C48
5448
5448
7C48
00C8
3CC8
A889
810F
8607
ENDCHAR
STARTCHAR 2b65
ENCODING 11109
SWIDTH 362 0
DWIDTH 16 0
BBX 16 16 0 -2
BITMAP
2002
60FE
7800
5800
FC00
FC03
55FF
7C64
5464
5464
7C64
0044
3CC4
A884
8104
8204
ENDCHAR
STARTCHAR 2b66
ENCODING 11110
SWIDTH 362 0
DWIDTH 16 0
BBX 16 16 0 -2
BITMAP
2002
61FF
7998
5998
FD98
FD98
55FF
7C18
5498
5478
7C38
001C
3C1E
A81B
80F9
8030
ENDCHAR
STARTCHAR 2b67
ENCODING 11111
SWIDTH 362 0
DWIDTH 16 0
BBX 16 16 0 -2
BITMAP
2000
61FF
7810
5818
FC30
FC20
5443
7CC6
546C
5438
7C30
0064
3CC2
A9FF
81C1
8000
ENDCHAR
STARTCHAR 2b68
ENCODING 11112
SWIDTH 362 0
DWIDTH 16 0
BBX 16 16 0 -2
BITMAP
2008
60FC
78CC
58CC
FCCC
FC87
5500
7DFE
5446
544C
7C68
0038
3C38
A87C
80CF
8303
ENDCHAR
STARTCHAR 2b69
ENCODING 11113
SWIDTH 362 0
DWIDTH 16 0
BBX 16 16 0 -2
BITMAP
20C0
60C0
78C3
58C0
FD00
FE04
547E
7C46
5446
5446
7CC6
00C6
3C86
A987
8307
8603
ENDCHAR
STARTCHAR 2b6a
ENCODING 11114
SWIDTH 362 0
DWIDTH 16 0
BBX 16 16 0 -2
BITMAP
200E
60F0
78C0
58C0
FCC0
FCFF
54C4
7CC4
54C4
54C4
7C84
0084
3D84
A904
8304
8204
ENDCHAR
STARTCHAR 2b6b
ENCODING 11115
SWIDTH 362 0
DWIDTH 16 0
BBX 16 16 0 -2
BITMAP
0018
0000
0006
7FFE
0460
0861
307F
6C3E
0FC0
18C8
3FFC
1FF8
1988
1FF8
2666
6223
ENDCHAR
STARTCHAR 2b6c
ENCODING 11116
SWIDTH 362 0
DWIDTH 16 0
BBX 16 16 0 -2
BITMAP
01C0
0D98
1D8E
319A
61E0
41C0
0E00
7C00
0FC0
18C8
3FFC
1FF8
1988
1FF8
2666
6223
ENDCHAR
STARTCHAR 2b6d
ENCODING 11117
SWIDTH 362 0
DWIDTH 16 0
BBX 16 16 0 -2
BITMAP
3030
2C13
7FFF
4460
7C60
4462
7C7F
7E62
4062
7E62
0E62
7E42
B6C2
86C6
3DBE
0B0C
ENDCHAR
STARTCHAR 2b6e
ENCODING 11118
SWIDTH 362 0
DWIDTH 16 0
BBX 16 16 0 -2
BITMAP
3000
2CFF
7E18
441A
7CFF
44DB
7CDA
7EDA
40DA
7EDA
0EDA
7EDA
B6DA
86DE
3C18
0810
ENDCHAR
STARTCHAR 2b6f
ENCODING 11119
SWIDTH 362 0
DWIDTH 16 0
BBX 16 16 0 -2
BITMAP
3000
2CFF
7E18
4418
7CDA
44DF
7CDB
7EDB
40DB
7EFF
0E03
7E03
B603
8603
3C1E
080C
ENDCHAR
STARTCHAR 2b70
ENCODING 11120
SWIDTH 362 0
DWIDTH 16 0
BBX 16 16 0 -2
BITMAP
3002
2CFF
7E33
4433
7C23
4463
7C5E
7E8C
4002
7FFF
0E33
7E33
B623
8663
3CDE
098C
ENDCHAR
STARTCHAR 2b71
ENCODING 11121
SWIDTH 362 0
DWIDTH 16 0
BBX 16 16 0 -2
BITMAP
3060
2C40
7EC3
44C3
7C83
4503
7CFB
7E03
4003
7E0B
0EFB
7E03
B603
8606
3C3E
080C
ENDCHAR
STARTCHAR 2b72
ENCODING 11122
SWIDTH 362 0
DWIDTH 16 0
BBX 16 16 0 -2
BITMAP
3030
2DFF
7F9B
459B
7D9B
459B
7D9B
7F9B
419B
7F9B
0FBB
7FFB
B7DF
8698
3C18
0818
ENDCHAR
STARTCHAR 2b73
ENCODING 11123
SWIDTH 362 0
DWIDTH 16 0
BBX 16 16 0 -2
BITMAP
3010
2C30
7E38
4464
7C47
4483
7D64
7E64
4064
7E64
0E64
7E64
B644
86C4
3C84
0904
ENDCHAR
STARTCHAR 2b74
ENCODING 11124
SWIDTH 362 0
DWIDTH 16 0
BBX 16 16 0 -2
BITMAP
0430
7E26
0CFE
68C6
30FE
FFC6
1EFE
1CFF
18C0
18FF
180B
1857
19A3
1903
F81E
300C
ENDCHAR
STARTCHAR 2b75
ENCODING 11125
SWIDTH 362 0
DWIDTH 16 0
BBX 16 16 0 -2
BITMAP
1830
1826
FFFE
18C6
18FE
7EC6
00FE
7EFF
06C0
08FF
100B
2057
40A3
C383
FE1E
7E0C
ENDCHAR
STARTCHAR 2b76
ENCODING 11126
SWIDTH 362 0
DWIDTH 16 0
BBX 16 16 0 -2
BITMAP
6630
6426
64FE
64C6
FEFE
64C6
64FE
64FF
6EC0
6CFF
640B
6457
65A3
4503
C41E
840C
ENDCHAR
STARTCHAR 2b77
ENCODING 11127
SWIDTH 362 0
DWIDTH 16 0
BBX 16 16 0 -2
BITMAP
0230
FE26
58FE
58C6
D8FE
D8C6
FFFE
18FF
18C0
1CFF
3C0B
3C57
2DA3
6F83
4C1E
800C
ENDCHAR
STARTCHAR 2b78
ENCODING 11128
SWIDTH 362 0
DWIDTH 16 0
BBX 16 16 0 -2
BITMAP
0230
FF26
30FE
30C6
20FE
44C6
CCFE
6CFF
38C0
10FF
300B
2057
64A3
CF83
F61E
400C
ENDCHAR
STARTCHAR 2b79
ENCODING 11129
SWIDTH 362 0
DWIDTH 16 0
BBX 16 16 0 -2
BITMAP
1830
1626
12FE
12C6
FEFE
10C6
10FE
38FF
38C0
38FF
280B
2857
6AA3
4F83
CC1E
800C
ENDCHAR
STARTCHAR 2b7a
ENCODING 11130
SWIDTH 362 0
DWIDTH 16 0
BBX 16 16 0 -2
BITMAP
4C60
6C66
4DFE
4D86
4DFE
FD86
0DFE
0DFF
7D80
4DFF
4C0B
4CF7
4D53
CF03
CC3E
8C0C
ENDCHAR
STARTCHAR 2b7b
ENCODING 11131
SWIDTH 362 0
DWIDTH 16 0
BBX 16 16 0 -2
BITMAP
C030
CC26
C8FE
C8C6
DEFE
F2C6
E0FE
C2FF
FEC0
C0FF
C00B
C057
C0A3
C383
FE1E
7E0C
ENDCHAR
STARTCHAR 2b7c
ENCODING 11132
SWIDTH 362 0
DWIDTH 16 0
BBX 16 16 0 -2
BITMAP
6030
6026
7FFE
C0C6
86FE
00C6
06FE
7EFF
04C0
08FF
100B
2057
40A3
C383
FE1E
7E0C
ENDCHAR
STARTCHAR 2b7d
ENCODING 11133
SWIDTH 362 0
DWIDTH 16 0
BBX 16 16 0 -2
BITMAP
6010
6032
427F
7F42
AB7E
AB42
2B7E
2B7F
6B40
7B7F
5B03
5357
B3A3
A383
5E3E
0C0C
ENDCHAR
STARTCHAR 2b7e
ENCODING 11134
SWIDTH 362 0
DWIDTH 16 0
BBX 16 16 0 -2
BITMAP
1802
10FF
1F82
1080
B67C
C664
DE64
EE64
BE64
FE64
FE64
BE64
EE44
D645
C6C7
C787
ENDCHAR
STARTCHAR 2c21
ENCODING 11297
SWIDTH 362 0
DWIDTH 16 0
BBX 16 16 0 -2
BITMAP
1806
103F
1F70
1010
B610
C6FF
DE10
EE10
BE10
FEFF
FE10
BE10
EE10
D611
C61F
C61F
ENDCHAR
STARTCHAR 2c22
ENCODING 11298
SWIDTH 362 0
DWIDTH 16 0
BBX 16 16 0 -2
BITMAP
0184
01FE
7FFC
69B6
67F6
7BDE
6776
799E
7FFE
0000
3FFC
200C
300C
2008
0003
0000
ENDCHAR
STARTCHAR 2c23
ENCODING 11299
SWIDTH 362 0
DWIDTH 16 0
BBX 16 16 0 -2
BITMAP
1830
0B18
FF0B
D466
FF66
D526
D526
FF34
F41C
E41C
FF18
E41C
A434
BD36
B763
27C3
ENDCHAR
STARTCHAR 2c24
ENCODING 11300
SWIDTH 362 0
DWIDTH 16 0
BBX 16 16 0 -2
BITMAP
1802
0B7F
FF00
D400
FF00
D503
D57F
FF26
F426
E426
FF26
E426
A466
BD46
B7C6
2784
ENDCHAR
STARTCHAR 2c25
ENCODING 11301
SWIDTH 362 0
DWIDTH 16 0
BBX 16 16 0 -2
BITMAP
1860
0B60
FF62
D47F
FFFF
D5BF
D53F
FF2B
F42B
E47B
FF5B
E4D3
A4B3
BD23
B75E
270C
ENDCHAR
STARTCHAR 2c26
ENCODING 11302
SWIDTH 362 0
DWIDTH 16 0
BBX 16 16 0 -2
BITMAP
0182
7FFF
4632
4633
7FFE
5862
5FFF
5F63
5D3F
4080
7FFF
4418
C330
C1E0
83FF
3C07
ENDCHAR
STARTCHAR 2c27
ENCODING 11303
SWIDTH 362 0
DWIDTH 16 0
BBX 16 16 0 -2
BITMAP
0182
7FFF
4632
4633
7FFE
5862
5FFF
5F63
5C3F
5FFE
4218
421B
DFFF
C618
8C18
3010
ENDCHAR
STARTCHAR 2c28
ENCODING 11304
SWIDTH 362 0
DWIDTH 16 0
BBX 16 16 0 -2
BITMAP
0082
7FFF
6332
6333
6332
7860
7FFE
7861
7FF3
6CFF
60CC
7FFF
4190
430C
8C07
B803
ENDCHAR
STARTCHAR 2c29
ENCODING 11305
SWIDTH 362 0
DWIDTH 16 0
BBX 16 16 0 -2
BITMAP
0182
7FFF
4632
4633
4632
5860
5FFE
5861
5F73
5B3F
4384
464C
CE30
DF98
E70F
0603
ENDCHAR
STARTCHAR 2c2a
ENCODING 11306
SWIDTH 362 0
DWIDTH 16 0
BBX 16 16 0 -2
BITMAP
1818
1210
FE10
5413
FE93
FAD6
3C50
6610
B238
3E38
642C
7C6C
CC46
1EC6
3383
C303
ENDCHAR
STARTCHAR 2c2b
ENCODING 11307
SWIDTH 362 0
DWIDTH 16 0
BBX 16 16 0 -2
BITMAP
1830
1230
FE30
54FE
FE36
FA36
3C36
6636
B3FF
3E30
6420
7C6C
CC66
1EC3
3383
C301
ENDCHAR
STARTCHAR 2c2c
ENCODING 11308
SWIDTH 362 0
DWIDTH 16 0
BBX 16 16 0 -2
BITMAP
1818
1210
FE10
5410
FFFF
FA30
3C38
6638
B27C
3E56
6496
7D93
CF13
1E10
3210
C010
ENDCHAR
STARTCHAR 2c2d
ENCODING 11309
SWIDTH 362 0
DWIDTH 16 0
BBX 16 16 0 -2
BITMAP
1860
1240
FE40
54FF
FE93
FB92
3C10
6630
B238
3E38
642C
7C64
CC46
1EC6
3383
C303
ENDCHAR
STARTCHAR 2c2e
ENCODING 11310
SWIDTH 362 0
DWIDTH 16 0
BBX 16 16 0 -2
BITMAP
1860
1260
FE60
5443
FEFF
FAC6
3CC4
6644
B26C
3E2C
6438
7C38
CC38
1E6C
32C7
C303
ENDCHAR
STARTCHAR 2c2f
ENCODING 11311
SWIDTH 362 0
DWIDTH 16 0
BBX 16 16 0 -2
BITMAP
1818
1210
FE33
5430
FE92
FAD6
3C96
6696
B296
3E96
64FE
7C10
CC10
1E11
321F
C01F
ENDCHAR
STARTCHAR 2c30
ENCODING 11312
SWIDTH 362 0
DWIDTH 16 0
BBX 16 16 0 -2
BITMAP
0C02
045F
FFC4
9184
9184
FFDF
9184
BBC4
BBCF
BBCC
BBC4
BBC4
BFC4
B7C4
D38C
918C
ENDCHAR
STARTCHAR 2c31
ENCODING 11313
SWIDTH 362 0
DWIDTH 16 0
BBX 16 16 0 -2
BITMAP
0C1C
0458
FFD8
919F
919A
FFDA
91BA
BBCA
BBCE
BBCE
BBC4
BBCE
BFCE
F7DA
D3B3
91E3
ENDCHAR
STARTCHAR 2c32
ENCODING 11314
SWIDTH 362 0
DWIDTH 16 0
BBX 16 16 0 -2
BITMAP
6430
FF32
643F
7C78
00B0
FF30
4630
5E33
5EFF
7E30
5E30
7E30
4030
6431
423F
831F
ENDCHAR
STARTCHAR 2c33
ENCODING 11315
SWIDTH 362 0
DWIDTH 16 0
BBX 16 16 0 -2
BITMAP
1E02
78FF
1A33
3C33
7E33
DA33
98B3
3C73
763B
DA3B
5E23
7C63
3C43
DEC3
1BBE
330C
ENDCHAR
STARTCHAR 2c34
ENCODING 11316
SWIDTH 362 0
DWIDTH 16 0
BBX 16 16 0 -2
BITMAP
0260
FF60
DE63
FEC0
DA80
FF02
187E
7E06
180C
1A18
FC30
C060
2AC1
AA81
A0FF
807F
ENDCHAR
STARTCHAR 2c35
ENCODING 11317
SWIDTH 362 0
DWIDTH 16 0
BBX 16 16 0 -2
BITMAP
0230
FF30
DE3E
FE7C
DAB0
FE30
1830
7E32
18FE
1A30
FC30
C030
2A30
AA31
A03F
801F
ENDCHAR
STARTCHAR 2c36
ENCODING 11318
SWIDTH 362 0
DWIDTH 16 0
BBX 16 16 0 -2
BITMAP
0200
7FFF
0C30
181C
300F
FFFE
3DB8
37E8
33C8
3188
018C
0180
0186
4CC4
4662
C223
ENDCHAR
STARTCHAR 2c37
ENCODING 11319
SWIDTH 362 0
DWIDTH 16 0
BBX 16 16 0 -2
BITMAP
3300
3300
3F00
0300
7FFC
6644
7E7C
0640
7E7C
6644
7E7C
6644
7E7C
0601
07FF
03FE
ENDCHAR
STARTCHAR 2c38
ENCODING 11320
SWIDTH 362 0
DWIDTH 16 0
BBX 16 16 0 -2
BITMAP
0600
7FF8
0C18
1819
301F
C00E
7FFC
6644
3E7C
7E7C
6644
7E7C
664C
264D
07FF
03FE
ENDCHAR
STARTCHAR 2c39
ENCODING 11321
SWIDTH 362 0
DWIDTH 16 0
BBX 16 16 0 -2
BITMAP
3202
C77F
C203
E603
C203
C207
7E0B
DA33
DAE3
FAC3
DA03
FA03
DA03
DF83
FFBE
D98C
ENDCHAR
STARTCHAR 2c3a
ENCODING 11322
SWIDTH 362 0
DWIDTH 16 0
BBX 16 16 0 -2
BITMAP
0C00
4804
7FFE
6646
6646
4644
7E40
FFFF
1E47
165E
1E5A
1E66
FFFF
7601
07FF
03FF
ENDCHAR
STARTCHAR 2c3b
ENCODING 11323
SWIDTH 362 0
DWIDTH 16 0
BBX 16 16 0 -2
BITMAP
0018
1FF8
1198
1FF8
1198
1198
1FF8
0602
FE7F
D65A
FE7E
D65A
D65A
C642
0002
FFFF
ENDCHAR
STARTCHAR 2c3c
ENCODING 11324
SWIDTH 362 0
DWIDTH 16 0
BBX 16 16 0 -2
BITMAP
08C0
7CF8
0998
5BFE
33B6
3DB6
FFEE
3D8E
3904
3183
33FF
322B
30BF
32D3
761F
2006
ENDCHAR
STARTCHAR 2c3d
ENCODING 11325
SWIDTH 362 0
DWIDTH 16 0
BBX 16 16 0 -2
BITMAP
0300
0183
FFFF
1FF8
1818
4003
FFFF
C18A
BFF8
0420
0666
1830
1FF0
1FF0
1810
1FF0
ENDCHAR
STARTCHAR 2c3e
ENCODING 11326
SWIDTH 362 0
DWIDTH 16 0
BBX 16 16 0 -2
BITMAP
0300
FFFF
0000
1FF8
1818
1FF0
0002
1818
3C3C
7676
9898
3636
FAFA
1818
1818
1010
ENDCHAR
STARTCHAR 2c3f
ENCODING 11327
SWIDTH 362 0
DWIDTH 16 0
BBX 16 16 0 -2
BITMAP
0102
7FFF
1FF0
1818
1FF0
7FFE
7FFC
7FFC
0461
0A7F
733E
1FFC
100C
1FF8
1008
1008
ENDCHAR
STARTCHAR 2c40
ENCODING 11328
SWIDTH 362 0
DWIDTH 16 0
BBX 16 16 0 -2
BITMAP
1C40
1BF6
1AD8
31CB
308C
7106
73DB
B4DA
33DE
30D8
33DC
30D8
33DE
30D8
30DB
3000
ENDCHAR
STARTCHAR 2c41
ENCODING 11329
SWIDTH 362 0
DWIDTH 16 0
BBX 16 16 0 -2
BITMAP
1818
7E7E
1818
7E7E
5E5E
7E7E
3C3C
7EDE
9010
0660
0460
0460
0C61
1861
307F
C03F
ENDCHAR
STARTCHAR 2c42
ENCODING 11330
SWIDTH 362 0
DWIDTH 16 0
BBX 16 16 0 -2
BITMAP
3018
300C
37E8
3008
37E8
2180
219F
7BCC
F6CC
218F
69BF
FB8C
4D8C
798C
D1BC
8118
ENDCHAR
STARTCHAR 2c43
ENCODING 11331
SWIDTH 362 0
DWIDTH 16 0
BBX 16 16 0 -2
BITMAP
4002
7FFF
C002
AA1C
7E18
5418
3FFF
2A18
7E18
621E
7E7E
1846
3E46
1846
7E7E
6042
ENDCHAR
STARTCHAR 2c44
ENCODING 11332
SWIDTH 362 0
DWIDTH 16 0
BBX 16 16 0 -2
BITMAP
0318
C214
6F9E
2234
07AF
123F
3FAB
2FAB
2DAB
6FBF
EDA0
CFA0
6DA0
6DA1
6BBF
199F
ENDCHAR
STARTCHAR 2c45
ENCODING 11333
SWIDTH 362 0
DWIDTH 16 0
BBX 16 16 0 -2
BITMAP
030C
C20A
6FBF
2233
07BA
123E
3FB2
2FBF
2DB2
6FBA
EDBE
CFB2
6DB2
6DA2
6BEE
19C6
ENDCHAR
STARTCHAR 2c46
ENCODING 11334
SWIDTH 362 0
DWIDTH 16 0
BBX 16 16 0 -2
BITMAP
3018
300C
3FF8
3008
3FF8
4183
FFFF
CC32
BFF8
3FFC
7FFE
0A30
318F
6047
81C0
0060
ENDCHAR
STARTCHAR 2c47
ENCODING 11335
SWIDTH 362 0
DWIDTH 16 0
BBX 16 16 0 -2
BITMAP
1998
3330
1998
FFFF
3468
33CC
3E78
3DB8
7FFE
1912
7FFF
8FF2
0830
0831
103F
601E
ENDCHAR
STARTCHAR 2c48
ENCODING 11336
SWIDTH 362 0
DWIDTH 16 0
BBX 16 16 0 -2
BITMAP
0C03
7FC3
0D9A
7F92
6D92
5F92
3F92
6C92
0C92
7FD2
4D92
6D92
7F82
1E02
3D9E
4C86
ENDCHAR
STARTCHAR 2c49
ENCODING 11337
SWIDTH 362 0
DWIDTH 16 0
BBX 16 16 0 -2
BITMAP
2303
6303
7F1A
6112
7F12
7F12
3712
3392
C312
6312
7F12
6112
7F02
7F02
321E
6186
ENDCHAR
STARTCHAR 2c4a
ENCODING 11338
SWIDTH 362 0
DWIDTH 16 0
BBX 16 16 0 -2
BITMAP
3183
3103
F3DA
3112
0C92
7FD2
CC92
8F12
3C12
7F92
0C12
7C12
2F82
6182
619E
6106
ENDCHAR
STARTCHAR 2c4b
ENCODING 11339
SWIDTH 362 0
DWIDTH 16 0
BBX 16 16 0 -2
BITMAP
1C03
1C03
171A
2192
E392
0012
5D92
5F92
5F92
5F92
7F92
0012
FFC2
0082
D2DE
9246
ENDCHAR
STARTCHAR 2c4c
ENCODING 11340
SWIDTH 362 0
DWIDTH 16 0
BBX 16 16 0 -2
BITMAP
6303
7BC3
F79A
9C92
1B12
1992
7F92
0E12
1F92
7392
1B12
7F92
1B02
0E82
1F9E
E386
ENDCHAR
STARTCHAR 2c4d
ENCODING 11341
SWIDTH 362 0
DWIDTH 16 0
BBX 16 16 0 -2
BITMAP
6D80
C97F
DB1B
6D9B
2C1B
6F9B
499B
6B9B
499B
6F1B
0C93
1C33
1E33
2B62
49DE
888C
ENDCHAR
STARTCHAR 2c4e
ENCODING 11342
SWIDTH 362 0
DWIDTH 16 0
BBX 16 16 0 -2
BITMAP
64C3
4D83
C99A
6492
1C12
6D92
6D92
6D92
6D92
7F92
0CD2
1C12
1F02
3D82
6C9E
8C06
ENDCHAR
STARTCHAR 2c4f
ENCODING 11343
SWIDTH 362 0
DWIDTH 16 0
BBX 16 16 0 -2
BITMAP
6D98
C918
DB18
6D98
2C7F
6F9B
499B
6B9B
499B
6F13
0CB3
1C33
1E23
2B63
495E
888C
ENDCHAR
STARTCHAR 2c50
ENCODING 11344
SWIDTH 362 0
DWIDTH 16 0
BBX 16 16 0 -2
BITMAP
1800
3000
3006
3CC3
6CC2
4EC2
C302
0302
3FF2
0C42
1FE2
1FE2
1FE6
3FFE
007C
0018
ENDCHAR
STARTCHAR 2c51
ENCODING 11345
SWIDTH 362 0
DWIDTH 16 0
BBX 16 16 0 -2
BITMAP
1800
3002
3FFF
2843
6FFE
59F2
FDF2
0DFA
19FA
39B2
7BFA
1BE2
1AF6
1B1E
007C
0018
ENDCHAR
STARTCHAR 2c52
ENCODING 11346
SWIDTH 362 0
DWIDTH 16 0
BBX 16 16 0 -2
BITMAP
4002
7FFF
6626
667E
7F66
6666
66FE
71E6
6B66
7FE6
6673
46FC
5FE8
C66E
8673
8421
ENDCHAR
STARTCHAR 2c53
ENCODING 11347
SWIDTH 362 0
DWIDTH 16 0
BBX 16 16 0 -2
BITMAP
021A
5F1B
70FF
507F
5F5A
5D7E
5D5A
5D7E
5D5A
5F56
5806
58C6
5966
5926
9F1E
8F0C
ENDCHAR
STARTCHAR 2c54
ENCODING 11348
SWIDTH 362 0
DWIDTH 16 0
BBX 16 16 0 -2
BITMAP
0810
7DF0
11E3
11EB
FDEB
39EB
2DEB
65EB
47EB
99E6
59E6
5DE6
5BE6
5F6F
F069
4071
ENDCHAR
STARTCHAR 2c55
ENCODING 11349
SWIDTH 362 0
DWIDTH 16 0
BBX 16 16 0 -2
BITMAP
0606
4E66
3C3C
3E3C
E3E7
3666
7E7E
FCFC
9F1C
7377
9899
FFFF
DADA
DEDE
DEDE
1010
ENDCHAR
STARTCHAR 2c56
ENCODING 11350
SWIDTH 362 0
DWIDTH 16 0
BBX 16 16 0 -2
BITMAP
1802
11FF
FE18
1010
143C
7C76
04D3
FE91
C610
FEFE
0086
C686
6C86
3E86
F0FE
4082
ENDCHAR
STARTCHAR 2c57
ENCODING 11351
SWIDTH 362 0
DWIDTH 16 0
BBX 16 16 0 -2
BITMAP
0180
0183
FFFF
7DBC
6DA4
3DBC
7FFE
6186
7FFE
6266
6C3E
7FFE
6C26
6FE6
603E
400C
ENDCHAR
STARTCHAR 2c58
ENCODING 11352
SWIDTH 362 0
DWIDTH 16 0
BBX 16 16 0 -2
BITMAP
600C
6180
7FF8
6018
7FF8
7FFE
0000
7E7C
6644
7E7C
00F8
1F80
0183
0180
0184
7FFE
ENDCHAR
STARTCHAR 2c59
ENCODING 11353
SWIDTH 362 0
DWIDTH 16 0
BBX 16 16 0 -2
BITMAP
008C
00CA
DBFE
D820
D9FC
D820
D833
DA38
DB32
DCBF
DABA
F9DC
C11C
0336
0363
01C1
ENDCHAR
STARTCHAR 2c5a
ENCODING 11354
SWIDTH 362 0
DWIDTH 16 0
BBX 16 16 0 -2
BITMAP
0004
61FE
3104
11FC
0108
F0D8
33FE
2044
79FC
59FC
1904
31FC
310C
790C
CFFF
01FC
ENDCHAR
STARTCHAR 2c5b
ENCODING 11355
SWIDTH 362 0
DWIDTH 16 0
BBX 16 16 0 -2
BITMAP
0006
0030
DBFF
DFAF
D878
DBFC
D8A0
D8C2
D9FF
D9F3
DB9A
F9F2
C19E
0181
01FF
00FF
ENDCHAR
STARTCHAR 2c5c
ENCODING 11356
SWIDTH 362 0
DWIDTH 16 0
BBX 16 16 0 -2
BITMAP
0180
011E
F7DE
F15E
D7DE
D557
D7F3
D562
D7DF
DFF2
D10A
FD6E
CD6C
0D6E
0FF3
0061
ENDCHAR
STARTCHAR 2c5d
ENCODING 11357
SWIDTH 362 0
DWIDTH 16 0
BBX 16 16 0 -2
BITMAP
4842
7DFF
496A
496A
79EE
437A
0CF6
6030
606C
7CF7
4DE3
0EDC
0834
08CE
7838
31C0
ENDCHAR
STARTCHAR 2c5e
ENCODING 11358
SWIDTH 362 0
DWIDTH 16 0
BBX 16 16 0 -2
BITMAP
0304
033E
F22C
FF9A
D27F
D73A
D7F8
D798
DE00
DA1C
DA7F
F218
C27E
027B
02D9
0398
ENDCHAR
STARTCHAR 2c5f
ENCODING 11359
SWIDTH 362 0
DWIDTH 16 0
BBX 16 16 0 -2
BITMAP
0482
07FF
FF90
FF90
D796
D7B6
D7B6
D33E
D7FE
D33E
D7A6
F7E6
C726
0F2F
0B77
0363
ENDCHAR
STARTCHAR 2c60
ENCODING 11360
SWIDTH 362 0
DWIDTH 16 0
BBX 16 16 0 -2
BITMAP
0106
01FE
D97E
D97E
D906
DBFF
DB5A
DBFE
D820
DBFF
D840
F87E
C0C6
0086
013E
060C
ENDCHAR
STARTCHAR 2c61
ENCODING 11361
SWIDTH 362 0
DWIDTH 16 0
BBX 16 16 0 -2
BITMAP
009C
00D8
DADB
DAD8
DAD8
DBDF
DB3F
D833
DBFF
D9FF
D933
F9FE
C072
00FF
01B7
0230
ENDCHAR
STARTCHAR 2c62
ENCODING 11362
SWIDTH 362 0
DWIDTH 16 0
BBX 16 16 0 -2
BITMAP
0002
FFDF
DE52
DE52
FFDE
8100
1D98
1998
19B8
35B4
67E6
018C
3FFC
0180
0182
FFFF
ENDCHAR
STARTCHAR 2c63
ENCODING 11363
SWIDTH 362 0
DWIDTH 16 0
BBX 16 16 0 -2
BITMAP
1198
FF94
D792
F791
1810
327F
6310
7D93
6113
7F1E
611E
7F0C
631D
6337
6767
43C3
ENDCHAR
STARTCHAR 2c64
ENCODING 11364
SWIDTH 362 0
DWIDTH 16 0
BBX 16 16 0 -2
BITMAP
0184
03DF
D984
D92C
D9AC
DBFF
D9AC
D9BC
D982
D930
D833
F830
C1B4
01B2
0333
0231
ENDCHAR
STARTCHAR 2c65
ENCODING 11365
SWIDTH 362 0
DWIDTH 16 0
BBX 16 16 0 -2
BITMAP
0030
0032
D9FE
D9B6
DBCF
D986
D984
D986
D986
D986
D986
F986
C186
01CC
0183
0601
ENDCHAR
STARTCHAR 2c66
ENCODING 11366
SWIDTH 362 0
DWIDTH 16 0
BBX 16 16 0 -2
BITMAP
061A
7E1B
667F
6618
7E5B
025B
7F5B
5B5B
FF7F
FF5B
5A5B
FF7F
5A5B
5A5B
5E5B
464A
ENDCHAR
STARTCHAR 2c67
ENCODING 11367
SWIDTH 362 0
DWIDTH 16 0
BBX 16 16 0 -2
BITMAP
0202
03FF
DBDF
DBBF
DBEF
DBFF
D802
D9FE
D986
D9FE
D986
F9FE
C186
0186
019E
0104
ENDCHAR
STARTCHAR 2c68
ENCODING 11368
SWIDTH 362 0
DWIDTH 16 0
BBX 16 16 0 -2
BITMAP
0060
0066
D8FE
DBAC
D9F8
D9E0
D9B2
D9FF
D88C
D84B
DBFF
F9FE
C186
01FE
0186
0184
ENDCHAR
STARTCHAR 2c69
ENCODING 11369
SWIDTH 362 0
DWIDTH 16 0
BBX 16 16 0 -2
BITMAP
019C
01FF
DB9E
DE72
D800
D9FE
D906
D9FE
D906
D9FE
D906
F9FE
C084
018C
0306
0603
ENDCHAR
STARTCHAR 2c6a
ENCODING 11370
SWIDTH 362 0
DWIDTH 16 0
BBX 16 16 0 -2
BITMAP
0300
031F
F3DB
FC9B
D7DB
D777
D766
D7DC
D75F
D75C
D7E4
F65F
C444
0444
0DC4
1884
ENDCHAR
STARTCHAR 2c6b
ENCODING 11371
SWIDTH 362 0
DWIDTH 16 0
BBX 16 16 0 -2
BITMAP
01B0
019B
D9FF
DB92
DBFE
DD92
D9FE
D993
D9FF
D80B
D9EF
F97B
C10B
0103
010F
0106
ENDCHAR
STARTCHAR 2c6c
ENCODING 11372
SWIDTH 362 0
DWIDTH 16 0
BBX 16 16 0 -2
BITMAP
1830
7F36
2632
24FE
7F36
7F36
621D
7E1B
623E
63C6
4102
0180
3FFC
0180
0182
FFFF
ENDCHAR
STARTCHAR 2c6d
ENCODING 11373
SWIDTH 362 0
DWIDTH 16 0
BBX 16 16 0 -2
BITMAP
0180
FFFF
3000
3FF8
1FF8
3FFC
300C
3FF8
0108
79BE
5BD6
79B6
79BE
7FFF
D827
9843
ENDCHAR
STARTCHAR 2c6e
ENCODING 11374
SWIDTH 362 0
DWIDTH 16 0
BBX 16 16 0 -2
BITMAP
3020
33FF
3203
3230
FDFE
3064
31FC
31FC
3184
31FC
318C
3D8C
73FF
E088
0186
0602
ENDCHAR
STARTCHAR 2c6f
ENCODING 11375
SWIDTH 362 0
DWIDTH 16 0
BBX 16 16 0 -2
BITMAP
2043
3026
263F
2218
F810
203B
275C
2336
266F
271D
2135
3B4C
723C
C788
0DFF
007E
ENDCHAR
STARTCHAR 2c70
ENCODING 11376
SWIDTH 362 0
DWIDTH 16 0
BBX 16 16 0 -2
BITMAP
3004
31FE
3196
3186
FDF6
3002
33FF
335A
33FE
3033
33FF
3CFE
7086
E186
033C
0608
ENDCHAR
STARTCHAR 2c71
ENCODING 11377
SWIDTH 362 0
DWIDTH 16 0
BBX 16 16 0 -2
BITMAP
2004
607E
6666
627E
F076
62FF
6E83
66BF
6CAB
6EBB
6283
768F
7683
CF80
09FF
003F
ENDCHAR
STARTCHAR 2c72
ENCODING 11378
SWIDTH 362 0
DWIDTH 16 0
BBX 16 16 0 -2
BITMAP
20C6
30C4
23CF
2084
F830
2033
21FF
2068
20CC
21B7
2313
3802
71FF
C17A
017A
03FF
ENDCHAR
STARTCHAR 2c73
ENCODING 11379
SWIDTH 362 0
DWIDTH 16 0
BBX 16 16 0 -2
BITMAP
2300
66DE
6456
6456
F6D6
6453
6471
67E2
651F
6112
67DE
710E
710C
C3CE
0F13
0461
ENDCHAR
STARTCHAR 2c74
ENCODING 11380
SWIDTH 362 0
DWIDTH 16 0
BBX 16 16 0 -2
BITMAP
4302
67FF
04AC
57AC
14BF
37BC
250C
649C
67F5
6467
21C0
0180
0186
0180
0180
FFFF
ENDCHAR
STARTCHAR 2c75
ENCODING 11381
SWIDTH 362 0
DWIDTH 16 0
BBX 16 16 0 -2
BITMAP
0180
7FFE
0180
1FFC
7FFF
C00B
BFFA
1FF8
1818
1FF8
0660
3C7C
200C
3E7C
0660
FFFF
ENDCHAR
STARTCHAR 2c76
ENCODING 11382
SWIDTH 362 0
DWIDTH 16 0
BBX 16 16 0 -2
BITMAP
0180
4083
7FFF
FFFE
A2CC
3EFC
32CC
32CC
3EFC
0600
3C30
1C30
3660
63C0
0E7F
F00E
ENDCHAR
STARTCHAR 2c77
ENCODING 11383
SWIDTH 362 0
DWIDTH 16 0
BBX 16 16 0 -2
BITMAP
4E10
6634
7E6E
6638
7C32
BEFF
66E3
BC60
3E66
DBFE
5EC6
5EEC
5F38
5E3C
5C6F
1187
ENDCHAR
STARTCHAR 2c78
ENCODING 11384
SWIDTH 362 0
DWIDTH 16 0
BBX 16 16 0 -2
BITMAP
0830
0434
7FFE
366C
1E7B
0018
1FF8
1FF8
1818
1FF0
00F8
1F00
0303
0670
1C1C
F007
ENDCHAR
STARTCHAR 2c79
ENCODING 11385
SWIDTH 362 0
DWIDTH 16 0
BBX 16 16 0 -2
BITMAP
0180
0183
FFFF
7DBE
3198
3198
3FFE
C660
0C38
3B3F
E1F6
2CE0
6986
CF13
DFF3
77F0
ENDCHAR
STARTCHAR 2c7a
ENCODING 11386
SWIDTH 362 0
DWIDTH 16 0
BBX 16 16 0 -2
BITMAP
0204
7E7E
1810
FFFF
1C38
3724
63C3
C181
0206
1830
1810
FFFF
1C38
366C
63C7
C183
ENDCHAR
STARTCHAR 2c7b
ENCODING 11387
SWIDTH 362 0
DWIDTH 16 0
BBX 16 16 0 -2
BITMAP
31C0
3183
31FF
7FFE
31FE
31FE
3FFF
31FE
31FE
31FE
39FF
6C00
6C92
424B
8269
0201
ENDCHAR
STARTCHAR 2c7c
ENCODING 11388
SWIDTH 362 0
DWIDTH 16 0
BBX 16 16 0 -2
BITMAP
0300
0302
7FFE
0C30
181C
3B77
DB6C
1B60
1BE0
1FFC
1C18
7E7F
1C38
3E76
D8D3
1910
ENDCHAR
STARTCHAR 2c7d
ENCODING 11389
SWIDTH 362 0
DWIDTH 16 0
BBX 16 16 0 -2
BITMAP
0618
3F10
5810
7A7E
7A16
7F16
9D96
7B16
7AFF
BD10
1A38
1834
1862
1EC3
F181
4300
ENDCHAR
STARTCHAR 2c7e
ENCODING 11390
SWIDTH 362 0
DWIDTH 16 0
BBX 16 16 0 -2
BITMAP
3180
31E0
2630
3FFC
2000
3FFC
3008
3FF8
5B06
5BD6
5FD6
5EFE
5F96
59D7
5B77
9E67
ENDCHAR
STARTCHAR 2d21
ENCODING 11553
SWIDTH 362 0
DWIDTH 16 0
BBX 16 16 0 -2
BITMAP
1B0E
6226
67E6
64E6
75EE
65E6
6666
67E6
741C
0630
0C33
0C30
1C60
1FE0
033C
7C0E
ENDCHAR
STARTCHAR 2d22
ENCODING 11554
SWIDTH 362 0
DWIDTH 16 0
BBX 16 16 0 -2
BITMAP
4060
63FF
625B
7ACE
FB86
FBDF
7ACB
598E
DBDA
D671
F0C6
32F3
3BCE
498C
C3DF
0673
ENDCHAR
STARTCHAR 2d23
ENCODING 11555
SWIDTH 362 0
DWIDTH 16 0
BBX 16 16 0 -2
BITMAP
4000
61FF
6133
7BB7
FAFF
F878
79B6
5930
D99C
D33F
F7DB
319B
3BDB
4FF3
C27F
00C6
ENDCHAR
STARTCHAR 2d24
ENCODING 11556
SWIDTH 362 0
DWIDTH 16 0
BBX 16 16 0 -2
BITMAP
4042
67FF
665B
7FDF
FE5B
FFDF
7E63
5EDB
DFFF
D6DB
F6DB
36DB
3EDB
4E9B
C70F
0606
ENDCHAR
STARTCHAR 2d25
ENCODING 11557
SWIDTH 362 0
DWIDTH 16 0
BBX 16 16 0 -2
BITMAP
4000
67FF
6086
7BDE
FAD6
FBDE
7A06
5FFF
DE0B
D6FB
F6FF
37FF
3E23
4E23
C627
0606
ENDCHAR
STARTCHAR 2d26
ENCODING 11558
SWIDTH 362 0
DWIDTH 16 0
BBX 16 16 0 -2
BITMAP
2030
63FF
6132
6933
FD36
E97A
68FE
69B7
4BFE
D986
F9FE
31FE
3986
6DFE
C186
0703
ENDCHAR
STARTCHAR 2d27
ENCODING 11559
SWIDTH 362 0
DWIDTH 16 0
BBX 16 16 0 -2
BITMAP
2030
63FF
6379
69CF
FD86
EBFF
6F86
69FE
4986
D9FC
F933
31B4
38E8
6CCC
C187
0303
ENDCHAR
STARTCHAR 2d28
ENCODING 11560
SWIDTH 362 0
DWIDTH 16 0
BBX 16 16 0 -2
BITMAP
2010
601F
6010
69FF
FD32
E9FE
6930
691E
490E
D97B
F96A
31FF
3946
6F66
C206
040C
ENDCHAR
STARTCHAR 2d29
ENCODING 11561
SWIDTH 362 0
DWIDTH 16 0
BBX 16 16 0 -2
BITMAP
2202
63FF
636F
6BB7
FFEF
EB13
6BFF
6906
49FE
D986
F9FE
3186
39FE
6D86
C19E
010C
ENDCHAR
STARTCHAR 2d2a
ENCODING 11562
SWIDTH 362 0
DWIDTH 16 0
BBX 16 16 0 -2
BITMAP
418C
666C
6668
7E78
FF7F
FE7A
7E6A
5FEA
D9CA
D18E
F7EE
3184
398E
49FB
C7B3
0261
ENDCHAR
STARTCHAR 2d2b
ENCODING 11563
SWIDTH 362 0
DWIDTH 16 0
BBX 16 16 0 -2
BITMAP
007C
7FC0
3108
631C
7B9C
6B18
7FFE
4180
7186
7FFC
0630
FFFF
0C60
1FC0
03FC
7C0E
ENDCHAR
STARTCHAR 2d2c
ENCODING 11564
SWIDTH 362 0
DWIDTH 16 0
BBX 16 16 0 -2
BITMAP
0180
03C0
0670
0C1F
37E7
DFF8
1018
1FF8
1300
7BFE
5FD6
5BD6
7EFE
5B97
DBF7
9E67
ENDCHAR
STARTCHAR 2d2d
ENCODING 11565
SWIDTH 362 0
DWIDTH 16 0
BBX 16 16 0 -2
BITMAP
2030
3413
FFFF
7CFE
44C6
44C6
7CFE
0406
7EFE
0C0C
101A
F9FF
D018
1018
7078
3030
ENDCHAR
STARTCHAR 2d2e
ENCODING 11566
SWIDTH 362 0
DWIDTH 16 0
BBX 16 16 0 -2
BITMAP
2030
3462
FFFF
7D93
4592
45FE
7DB2
05B2
7FFE
0C5C
10D8
F9FF
D018
1018
7018
3018
ENDCHAR
STARTCHAR 2d2f
ENCODING 11567
SWIDTH 362 0
DWIDTH 16 0
BBX 16 16 0 -2
BITMAP
08C2
7CFF
09D3
116A
33EE
32CE
30DB
39A1
F232
71B6
30FC
33FF
31B4
31B2
F333
6231
ENDCHAR
STARTCHAR 2d30
ENCODING 11568
SWIDTH 362 0
DWIDTH 16 0
BBX 16 16 0 -2
BITMAP
2184
6186
7FFC
4C20
7DFE
4848
4DFF
7DFE
4830
4030
1FF0
00C2
7FFF
0180
0F80
0300
ENDCHAR
STARTCHAR 2d31
ENCODING 11569
SWIDTH 362 0
DWIDTH 16 0
BBX 16 16 0 -2
BITMAP
0CC0
70D0
31FF
319A
3BFE
7DFE
D598
11FF
0020
1FF0
00C0
0182
7FFE
0180
0F80
0300
ENDCHAR
STARTCHAR 2d32
ENCODING 11570
SWIDTH 362 0
DWIDTH 16 0
BBX 16 16 0 -2
BITMAP
2030
3430
FE3B
7C37
4436
443F
7DFF
0430
7E66
0CE3
11E2
FB7E
D062
1062
707E
3042
ENDCHAR
STARTCHAR 2d33
ENCODING 11571
SWIDTH 362 0
DWIDTH 16 0
BBX 16 16 0 -2
BITMAP
0100
7FFF
C003
8002
7FFC
0C41
387F
FFF0
1FF0
1FF0
1830
01C8
1998
0B70
0E30
701F
ENDCHAR
STARTCHAR 2d34
ENCODING 11572
SWIDTH 362 0
DWIDTH 16 0
BBX 16 16 0 -2
BITMAP
0180
4083
7FFF
C182
FFFC
1D98
19B8
35AC
67C6
0000
3FFC
37E8
3468
37E8
3008
3008
ENDCHAR
STARTCHAR 2d35
ENCODING 11573
SWIDTH 362 0
DWIDTH 16 0
BBX 16 16 0 -2
BITMAP
0100
7FFF
4003
DFFE
9998
1998
1FF8
618C
7FFE
61F4
7F14
6B3C
0D98
283C
4FF6
C7E2
ENDCHAR
STARTCHAR 2d36
ENCODING 11574
SWIDTH 362 0
DWIDTH 16 0
BBX 16 16 0 -2
BITMAP
0100
7FFF
4203
C606
BFF0
0411
0C1B
381F
4440
7E62
7EFF
7ECC
6778
3C30
66EF
C387
ENDCHAR
STARTCHAR 2d37
ENCODING 11575
SWIDTH 362 0
DWIDTH 16 0
BBX 16 16 0 -2
BITMAP
0100
7FFF
4303
C60E
BFFC
31EC
3FA8
37E8
3FE8
35E8
3908
0182
7FFE
0638
1C0E
7006
ENDCHAR
STARTCHAR 2d38
ENCODING 11576
SWIDTH 362 0
DWIDTH 16 0
BBX 16 16 0 -2
BITMAP
0C06
FF86
1C06
3F7F
E986
C906
7FA6
49B6
7F96
4106
5F06
5F06
5106
DF06
931E
930C
ENDCHAR
STARTCHAR 2d39
ENCODING 11577
SWIDTH 362 0
DWIDTH 16 0
BBX 16 16 0 -2
BITMAP
1406
D706
7606
FF7F
2206
3606
FF66
1836
1B36
1806
1A06
7F06
4306
4306
433E
430C
ENDCHAR
STARTCHAR 2d3a
ENCODING 11578
SWIDTH 362 0
DWIDTH 16 0
BBX 16 16 0 -2
BITMAP
CC18
6C18
38DE
3CDB
C799
3016
307E
FE46
207E
2846
287E
78DC
54DA
F49B
FF79
2030
ENDCHAR
STARTCHAR 2d3b
ENCODING 11579
SWIDTH 362 0
DWIDTH 16 0
BBX 16 16 0 -2
BITMAP
2830
64FE
6644
C26C
EDFF
6CFE
6CD6
6CFE
6CF6
6CF4
6CFE
6C10
6DFF
4C01
CFFF
87FF
ENDCHAR
STARTCHAR 2d3c
ENCODING 11580
SWIDTH 362 0
DWIDTH 16 0
BBX 16 16 0 -2
BITMAP
1818
FF10
0210
7F10
63FF
7E10
1810
FF38
0238
7F38
6238
7E78
5C59
7BD9
F99F
9B0F
ENDCHAR
STARTCHAR 2d3d
ENCODING 11581
SWIDTH 362 0
DWIDTH 16 0
BBX 16 16 0 -2
BITMAP
0C18
0F14
0812
7F92
5933
5830
4F10
4010
4E38
7F38
6F38
6F78
FF59
CFD9
BD9F
930F
ENDCHAR
STARTCHAR 2d3e
ENCODING 11582
SWIDTH 362 0
DWIDTH 16 0
BBX 16 16 0 -2
BITMAP
0E18
7814
1812
FF12
3633
7F30
E710
7C10
0038
FF38
C338
FE78
FA59
FAD9
C69F
C78F
ENDCHAR
STARTCHAR 2d3f
ENCODING 11583
SWIDTH 362 0
DWIDTH 16 0
BBX 16 16 0 -2
BITMAP
4006
7FFE
6006
7FFE
6042
7EFF
61B6
7E3C
61C6
67FF
660C
460C
47FC
C7FC
830C
8C06
ENDCHAR
STARTCHAR 2d40
ENCODING 11584
SWIDTH 362 0
DWIDTH 16 0
BBX 16 16 0 -2
BITMAP
4006
6006
7FFE
6000
7FFF
6FE6
6C66
601C
6130
7F3E
7B36
7B36
5F3E
4121
C1FF
81FF
ENDCHAR
STARTCHAR 2d41
ENCODING 11585
SWIDTH 362 0
DWIDTH 16 0
BBX 16 16 0 -2
BITMAP
2184
6186
7FFC
0600
0C30
6E76
6C36
FBFF
C380
06E0
1F1F
718F
9FF8
0800
0FF8
07F8
ENDCHAR
STARTCHAR 2d42
ENCODING 11586
SWIDTH 362 0
DWIDTH 16 0
BBX 16 16 0 -2
BITMAP
4860
7DFF
48C0
50FE
491A
4C70
4C62
7CC0
58FE
4198
40FE
0180
7186
6184
618C
600C
ENDCHAR
STARTCHAR 2d43
ENCODING 11587
SWIDTH 362 0
DWIDTH 16 0
BBX 16 16 0 -2
BITMAP
2202
33FF
2303
A3FF
ABDE
AB7C
AB3C
ABD3
AB10
AB5E
AB5E
ABFE
FA9B
02DB
04DB
0883
ENDCHAR
STARTCHAR 2d44
ENCODING 11588
SWIDTH 362 0
DWIDTH 16 0
BBX 16 16 0 -2
BITMAP
2184
6186
7FFC
0180
3FFC
1118
FE7F
1018
3FF8
3008
3FF8
3FF8
3008
3FF8
380C
6006
ENDCHAR
STARTCHAR 2d45
ENCODING 11589
SWIDTH 362 0
DWIDTH 16 0
BBX 16 16 0 -2
BITMAP
2184
6186
7FFC
0006
7FFF
7FBE
6DB6
679E
7DF6
73CC
63B0
66DF
5FA6
43D0
C678
8F80
ENDCHAR
STARTCHAR 2d46
ENCODING 11590
SWIDTH 362 0
DWIDTH 16 0
BBX 16 16 0 -2
BITMAP
0180
7186
6184
7FFC
0040
7E44
46FE
46CC
7F38
1838
5E6E
58C7
5BFE
5EC6
F0C6
40C4
ENDCHAR
STARTCHAR 2d47
ENCODING 11591
SWIDTH 362 0
DWIDTH 16 0
BBX 16 16 0 -2
BITMAP
20C4
33CF
2084
A084
A9FE
A9B6
A9FE
A9B6
A9FE
AFFF
AB33
AB3F
FBFF
03C7
030F
0306
ENDCHAR
STARTCHAR 2d48
ENCODING 11592
SWIDTH 362 0
DWIDTH 16 0
BBX 16 16 0 -2
BITMAP
2184
6186
618C
600C
4006
69A6
6DB6
7DF6
73CE
6DB6
7DF6
77DE
6186
6186
6186
6004
ENDCHAR
STARTCHAR 2d49
ENCODING 11593
SWIDTH 362 0
DWIDTH 16 0
BBX 16 16 0 -2
BITMAP
1818
5E5E
5E5E
FEFE
0830
0434
7FFE
0180
3FF8
0180
7FFE
0C00
1FFC
3080
E082
3FFF
ENDCHAR
STARTCHAR 2d4a
ENCODING 11594
SWIDTH 362 0
DWIDTH 16 0
BBX 16 16 0 -2
BITMAP
3121
315D
31FF
317F
B551
B5FF
B44C
B4CF
B5E7
B746
B5FE
B4CC
FD38
0038
00EF
0383
ENDCHAR
STARTCHAR 2d4b
ENCODING 11595
SWIDTH 362 0
DWIDTH 16 0
BBX 16 16 0 -2
BITMAP
2184
6186
7FFC
060C
1FF8
1FF8
1018
1018
1FF8
7FFE
0C30
0663
FFFF
7FFE
0180
0100
ENDCHAR
STARTCHAR 2d4c
ENCODING 11596
SWIDTH 362 0
DWIDTH 16 0
BBX 16 16 0 -2
BITMAP
2060
3042
23FF
A37A
ABAA
ABFA
AB72
ABFE
ABA2
AA32
AC33
AC60
F84C
0086
0103
0601
ENDCHAR
STARTCHAR 2d4d
ENCODING 11597
SWIDTH 362 0
DWIDTH 16 0
BBX 16 16 0 -2
BITMAP
0100
07C0
0C78
7FFF
8184
7FFE
1DB8
378C
5114
5E5E
5E5E
FEFE
0180
7186
618C
600C
ENDCHAR
STARTCHAR 2d4e
ENCODING 11598
SWIDTH 362 0
DWIDTH 16 0
BBX 16 16 0 -2
BITMAP
0202
FF7F
0A02
3202
327E
7E02
0202
0202
0202
FF7F
0A02
3202
327E
7E02
0202
0202
ENDCHAR
STARTCHAR 2d4f
ENCODING 11599
SWIDTH 362 0
DWIDTH 16 0
BBX 16 16 0 -2
BITMAP
3040
1473
FE5B
4C46
7FFC
FE43
9E42
10E4
7CEC
54E3
54A6
54A4
55B9
5D31
133F
161F
ENDCHAR
STARTCHAR 2d50
ENCODING 11600
SWIDTH 362 0
DWIDTH 16 0
BBX 16 16 0 -2
BITMAP
0180
7FFF
0188
4003
FFFF
BFFE
0C18
1C18
6FF8
0302
7FFE
0DB8
3FFF
F198
11F8
0100
ENDCHAR
STARTCHAR 2d51
ENCODING 11601
SWIDTH 362 0
DWIDTH 16 0
BBX 16 16 0 -2
BITMAP
3020
3033
31FF
FCC6
B54C
B5FF
B52E
B52F
B5FF
B52A
B57E
BF6C
336E
32AB
3728
3428
ENDCHAR
STARTCHAR 2d52
ENCODING 11602
SWIDTH 362 0
DWIDTH 16 0
BBX 16 16 0 -2
BITMAP
3020
33FF
3344
FF6F
B7FF
B768
B7FF
B76A
B7FF
B76A
B7FE
BE6C
32EE
37EB
376B
3068
ENDCHAR
STARTCHAR 2d53
ENCODING 11603
SWIDTH 362 0
DWIDTH 16 0
BBX 16 16 0 -2
BITMAP
3030
3032
31FE
FDB6
B7CF
B586
B584
B586
B586
B586
B586
BD86
3186
30CC
3183
3701
ENDCHAR
STARTCHAR 2d54
ENCODING 11604
SWIDTH 362 0
DWIDTH 16 0
BBX 16 16 0 -2
BITMAP
3030
33FF
3132
FD33
B536
B57A
B4FE
B5B7
B7FE
B586
B5FE
BDFE
3186
31FE
3186
3703
ENDCHAR
STARTCHAR 2d55
ENCODING 11605
SWIDTH 362 0
DWIDTH 16 0
BBX 16 16 0 -2
BITMAP
3006
31FE
318E
FD86
B5BE
B502
B5FF
B56B
B5FE
B413
B5FF
BC7E
30C6
3086
313E
360C
ENDCHAR
STARTCHAR 2d56
ENCODING 11606
SWIDTH 362 0
DWIDTH 16 0
BBX 16 16 0 -2
BITMAP
30CC
33CF
30C8
FCA8
B436
B43E
B43C
B7FF
B462
B4FF
B5C7
BFC6
36FE
30C6
30C6
30C6
ENDCHAR
STARTCHAR 2d57
ENCODING 11607
SWIDTH 362 0
DWIDTH 16 0
BBX 16 16 0 -2
BITMAP
0670
FC7F
0460
7FFC
6664
7FFC
00D8
7FFE
006C
01BE
216E
3FF8
3118
3118
3170
0100
ENDCHAR
STARTCHAR 2d58
ENCODING 11608
SWIDTH 362 0
DWIDTH 16 0
BBX 16 16 0 -2
BITMAP
3030
3030
304C
FC87
B503
B7FC
B400
B5FF
B57A
B57A
B5CE
BCC4
30CC
31EE
3333
3621
ENDCHAR
STARTCHAR 2d59
ENCODING 11609
SWIDTH 362 0
DWIDTH 16 0
BBX 16 16 0 -2
BITMAP
0180
4083
7FFF
6330
6BBE
6F20
6B32
7FFE
6860
7FFE
67FC
4444
47FC
C1F0
865E
9846
ENDCHAR
STARTCHAR 2d5a
ENCODING 11610
SWIDTH 362 0
DWIDTH 16 0
BBX 16 16 0 -2
BITMAP
000E
1DB8
19B8
35BC
67E6
7DFC
65E4
7DFC
0184
7FFE
0C30
0C33
FFFF
0830
1030
6030
ENDCHAR
STARTCHAR 2d5b
ENCODING 11611
SWIDTH 362 0
DWIDTH 16 0
BBX 16 16 0 -2
BITMAP
1670
77E2
747E
7FE6
FD1C
AD18
3F1C
1F27
06C2
0C30
0C30
FFFF
0C30
0830
1030
6030
ENDCHAR
STARTCHAR 2d5c
ENCODING 11612
SWIDTH 362 0
DWIDTH 16 0
BBX 16 16 0 -2
BITMAP
0800
7FEC
643E
67E4
76AC
67E4
6FAC
6EAC
6424
0C30
0C30
FFFF
0C30
0830
1030
6030
ENDCHAR
STARTCHAR 2d5d
ENCODING 11613
SWIDTH 362 0
DWIDTH 16 0
BBX 16 16 0 -2
BITMAP
660C
460E
768B
D689
BE8A
1AFF
1B88
FB08
1B08
1B88
7C8C
088C
010D
7487
D2C3
8043
ENDCHAR
STARTCHAR 2d5e
ENCODING 11614
SWIDTH 362 0
DWIDTH 16 0
BBX 16 16 0 -2
BITMAP
2006
F7FF
3588
3588
F5BF
F5AA
C5AA
C5AA
F7AA
35BE
35A8
3F8E
318B
31FF
E1F1
6180
ENDCHAR
STARTCHAR 2d5f
ENCODING 11615
SWIDTH 362 0
DWIDTH 16 0
BBX 16 16 0 -2
BITMAP
1182
F9FF
1333
17E3
F2CB
F38F
C608
C3F8
F79F
15B3
17F3
17B3
17B3
37A3
E7FE
6024
ENDCHAR
STARTCHAR 2d60
ENCODING 11616
SWIDTH 362 0
DWIDTH 16 0
BBX 16 16 0 -2
BITMAP
1602
FFEF
1523
1F63
F7EB
F72F
C6E8
C618
F63F
15A3
1D63
1763
17E3
3323
E6EE
6044
ENDCHAR
STARTCHAR 2d61
ENCODING 11617
SWIDTH 362 0
DWIDTH 16 0
BBX 16 16 0 -2
BITMAP
000C
000C
1FFC
3FFC
3008
336C
37E8
3BF8
3D28
3FF8
0188
FFFF
0980
1998
6186
C102
ENDCHAR
STARTCHAR 2d62
ENCODING 11618
SWIDTH 362 0
DWIDTH 16 0
BBX 16 16 0 -2
BITMAP
6006
66FE
7E06
AEFE
2E06
7FFF
5678
BEF0
0570
03D8
FEFF
C69B
FE9B
C69B
C69F
C610
ENDCHAR
STARTCHAR 2d63
ENCODING 11619
SWIDTH 362 0
DWIDTH 16 0
BBX 16 16 0 -2
BITMAP
6040
667E
7EC6
AEFC
2E0C
7FFF
5678
BEF0
0570
03D8
FEFF
C69B
FE9B
C69B
C69F
C610
ENDCHAR
STARTCHAR 2d64
ENCODING 11620
SWIDTH 362 0
DWIDTH 16 0
BBX 16 16 0 -2
BITMAP
4206
7F1C
4322
7F06
4338
7F03
010E
FFB8
8F06
7826
1B36
7C1C
7A18
593C
D9E7
98C3
ENDCHAR
STARTCHAR 2d65
ENCODING 11621
SWIDTH 362 0
DWIDTH 16 0
BBX 16 16 0 -2
BITMAP
1A1C
1B18
3378
231B
5B9F
1FD6
3F76
6036
67FE
A56E
256C
27EC
256E
257A
27F3
2021
ENDCHAR
STARTCHAR 2d66
ENCODING 11622
SWIDTH 362 0
DWIDTH 16 0
BBX 16 16 0 -2
BITMAP
1888
37CC
36FF
76D3
DED2
17DC
3604
663F
66CC
A6CC
2EDF
2ECC
3ECC
36CC
27CC
268C
ENDCHAR
STARTCHAR 2d67
ENCODING 11623
SWIDTH 362 0
DWIDTH 16 0
BBX 16 16 0 -2
BITMAP
1802
19FF
317A
217A
4DFE
0BFF
1800
31FE
3186
71FE
9152
1096
118C
17B6
11C3
1081
ENDCHAR
STARTCHAR 2d68
ENCODING 11624
SWIDTH 362 0
DWIDTH 16 0
BBX 16 16 0 -2
BITMAP
1828
30AB
30EE
61FF
DE86
1644
366E
6630
6614
A6FE
2610
27FF
2630
246E
20C3
2181
ENDCHAR
STARTCHAR 2d69
ENCODING 11625
SWIDTH 362 0
DWIDTH 16 0
BBX 16 16 0 -2
BITMAP
0300
7FFF
C186
81F4
1F88
3FFC
0182
FF80
218C
366C
366C
3B88
1C80
5896
DFF3
8FF1
ENDCHAR
STARTCHAR 2d6a
ENCODING 11626
SWIDTH 362 0
DWIDTH 16 0
BBX 16 16 0 -2
BITMAP
0080
6FFE
6210
6134
6FFC
6D3C
6FFC
6D34
6DFC
6C0C
7FFE
0980
4CCC
CC13
CFF1
07F0
ENDCHAR
STARTCHAR 2d6b
ENCODING 11627
SWIDTH 362 0
DWIDTH 16 0
BBX 16 16 0 -2
BITMAP
0190
19B0
09A6
0DB0
1D9C
7106
1A18
3FFE
76D8
1CFE
7018
4DC0
4CC6
CC1B
CFF1
07F0
ENDCHAR
STARTCHAR 2d6c
ENCODING 11628
SWIDTH 362 0
DWIDTH 16 0
BBX 16 16 0 -2
BITMAP
4646
7E7E
4646
4646
7E7E
4106
5FF6
4666
43C6
47FE
599E
4E96
5E3E
53EE
41DE
400C
ENDCHAR
STARTCHAR 2d6d
ENCODING 11629
SWIDTH 362 0
DWIDTH 16 0
BBX 16 16 0 -2
BITMAP
4646
7E7E
4646
4646
7E7E
4446
4676
5E7E
4466
4586
47D6
4E3E
5F6E
53E6
401E
400C
ENDCHAR
STARTCHAR 2d6e
ENCODING 11630
SWIDTH 362 0
DWIDTH 16 0
BBX 16 16 0 -2
BITMAP
0018
006C
0FE8
0FE8
3FF8
37E0
2180
600C
7FFE
1FC4
1FCC
0138
4C80
4C0E
CFFB
07F0
ENDCHAR
STARTCHAR 2d6f
ENCODING 11631
SWIDTH 362 0
DWIDTH 16 0
BBX 16 16 0 -2
BITMAP
4646
7E7E
4646
4646
7EFE
43C6
4C3E
5FFE
4336
46F6
59E6
4E86
5E7E
57EE
41DE
400C
ENDCHAR
STARTCHAR 2d70
ENCODING 11632
SWIDTH 362 0
DWIDTH 16 0
BBX 16 16 0 -2
BITMAP
0180
3FFC
09B0
FFFF
0830
1FF8
1198
1FF8
1198
1630
0CF8
1D08
0C84
6856
4FF2
87F0
ENDCHAR
STARTCHAR 2d71
ENCODING 11633
SWIDTH 362 0
DWIDTH 16 0
BBX 16 16 0 -2
BITMAP
1C1C
7F18
187F
1B5B
FF7E
7656
F756
A5DC
6C9E
CC67
8080
0DC0
4CC6
CC1B
CFF1
07F0
ENDCHAR
STARTCHAR 2d72
ENCODING 11634
SWIDTH 362 0
DWIDTH 16 0
BBX 16 16 0 -2
BITMAP
8860
FFFF
D8C6
D1B0
F3FF
DAFE
C8B6
C89E
F9FE
D36E
C204
0DC0
4CC6
CC1B
CFF1
07F0
ENDCHAR
ENDFONT
